<ttFont>
    <TTGlyph name=".notdef" xMin="85" yMin="0" xMax="453" yMax="678">
      <contour>
        <pt x="156" y="546" on="1"/>
        <pt x="156" y="130" on="1"/>
        <pt x="156" y="98" on="0"/>
        <pt x="179" y="71" on="0"/>
        <pt x="210" y="71" on="1"/>
        <pt x="328" y="71" on="1"/>
        <pt x="359" y="71" on="0"/>
        <pt x="382" y="98" on="0"/>
        <pt x="382" y="130" on="1"/>
        <pt x="382" y="546" on="1"/>
        <pt x="382" y="578" on="0"/>
        <pt x="359" y="606" on="0"/>
        <pt x="328" y="606" on="1"/>
        <pt x="210" y="606" on="1"/>
        <pt x="179" y="606" on="0"/>
        <pt x="156" y="578" on="0"/>
      </contour>
      <contour>
        <pt x="85" y="0" on="1"/>
        <pt x="85" y="678" on="1"/>
        <pt x="453" y="678" on="1"/>
        <pt x="453" y="0" on="1"/>
      </contour>
    </TTGlyph>
    <TTGlyph name="A" xMin="24" yMin="-16" xMax="546" yMax="636">
      <contour>
        <pt x="316" y="636" on="1"/>
        <pt x="543" y="25" on="1"/>
        <pt x="546" y="16" on="0"/>
        <pt x="546" y="9" on="1"/>
        <pt x="546" y="-4" on="0"/>
        <pt x="528" y="-16" on="0"/>
        <pt x="520" y="-16" on="1"/>
        <pt x="503" y="-16" on="0"/>
        <pt x="493" y="7" on="1"/>
        <pt x="422" y="199" on="1"/>
        <pt x="148" y="199" on="1"/>
        <pt x="77" y="7" on="1"/>
        <pt x="67" y="-16" on="0"/>
        <pt x="50" y="-16" on="1"/>
        <pt x="42" y="-16" on="0"/>
        <pt x="24" y="-4" on="0"/>
        <pt x="24" y="9" on="1"/>
        <pt x="24" y="16" on="0"/>
        <pt x="27" y="25" on="1"/>
        <pt x="254" y="636" on="1"/>
      </contour>
      <contour>
        <pt x="284" y="560" on="1"/>
        <pt x="168" y="251" on="1"/>
        <pt x="402" y="251" on="1"/>
      </contour>
    </TTGlyph>
    <TTGlyph name="A.sc" xMin="25" yMin="-12" xMax="537" yMax="552">
      <contour>
        <pt x="25" y="10" on="1"/>
        <pt x="25" y="18" on="0"/>
        <pt x="28" y="24" on="1"/>
        <pt x="255" y="552" on="1"/>
        <pt x="307" y="552" on="1"/>
        <pt x="534" y="24" on="1"/>
        <pt x="537" y="18" on="0"/>
        <pt x="537" y="10" on="1"/>
        <pt x="537" y="-12" on="0"/>
        <pt x="511" y="-12" on="1"/>
        <pt x="490" y="-12" on="0"/>
        <pt x="481" y="8" on="1"/>
        <pt x="411" y="177" on="1"/>
        <pt x="151" y="177" on="1"/>
        <pt x="81" y="8" on="1"/>
        <pt x="72" y="-12" on="0"/>
        <pt x="51" y="-12" on="1"/>
        <pt x="25" y="-12" on="0"/>
      </contour>
      <contour>
        <pt x="174" y="229" on="1"/>
        <pt x="388" y="229" on="1"/>
        <pt x="280" y="479" on="1"/>
      </contour>
    </TTGlyph>
    <TTGlyph name="AE" xMin="9" yMin="-16" xMax="819" yMax="641">
      <contour>
        <pt x="452" y="332" on="1"/>
        <pt x="452" y="52" on="1"/>
        <pt x="785" y="52" on="1"/>
        <pt x="819" y="52" on="0"/>
        <pt x="819" y="24" on="1"/>
        <pt x="819" y="0" on="0"/>
        <pt x="785" y="0" on="1"/>
        <pt x="424" y="0" on="1"/>
        <pt x="400" y="0" on="0"/>
        <pt x="400" y="36" on="1"/>
        <pt x="400" y="199" on="1"/>
        <pt x="185" y="199" on="1"/>
        <pt x="62" y="7" on="1"/>
        <pt x="47" y="-16" on="0"/>
        <pt x="29" y="-16" on="1"/>
        <pt x="9" y="-16" on="0"/>
        <pt x="9" y="2" on="1"/>
        <pt x="9" y="12" on="0"/>
        <pt x="17" y="25" on="1"/>
        <pt x="405" y="631" on="1"/>
        <pt x="412" y="641" on="0"/>
        <pt x="424" y="641" on="1"/>
        <pt x="785" y="641" on="1"/>
        <pt x="819" y="641" on="0"/>
        <pt x="819" y="613" on="1"/>
        <pt x="819" y="589" on="0"/>
        <pt x="785" y="589" on="1"/>
        <pt x="452" y="589" on="1"/>
        <pt x="452" y="384" on="1"/>
        <pt x="666" y="384" on="1"/>
        <pt x="702" y="384" on="0"/>
        <pt x="702" y="356" on="1"/>
        <pt x="702" y="332" on="0"/>
        <pt x="666" y="332" on="1"/>
      </contour>
      <contour>
        <pt x="400" y="251" on="1"/>
        <pt x="400" y="533" on="1"/>
        <pt x="219" y="251" on="1"/>
      </contour>
    </TTGlyph>
    <TTGlyph name="Aacute" xMin="24" yMin="-16" xMax="546" yMax="819">
      <component glyphName="acutecomb" x="616" y="183" flags="0x1004"/>
      <component glyphName="A" x="0" y="0" flags="0x1204"/>
    </TTGlyph>
    <TTGlyph name="Abreve" xMin="24" yMin="-16" xMax="546" yMax="819">
      <contour>
        <pt x="316" y="636" on="1"/>
        <pt x="543" y="25" on="1"/>
        <pt x="546" y="16" on="0"/>
        <pt x="546" y="9" on="1"/>
        <pt x="546" y="-4" on="0"/>
        <pt x="528" y="-16" on="0"/>
        <pt x="520" y="-16" on="1"/>
        <pt x="503" y="-16" on="0"/>
        <pt x="493" y="7" on="1"/>
        <pt x="422" y="199" on="1"/>
        <pt x="148" y="199" on="1"/>
        <pt x="77" y="7" on="1"/>
        <pt x="67" y="-16" on="0"/>
        <pt x="50" y="-16" on="1"/>
        <pt x="42" y="-16" on="0"/>
        <pt x="24" y="-4" on="0"/>
        <pt x="24" y="9" on="1"/>
        <pt x="24" y="16" on="0"/>
        <pt x="27" y="25" on="1"/>
        <pt x="254" y="636" on="1"/>
      </contour>
      <contour>
        <pt x="284" y="560" on="1"/>
        <pt x="168" y="251" on="1"/>
        <pt x="402" y="251" on="1"/>
      </contour>
      <contour>
        <pt x="284" y="688" on="1"/>
        <pt x="238" y="688" on="0"/>
        <pt x="164" y="759" on="0"/>
        <pt x="164" y="819" on="1"/>
        <pt x="217" y="819" on="1"/>
        <pt x="217" y="776" on="0"/>
        <pt x="258" y="742" on="0"/>
        <pt x="310" y="742" on="0"/>
        <pt x="351" y="776" on="0"/>
        <pt x="351" y="819" on="1"/>
        <pt x="404" y="819" on="1"/>
        <pt x="404" y="758" on="0"/>
        <pt x="329" y="688" on="0"/>
      </contour>
    </TTGlyph>
    <TTGlyph name="Acircumflex" xMin="24" yMin="-16" xMax="546" yMax="819">
      <component glyphName="uni0302" x="587" y="141" flags="0x1004"/>
      <component glyphName="A" x="0" y="0" flags="0x1204"/>
    </TTGlyph>
    <TTGlyph name="Acyrillic" xMin="24" yMin="-16" xMax="546" yMax="636">
      <component glyphName="A" x="0" y="0" flags="0x1004"/>
    </TTGlyph>
    <TTGlyph name="Adieresis" xMin="24" yMin="-16" xMax="546" yMax="784">
      <component glyphName="dieresis" x="101" y="113" flags="0x1004"/>
      <component glyphName="A" x="0" y="0" flags="0x1204"/>
    </TTGlyph>
    <TTGlyph name="Agrave" xMin="24" yMin="-16" xMax="546" yMax="819">
      <component glyphName="gravecomb" x="552" y="183" flags="0x1004"/>
      <component glyphName="A" x="0" y="0" flags="0x1204"/>
    </TTGlyph>
    <TTGlyph name="Alpha" xMin="24" yMin="-16" xMax="546" yMax="636">
      <component glyphName="A" x="0" y="0" flags="0x1004"/>
    </TTGlyph>
    <TTGlyph name="Alphatonos" xMin="30" yMin="-16" xMax="552" yMax="750">
      <contour>
        <pt x="322" y="636" on="1"/>
        <pt x="549" y="25" on="1"/>
        <pt x="552" y="16" on="0"/>
        <pt x="552" y="9" on="1"/>
        <pt x="552" y="-4" on="0"/>
        <pt x="534" y="-16" on="0"/>
        <pt x="526" y="-16" on="1"/>
        <pt x="509" y="-16" on="0"/>
        <pt x="499" y="7" on="1"/>
        <pt x="428" y="199" on="1"/>
        <pt x="154" y="199" on="1"/>
        <pt x="83" y="7" on="1"/>
        <pt x="73" y="-16" on="0"/>
        <pt x="56" y="-16" on="1"/>
        <pt x="48" y="-16" on="0"/>
        <pt x="30" y="-4" on="0"/>
        <pt x="30" y="9" on="1"/>
        <pt x="30" y="16" on="0"/>
        <pt x="33" y="25" on="1"/>
        <pt x="260" y="636" on="1"/>
      </contour>
      <contour>
        <pt x="290" y="560" on="1"/>
        <pt x="174" y="251" on="1"/>
        <pt x="408" y="251" on="1"/>
      </contour>
      <contour>
        <pt x="185" y="750" on="1"/>
        <pt x="210" y="750" on="0"/>
        <pt x="210" y="723" on="1"/>
        <pt x="210" y="716" on="0"/>
        <pt x="209" y="712" on="1"/>
        <pt x="164" y="555" on="1"/>
        <pt x="157" y="520" on="0"/>
        <pt x="139" y="520" on="1"/>
        <pt x="127" y="520" on="0"/>
        <pt x="111" y="540" on="0"/>
        <pt x="111" y="556" on="1"/>
        <pt x="111" y="562" on="0"/>
        <pt x="113" y="568" on="1"/>
        <pt x="157" y="725" on="1"/>
        <pt x="165" y="750" on="0"/>
      </contour>
    </TTGlyph>
    <TTGlyph name="Amacron" xMin="24" yMin="-16" xMax="546" yMax="760">
      <contour>
        <pt x="130" y="734" on="1"/>
        <pt x="130" y="760" on="0"/>
        <pt x="161" y="760" on="1"/>
        <pt x="406" y="760" on="1"/>
        <pt x="440" y="760" on="0"/>
        <pt x="440" y="732" on="1"/>
        <pt x="440" y="721" on="0"/>
        <pt x="421" y="707" on="0"/>
        <pt x="406" y="707" on="1"/>
        <pt x="161" y="707" on="1"/>
        <pt x="130" y="707" on="0"/>
      </contour>
      <contour>
        <pt x="316" y="636" on="1"/>
        <pt x="543" y="25" on="1"/>
        <pt x="546" y="16" on="0"/>
        <pt x="546" y="9" on="1"/>
        <pt x="546" y="-4" on="0"/>
        <pt x="528" y="-16" on="0"/>
        <pt x="520" y="-16" on="1"/>
        <pt x="503" y="-16" on="0"/>
        <pt x="493" y="7" on="1"/>
        <pt x="422" y="199" on="1"/>
        <pt x="148" y="199" on="1"/>
        <pt x="77" y="7" on="1"/>
        <pt x="67" y="-16" on="0"/>
        <pt x="50" y="-16" on="1"/>
        <pt x="42" y="-16" on="0"/>
        <pt x="24" y="-4" on="0"/>
        <pt x="24" y="9" on="1"/>
        <pt x="24" y="16" on="0"/>
        <pt x="27" y="25" on="1"/>
        <pt x="254" y="636" on="1"/>
      </contour>
      <contour>
        <pt x="284" y="560" on="1"/>
        <pt x="168" y="251" on="1"/>
        <pt x="402" y="251" on="1"/>
      </contour>
    </TTGlyph>
    <TTGlyph name="Aogonek" xMin="24" yMin="-205" xMax="608" yMax="646">
      <contour>
        <pt x="284" y="560" on="1"/>
        <pt x="168" y="251" on="1"/>
        <pt x="402" y="251" on="1"/>
      </contour>
      <contour>
        <pt x="50" y="-16" on="1"/>
        <pt x="42" y="-16" on="0"/>
        <pt x="24" y="-4" on="0"/>
        <pt x="24" y="9" on="1"/>
        <pt x="24" y="16" on="0"/>
        <pt x="27" y="25" on="1"/>
        <pt x="258" y="646" on="1"/>
        <pt x="312" y="646" on="1"/>
        <pt x="543" y="25" on="1"/>
        <pt x="546" y="16" on="0"/>
        <pt x="546" y="9" on="1"/>
        <pt x="546" y="-1" on="0"/>
        <pt x="535" y="-12" on="1"/>
        <pt x="515" y="-31" on="0"/>
        <pt x="485" y="-89" on="0"/>
        <pt x="485" y="-101" on="1"/>
        <pt x="485" y="-155" on="0"/>
        <pt x="527" y="-155" on="1"/>
        <pt x="543" y="-155" on="0"/>
        <pt x="587" y="-138" on="0"/>
        <pt x="593" y="-138" on="1"/>
        <pt x="608" y="-138" on="0"/>
        <pt x="608" y="-155" on="1"/>
        <pt x="608" y="-181" on="0"/>
        <pt x="554" y="-205" on="0"/>
        <pt x="529" y="-205" on="1"/>
        <pt x="488" y="-205" on="0"/>
        <pt x="433" y="-147" on="0"/>
        <pt x="433" y="-101" on="1"/>
        <pt x="433" y="-58" on="0"/>
        <pt x="491" y="13" on="1"/>
        <pt x="422" y="199" on="1"/>
        <pt x="148" y="199" on="1"/>
        <pt x="77" y="7" on="1"/>
        <pt x="67" y="-16" on="0"/>
      </contour>
    </TTGlyph>
    <TTGlyph name="Aring" xMin="24" yMin="-16" xMax="546" yMax="819">
      <component glyphName="uni030A" x="592" y="152" flags="0x1004"/>
      <component glyphName="A" x="0" y="0" flags="0x1204"/>
    </TTGlyph>
    <TTGlyph name="Atilde" xMin="24" yMin="-16" xMax="546" yMax="799">
      <component glyphName="tildecomb" x="569" y="212" flags="0x1004"/>
      <component glyphName="A" x="0" y="0" flags="0x1204"/>
    </TTGlyph>
    <TTGlyph name="B" xMin="84" yMin="0" xMax="548" yMax="636">
      <contour>
        <pt x="136" y="332" on="1"/>
        <pt x="136" y="52" on="1"/>
        <pt x="326" y="52" on="1"/>
        <pt x="424" y="52" on="0"/>
        <pt x="496" y="97" on="0"/>
        <pt x="496" y="178" on="1"/>
        <pt x="496" y="206" on="1"/>
        <pt x="496" y="287" on="0"/>
        <pt x="426" y="332" on="0"/>
        <pt x="332" y="332" on="1"/>
      </contour>
      <contour>
        <pt x="84" y="36" on="1"/>
        <pt x="84" y="600" on="1"/>
        <pt x="84" y="636" on="0"/>
        <pt x="108" y="636" on="1"/>
        <pt x="288" y="636" on="1"/>
        <pt x="399" y="636" on="0"/>
        <pt x="506" y="574" on="0"/>
        <pt x="506" y="486" on="1"/>
        <pt x="506" y="410" on="0"/>
        <pt x="457" y="374" on="1"/>
        <pt x="503" y="357" on="0"/>
        <pt x="548" y="280" on="0"/>
        <pt x="548" y="209" on="1"/>
        <pt x="548" y="180" on="1"/>
        <pt x="548" y="72" on="0"/>
        <pt x="441" y="0" on="0"/>
        <pt x="326" y="0" on="1"/>
        <pt x="108" y="0" on="1"/>
        <pt x="84" y="0" on="0"/>
      </contour>
      <contour>
        <pt x="288" y="384" on="1"/>
        <pt x="380" y="384" on="0"/>
        <pt x="454" y="422" on="0"/>
        <pt x="454" y="481" on="1"/>
        <pt x="454" y="544" on="0"/>
        <pt x="381" y="579" on="0"/>
        <pt x="288" y="579" on="1"/>
        <pt x="136" y="579" on="1"/>
        <pt x="136" y="384" on="1"/>
      </contour>
    </TTGlyph>
    <TTGlyph name="Becyrillic" xMin="85" yMin="-7" xMax="507" yMax="636">
      <contour>
        <pt x="439" y="636" on="1"/>
        <pt x="474" y="636" on="0"/>
        <pt x="474" y="584" on="0"/>
        <pt x="439" y="584" on="1"/>
        <pt x="137" y="584" on="1"/>
        <pt x="137" y="466" on="1"/>
        <pt x="290" y="466" on="1"/>
        <pt x="386" y="466" on="0"/>
        <pt x="507" y="326" on="0"/>
        <pt x="507" y="230" on="1"/>
        <pt x="507" y="133" on="0"/>
        <pt x="386" y="-7" on="0"/>
        <pt x="290" y="-7" on="1"/>
        <pt x="109" y="-7" on="1"/>
        <pt x="85" y="-7" on="0"/>
        <pt x="85" y="28" on="1"/>
        <pt x="85" y="636" on="1"/>
      </contour>
      <contour>
        <pt x="290" y="414" on="1"/>
        <pt x="137" y="414" on="1"/>
        <pt x="137" y="45" on="1"/>
        <pt x="290" y="45" on="1"/>
        <pt x="369" y="45" on="0"/>
        <pt x="455" y="155" on="0"/>
        <pt x="455" y="230" on="1"/>
        <pt x="455" y="304" on="0"/>
        <pt x="369" y="414" on="0"/>
      </contour>
    </TTGlyph>
    <TTGlyph name="Beta" xMin="84" yMin="0" xMax="548" yMax="636">
      <component glyphName="B" x="0" y="0" flags="0x1004"/>
    </TTGlyph>
    <TTGlyph name="C" xMin="72" yMin="0" xMax="536" yMax="636">
      <contour>
        <pt x="436" y="0" on="1"/>
        <pt x="295" y="0" on="1"/>
        <pt x="179" y="0" on="0"/>
        <pt x="72" y="72" on="0"/>
        <pt x="72" y="180" on="1"/>
        <pt x="72" y="456" on="1"/>
        <pt x="72" y="564" on="0"/>
        <pt x="178" y="636" on="0"/>
        <pt x="289" y="636" on="1"/>
        <pt x="436" y="636" on="1"/>
        <pt x="468" y="636" on="0"/>
        <pt x="511" y="617" on="0"/>
        <pt x="530" y="582" on="0"/>
        <pt x="536" y="548" on="0"/>
        <pt x="536" y="524" on="1"/>
        <pt x="536" y="489" on="0"/>
        <pt x="484" y="489" on="0"/>
        <pt x="484" y="522" on="1"/>
        <pt x="484" y="557" on="0"/>
        <pt x="460" y="584" on="0"/>
        <pt x="429" y="584" on="1"/>
        <pt x="289" y="584" on="1"/>
        <pt x="241" y="584" on="0"/>
        <pt x="187" y="577" on="0"/>
        <pt x="141" y="551" on="0"/>
        <pt x="124" y="499" on="0"/>
        <pt x="124" y="456" on="1"/>
        <pt x="124" y="180" on="1"/>
        <pt x="124" y="97" on="0"/>
        <pt x="196" y="52" on="0"/>
        <pt x="295" y="52" on="1"/>
        <pt x="429" y="52" on="1"/>
        <pt x="461" y="52" on="0"/>
        <pt x="484" y="80" on="0"/>
        <pt x="484" y="114" on="1"/>
        <pt x="484" y="147" on="0"/>
        <pt x="536" y="147" on="0"/>
        <pt x="536" y="111" on="1"/>
        <pt x="536" y="88" on="0"/>
        <pt x="530" y="54" on="0"/>
        <pt x="511" y="19" on="0"/>
        <pt x="468" y="0" on="0"/>
      </contour>
    </TTGlyph>
    <TTGlyph name="Cacute" xMin="72" yMin="0" xMax="536" yMax="820">
      <contour>
        <pt x="436" y="0" on="1"/>
        <pt x="295" y="0" on="1"/>
        <pt x="179" y="0" on="0"/>
        <pt x="72" y="72" on="0"/>
        <pt x="72" y="180" on="1"/>
        <pt x="72" y="456" on="1"/>
        <pt x="72" y="564" on="0"/>
        <pt x="178" y="636" on="0"/>
        <pt x="289" y="636" on="1"/>
        <pt x="436" y="636" on="1"/>
        <pt x="468" y="636" on="0"/>
        <pt x="511" y="617" on="0"/>
        <pt x="530" y="582" on="0"/>
        <pt x="536" y="548" on="0"/>
        <pt x="536" y="524" on="1"/>
        <pt x="536" y="489" on="0"/>
        <pt x="484" y="489" on="0"/>
        <pt x="484" y="522" on="1"/>
        <pt x="484" y="557" on="0"/>
        <pt x="460" y="584" on="0"/>
        <pt x="429" y="584" on="1"/>
        <pt x="289" y="584" on="1"/>
        <pt x="241" y="584" on="0"/>
        <pt x="187" y="577" on="0"/>
        <pt x="141" y="551" on="0"/>
        <pt x="124" y="499" on="0"/>
        <pt x="124" y="456" on="1"/>
        <pt x="124" y="180" on="1"/>
        <pt x="124" y="97" on="0"/>
        <pt x="196" y="52" on="0"/>
        <pt x="295" y="52" on="1"/>
        <pt x="429" y="52" on="1"/>
        <pt x="461" y="52" on="0"/>
        <pt x="484" y="80" on="0"/>
        <pt x="484" y="114" on="1"/>
        <pt x="484" y="147" on="0"/>
        <pt x="536" y="147" on="0"/>
        <pt x="536" y="111" on="1"/>
        <pt x="536" y="88" on="0"/>
        <pt x="530" y="54" on="0"/>
        <pt x="511" y="19" on="0"/>
        <pt x="468" y="0" on="0"/>
      </contour>
      <contour>
        <pt x="406" y="771" on="1"/>
        <pt x="336" y="702" on="1"/>
        <pt x="324" y="689" on="0"/>
        <pt x="312" y="689" on="1"/>
        <pt x="302" y="689" on="0"/>
        <pt x="286" y="704" on="0"/>
        <pt x="286" y="713" on="1"/>
        <pt x="286" y="724" on="0"/>
        <pt x="299" y="739" on="1"/>
        <pt x="368" y="807" on="1"/>
        <pt x="380" y="820" on="0"/>
        <pt x="393" y="820" on="1"/>
        <pt x="404" y="820" on="0"/>
        <pt x="418" y="803" on="0"/>
        <pt x="418" y="795" on="1"/>
        <pt x="418" y="785" on="0"/>
      </contour>
    </TTGlyph>
    <TTGlyph name="Ccaron" xMin="72" yMin="0" xMax="536" yMax="822">
      <contour>
        <pt x="436" y="0" on="1"/>
        <pt x="295" y="0" on="1"/>
        <pt x="179" y="0" on="0"/>
        <pt x="72" y="72" on="0"/>
        <pt x="72" y="180" on="1"/>
        <pt x="72" y="456" on="1"/>
        <pt x="72" y="564" on="0"/>
        <pt x="178" y="636" on="0"/>
        <pt x="289" y="636" on="1"/>
        <pt x="436" y="636" on="1"/>
        <pt x="468" y="636" on="0"/>
        <pt x="511" y="617" on="0"/>
        <pt x="530" y="582" on="0"/>
        <pt x="536" y="548" on="0"/>
        <pt x="536" y="524" on="1"/>
        <pt x="536" y="489" on="0"/>
        <pt x="484" y="489" on="0"/>
        <pt x="484" y="522" on="1"/>
        <pt x="484" y="557" on="0"/>
        <pt x="460" y="584" on="0"/>
        <pt x="429" y="584" on="1"/>
        <pt x="289" y="584" on="1"/>
        <pt x="241" y="584" on="0"/>
        <pt x="187" y="577" on="0"/>
        <pt x="141" y="551" on="0"/>
        <pt x="124" y="499" on="0"/>
        <pt x="124" y="456" on="1"/>
        <pt x="124" y="180" on="1"/>
        <pt x="124" y="97" on="0"/>
        <pt x="196" y="52" on="0"/>
        <pt x="295" y="52" on="1"/>
        <pt x="429" y="52" on="1"/>
        <pt x="461" y="52" on="0"/>
        <pt x="484" y="80" on="0"/>
        <pt x="484" y="114" on="1"/>
        <pt x="484" y="147" on="0"/>
        <pt x="536" y="147" on="0"/>
        <pt x="536" y="111" on="1"/>
        <pt x="536" y="88" on="0"/>
        <pt x="530" y="54" on="0"/>
        <pt x="511" y="19" on="0"/>
        <pt x="468" y="0" on="0"/>
      </contour>
      <contour>
        <pt x="325" y="678" on="1"/>
        <pt x="269" y="678" on="1"/>
        <pt x="165" y="787" on="1"/>
        <pt x="158" y="794" on="0"/>
        <pt x="158" y="802" on="1"/>
        <pt x="158" y="822" on="0"/>
        <pt x="181" y="822" on="1"/>
        <pt x="193" y="822" on="0"/>
        <pt x="213" y="805" on="1"/>
        <pt x="297" y="735" on="1"/>
        <pt x="381" y="805" on="1"/>
        <pt x="401" y="822" on="0"/>
        <pt x="413" y="822" on="1"/>
        <pt x="436" y="822" on="0"/>
        <pt x="436" y="802" on="1"/>
        <pt x="436" y="794" on="0"/>
        <pt x="429" y="787" on="1"/>
      </contour>
    </TTGlyph>
    <TTGlyph name="Ccedilla" xMin="71" yMin="-175" xMax="535" yMax="646">
      <contour>
        <pt x="283" y="0" on="1"/>
        <pt x="173" y="1" on="0"/>
        <pt x="71" y="74" on="0"/>
        <pt x="71" y="180" on="1"/>
        <pt x="71" y="466" on="1"/>
        <pt x="71" y="574" on="0"/>
        <pt x="177" y="646" on="0"/>
        <pt x="288" y="646" on="1"/>
        <pt x="435" y="646" on="1"/>
        <pt x="467" y="646" on="0"/>
        <pt x="510" y="627" on="0"/>
        <pt x="529" y="592" on="0"/>
        <pt x="535" y="558" on="0"/>
        <pt x="535" y="534" on="1"/>
        <pt x="535" y="499" on="0"/>
        <pt x="483" y="499" on="0"/>
        <pt x="483" y="532" on="1"/>
        <pt x="483" y="567" on="0"/>
        <pt x="459" y="594" on="0"/>
        <pt x="428" y="594" on="1"/>
        <pt x="288" y="594" on="1"/>
        <pt x="240" y="594" on="0"/>
        <pt x="186" y="587" on="0"/>
        <pt x="140" y="561" on="0"/>
        <pt x="123" y="509" on="0"/>
        <pt x="123" y="466" on="1"/>
        <pt x="123" y="180" on="1"/>
        <pt x="123" y="97" on="0"/>
        <pt x="195" y="52" on="0"/>
        <pt x="294" y="52" on="1"/>
        <pt x="428" y="52" on="1"/>
        <pt x="460" y="52" on="0"/>
        <pt x="483" y="80" on="0"/>
        <pt x="483" y="114" on="1"/>
        <pt x="483" y="147" on="0"/>
        <pt x="535" y="147" on="0"/>
        <pt x="535" y="111" on="1"/>
        <pt x="535" y="88" on="0"/>
        <pt x="529" y="54" on="0"/>
        <pt x="510" y="19" on="0"/>
        <pt x="467" y="0" on="0"/>
        <pt x="435" y="0" on="1"/>
        <pt x="336" y="0" on="1"/>
        <pt x="339" y="-13" on="0"/>
        <pt x="362" y="-34" on="0"/>
        <pt x="385" y="-47" on="0"/>
        <pt x="404" y="-75" on="0"/>
        <pt x="404" y="-94" on="1"/>
        <pt x="404" y="-130" on="0"/>
        <pt x="348" y="-175" on="0"/>
        <pt x="308" y="-175" on="1"/>
        <pt x="283" y="-175" on="0"/>
        <pt x="229" y="-151" on="0"/>
        <pt x="229" y="-125" on="1"/>
        <pt x="229" y="-107" on="0"/>
        <pt x="244" y="-107" on="1"/>
        <pt x="250" y="-107" on="0"/>
        <pt x="296" y="-125" on="0"/>
        <pt x="310" y="-125" on="1"/>
        <pt x="352" y="-125" on="0"/>
        <pt x="352" y="-99" on="1"/>
        <pt x="352" y="-88" on="0"/>
        <pt x="320" y="-63" on="0"/>
        <pt x="286" y="-26" on="0"/>
      </contour>
    </TTGlyph>
    <TTGlyph name="Ccircumflex" xMin="72" yMin="0" xMax="536" yMax="819">
      <contour>
        <pt x="175" y="687" on="1"/>
        <pt x="280" y="819" on="1"/>
        <pt x="339" y="819" on="1"/>
        <pt x="446" y="687" on="1"/>
        <pt x="452" y="679" on="0"/>
        <pt x="452" y="669" on="1"/>
        <pt x="452" y="646" on="0"/>
        <pt x="429" y="646" on="1"/>
        <pt x="424" y="646" on="0"/>
        <pt x="415" y="650" on="0"/>
        <pt x="412" y="653" on="0"/>
        <pt x="402" y="665" on="0"/>
        <pt x="401" y="666" on="1"/>
        <pt x="310" y="762" on="1"/>
        <pt x="220" y="666" on="1"/>
        <pt x="218" y="664" on="0"/>
        <pt x="212" y="656" on="0"/>
        <pt x="208" y="653" on="0"/>
        <pt x="203" y="648" on="0"/>
        <pt x="196" y="646" on="0"/>
        <pt x="192" y="646" on="1"/>
        <pt x="169" y="646" on="0"/>
        <pt x="169" y="669" on="1"/>
        <pt x="169" y="679" on="0"/>
      </contour>
      <contour>
        <pt x="436" y="0" on="1"/>
        <pt x="295" y="0" on="1"/>
        <pt x="179" y="0" on="0"/>
        <pt x="72" y="72" on="0"/>
        <pt x="72" y="180" on="1"/>
        <pt x="72" y="456" on="1"/>
        <pt x="72" y="564" on="0"/>
        <pt x="178" y="636" on="0"/>
        <pt x="289" y="636" on="1"/>
        <pt x="436" y="636" on="1"/>
        <pt x="468" y="636" on="0"/>
        <pt x="511" y="617" on="0"/>
        <pt x="530" y="582" on="0"/>
        <pt x="536" y="548" on="0"/>
        <pt x="536" y="524" on="1"/>
        <pt x="536" y="489" on="0"/>
        <pt x="484" y="489" on="0"/>
        <pt x="484" y="522" on="1"/>
        <pt x="484" y="557" on="0"/>
        <pt x="460" y="584" on="0"/>
        <pt x="429" y="584" on="1"/>
        <pt x="289" y="584" on="1"/>
        <pt x="241" y="584" on="0"/>
        <pt x="187" y="577" on="0"/>
        <pt x="141" y="551" on="0"/>
        <pt x="124" y="499" on="0"/>
        <pt x="124" y="456" on="1"/>
        <pt x="124" y="180" on="1"/>
        <pt x="124" y="97" on="0"/>
        <pt x="196" y="52" on="0"/>
        <pt x="295" y="52" on="1"/>
        <pt x="429" y="52" on="1"/>
        <pt x="461" y="52" on="0"/>
        <pt x="484" y="80" on="0"/>
        <pt x="484" y="114" on="1"/>
        <pt x="484" y="147" on="0"/>
        <pt x="536" y="147" on="0"/>
        <pt x="536" y="111" on="1"/>
        <pt x="536" y="88" on="0"/>
        <pt x="530" y="54" on="0"/>
        <pt x="511" y="19" on="0"/>
        <pt x="468" y="0" on="0"/>
      </contour>
    </TTGlyph>
    <TTGlyph name="Cdotaccent" xMin="72" yMin="0" xMax="536" yMax="783">
      <contour>
        <pt x="436" y="0" on="1"/>
        <pt x="295" y="0" on="1"/>
        <pt x="179" y="0" on="0"/>
        <pt x="72" y="72" on="0"/>
        <pt x="72" y="180" on="1"/>
        <pt x="72" y="456" on="1"/>
        <pt x="72" y="564" on="0"/>
        <pt x="178" y="636" on="0"/>
        <pt x="289" y="636" on="1"/>
        <pt x="436" y="636" on="1"/>
        <pt x="468" y="636" on="0"/>
        <pt x="511" y="617" on="0"/>
        <pt x="530" y="582" on="0"/>
        <pt x="536" y="548" on="0"/>
        <pt x="536" y="524" on="1"/>
        <pt x="536" y="489" on="0"/>
        <pt x="484" y="489" on="0"/>
        <pt x="484" y="522" on="1"/>
        <pt x="484" y="557" on="0"/>
        <pt x="460" y="584" on="0"/>
        <pt x="429" y="584" on="1"/>
        <pt x="289" y="584" on="1"/>
        <pt x="241" y="584" on="0"/>
        <pt x="187" y="577" on="0"/>
        <pt x="141" y="551" on="0"/>
        <pt x="124" y="499" on="0"/>
        <pt x="124" y="456" on="1"/>
        <pt x="124" y="180" on="1"/>
        <pt x="124" y="97" on="0"/>
        <pt x="196" y="52" on="0"/>
        <pt x="295" y="52" on="1"/>
        <pt x="429" y="52" on="1"/>
        <pt x="461" y="52" on="0"/>
        <pt x="484" y="80" on="0"/>
        <pt x="484" y="114" on="1"/>
        <pt x="484" y="147" on="0"/>
        <pt x="536" y="147" on="0"/>
        <pt x="536" y="111" on="1"/>
        <pt x="536" y="88" on="0"/>
        <pt x="530" y="54" on="0"/>
        <pt x="511" y="19" on="0"/>
        <pt x="468" y="0" on="0"/>
      </contour>
      <contour>
        <pt x="291" y="783" on="1"/>
        <pt x="307" y="783" on="0"/>
        <pt x="342" y="759" on="0"/>
        <pt x="342" y="725" on="0"/>
        <pt x="307" y="701" on="0"/>
        <pt x="291" y="701" on="1"/>
        <pt x="274" y="701" on="0"/>
        <pt x="240" y="725" on="0"/>
        <pt x="240" y="759" on="0"/>
        <pt x="274" y="783" on="0"/>
      </contour>
    </TTGlyph>
    <TTGlyph name="Checyrillic" xMin="57" yMin="-7" xMax="521" yMax="643">
      <contour>
        <pt x="304" y="222" on="1"/>
        <pt x="385" y="222" on="0"/>
        <pt x="469" y="314" on="0"/>
        <pt x="469" y="402" on="1"/>
        <pt x="469" y="608" on="1"/>
        <pt x="469" y="643" on="0"/>
        <pt x="521" y="643" on="0"/>
        <pt x="521" y="609" on="1"/>
        <pt x="521" y="28" on="1"/>
        <pt x="521" y="-7" on="0"/>
        <pt x="497" y="-7" on="1"/>
        <pt x="469" y="-7" on="0"/>
        <pt x="469" y="28" on="1"/>
        <pt x="469" y="233" on="1"/>
        <pt x="410" y="170" on="0"/>
        <pt x="304" y="170" on="1"/>
        <pt x="273" y="170" on="1"/>
        <pt x="219" y="170" on="0"/>
        <pt x="147" y="183" on="0"/>
        <pt x="86" y="220" on="0"/>
        <pt x="57" y="292" on="0"/>
        <pt x="57" y="348" on="1"/>
        <pt x="57" y="608" on="1"/>
        <pt x="57" y="643" on="0"/>
        <pt x="82" y="643" on="1"/>
        <pt x="109" y="643" on="0"/>
        <pt x="109" y="608" on="1"/>
        <pt x="109" y="348" on="1"/>
        <pt x="109" y="267" on="0"/>
        <pt x="179" y="222" on="0"/>
        <pt x="273" y="222" on="1"/>
      </contour>
    </TTGlyph>
    <TTGlyph name="Chi" xMin="36" yMin="-7" xMax="523" yMax="643">
      <component glyphName="X" x="0" y="0" flags="0x1004"/>
    </TTGlyph>
    <TTGlyph name="D" xMin="84" yMin="0" xMax="548" yMax="636">
      <contour>
        <pt x="548" y="456" on="1"/>
        <pt x="548" y="180" on="1"/>
        <pt x="548" y="72" on="0"/>
        <pt x="441" y="0" on="0"/>
        <pt x="326" y="0" on="1"/>
        <pt x="108" y="0" on="1"/>
        <pt x="84" y="0" on="0"/>
        <pt x="84" y="36" on="1"/>
        <pt x="84" y="600" on="1"/>
        <pt x="84" y="636" on="0"/>
        <pt x="108" y="636" on="1"/>
        <pt x="332" y="636" on="1"/>
        <pt x="386" y="636" on="0"/>
        <pt x="458" y="623" on="0"/>
        <pt x="519" y="585" on="0"/>
        <pt x="548" y="512" on="0"/>
      </contour>
      <contour>
        <pt x="496" y="180" on="1"/>
        <pt x="496" y="456" on="1"/>
        <pt x="496" y="538" on="0"/>
        <pt x="426" y="584" on="0"/>
        <pt x="332" y="584" on="1"/>
        <pt x="136" y="584" on="1"/>
        <pt x="136" y="52" on="1"/>
        <pt x="326" y="52" on="1"/>
        <pt x="424" y="52" on="0"/>
        <pt x="496" y="97" on="0"/>
      </contour>
    </TTGlyph>
    <TTGlyph name="Dcaron" xMin="84" yMin="0" xMax="548" yMax="819">
      <contour>
        <pt x="548" y="456" on="1"/>
        <pt x="548" y="180" on="1"/>
        <pt x="548" y="72" on="0"/>
        <pt x="441" y="0" on="0"/>
        <pt x="326" y="0" on="1"/>
        <pt x="108" y="0" on="1"/>
        <pt x="84" y="0" on="0"/>
        <pt x="84" y="36" on="1"/>
        <pt x="84" y="600" on="1"/>
        <pt x="84" y="636" on="0"/>
        <pt x="108" y="636" on="1"/>
        <pt x="332" y="636" on="1"/>
        <pt x="386" y="636" on="0"/>
        <pt x="458" y="623" on="0"/>
        <pt x="519" y="585" on="0"/>
        <pt x="548" y="512" on="0"/>
      </contour>
      <contour>
        <pt x="496" y="180" on="1"/>
        <pt x="496" y="456" on="1"/>
        <pt x="496" y="538" on="0"/>
        <pt x="426" y="584" on="0"/>
        <pt x="332" y="584" on="1"/>
        <pt x="136" y="584" on="1"/>
        <pt x="136" y="52" on="1"/>
        <pt x="326" y="52" on="1"/>
        <pt x="424" y="52" on="0"/>
        <pt x="496" y="97" on="0"/>
      </contour>
      <contour>
        <pt x="318" y="675" on="1"/>
        <pt x="262" y="675" on="1"/>
        <pt x="158" y="784" on="1"/>
        <pt x="151" y="791" on="0"/>
        <pt x="151" y="799" on="1"/>
        <pt x="151" y="819" on="0"/>
        <pt x="174" y="819" on="1"/>
        <pt x="186" y="819" on="0"/>
        <pt x="206" y="802" on="1"/>
        <pt x="290" y="732" on="1"/>
        <pt x="374" y="802" on="1"/>
        <pt x="394" y="819" on="0"/>
        <pt x="406" y="819" on="1"/>
        <pt x="429" y="819" on="0"/>
        <pt x="429" y="799" on="1"/>
        <pt x="429" y="791" on="0"/>
        <pt x="422" y="784" on="1"/>
      </contour>
    </TTGlyph>
    <TTGlyph name="Dcroat" xMin="52" yMin="0" xMax="548" yMax="636">
      <contour>
        <pt x="496" y="180" on="1"/>
        <pt x="496" y="456" on="1"/>
        <pt x="496" y="538" on="0"/>
        <pt x="426" y="584" on="0"/>
        <pt x="332" y="584" on="1"/>
        <pt x="136" y="584" on="1"/>
        <pt x="136" y="351" on="1"/>
        <pt x="240" y="351" on="1"/>
        <pt x="274" y="351" on="0"/>
        <pt x="274" y="324" on="1"/>
        <pt x="274" y="298" on="0"/>
        <pt x="240" y="298" on="1"/>
        <pt x="136" y="298" on="1"/>
        <pt x="136" y="52" on="1"/>
        <pt x="326" y="52" on="1"/>
        <pt x="424" y="52" on="0"/>
        <pt x="496" y="97" on="0"/>
      </contour>
      <contour>
        <pt x="548" y="456" on="1"/>
        <pt x="548" y="180" on="1"/>
        <pt x="548" y="72" on="0"/>
        <pt x="441" y="0" on="0"/>
        <pt x="326" y="0" on="1"/>
        <pt x="108" y="0" on="1"/>
        <pt x="84" y="0" on="0"/>
        <pt x="84" y="36" on="1"/>
        <pt x="84" y="298" on="1"/>
        <pt x="52" y="298" on="0"/>
        <pt x="52" y="326" on="1"/>
        <pt x="52" y="351" on="0"/>
        <pt x="84" y="351" on="1"/>
        <pt x="84" y="600" on="1"/>
        <pt x="84" y="636" on="0"/>
        <pt x="108" y="636" on="1"/>
        <pt x="332" y="636" on="1"/>
        <pt x="386" y="636" on="0"/>
        <pt x="458" y="623" on="0"/>
        <pt x="519" y="585" on="0"/>
        <pt x="548" y="512" on="0"/>
      </contour>
    </TTGlyph>
    <TTGlyph name="Decyrillic" xMin="12" yMin="-92" xMax="532" yMax="636">
      <contour>
        <pt x="64" y="-57" on="1"/>
        <pt x="64" y="-92" on="0"/>
        <pt x="12" y="-92" on="0"/>
        <pt x="12" y="-57" on="1"/>
        <pt x="12" y="-5" on="1"/>
        <pt x="12" y="52" on="0"/>
        <pt x="63" y="52" on="1"/>
        <pt x="73" y="52" on="1"/>
        <pt x="103" y="106" on="0"/>
        <pt x="173" y="485" on="0"/>
        <pt x="173" y="636" on="1"/>
        <pt x="472" y="636" on="1"/>
        <pt x="472" y="52" on="1"/>
        <pt x="481" y="52" on="1"/>
        <pt x="532" y="52" on="0"/>
        <pt x="532" y="-5" on="1"/>
        <pt x="532" y="-57" on="1"/>
        <pt x="532" y="-92" on="0"/>
        <pt x="480" y="-92" on="0"/>
        <pt x="480" y="-57" on="1"/>
        <pt x="480" y="0" on="1"/>
        <pt x="64" y="0" on="1"/>
      </contour>
      <contour>
        <pt x="420" y="52" on="1"/>
        <pt x="420" y="584" on="1"/>
        <pt x="226" y="584" on="1"/>
        <pt x="225" y="461" on="0"/>
        <pt x="160" y="112" on="0"/>
        <pt x="130" y="52" on="1"/>
      </contour>
    </TTGlyph>
    <TTGlyph name="Delta" xMin="25" yMin="0" xMax="527" yMax="644">
      <contour>
        <pt x="500" y="0" on="1"/>
        <pt x="52" y="0" on="1"/>
        <pt x="40" y="0" on="0"/>
        <pt x="25" y="14" on="0"/>
        <pt x="25" y="25" on="1"/>
        <pt x="25" y="32" on="0"/>
        <pt x="28" y="40" on="1"/>
        <pt x="247" y="621" on="1"/>
        <pt x="255" y="644" on="0"/>
        <pt x="297" y="644" on="0"/>
        <pt x="305" y="621" on="1"/>
        <pt x="524" y="40" on="1"/>
        <pt x="527" y="32" on="0"/>
        <pt x="527" y="25" on="1"/>
        <pt x="527" y="14" on="0"/>
        <pt x="512" y="0" on="0"/>
      </contour>
      <contour>
        <pt x="88" y="53" on="1"/>
        <pt x="464" y="53" on="1"/>
        <pt x="276" y="554" on="1"/>
      </contour>
    </TTGlyph>
    <TTGlyph name="Djecyrillic" xMin="27" yMin="-205" xMax="645" yMax="636">
      <contour>
        <pt x="417" y="636" on="1"/>
        <pt x="451" y="636" on="0"/>
        <pt x="451" y="609" on="1"/>
        <pt x="451" y="584" on="0"/>
        <pt x="417" y="584" on="1"/>
        <pt x="265" y="584" on="1"/>
        <pt x="265" y="403" on="1"/>
        <pt x="325" y="466" on="0"/>
        <pt x="431" y="466" on="1"/>
        <pt x="540" y="466" on="0"/>
        <pt x="645" y="394" on="0"/>
        <pt x="645" y="288" on="1"/>
        <pt x="645" y="-76" on="1"/>
        <pt x="645" y="-119" on="0"/>
        <pt x="629" y="-173" on="0"/>
        <pt x="597" y="-197" on="0"/>
        <pt x="564" y="-205" on="0"/>
        <pt x="538" y="-205" on="1"/>
        <pt x="501" y="-205" on="0"/>
        <pt x="501" y="-153" on="0"/>
        <pt x="538" y="-153" on="1"/>
        <pt x="570" y="-153" on="0"/>
        <pt x="593" y="-126" on="0"/>
        <pt x="593" y="-93" on="1"/>
        <pt x="593" y="287" on="1"/>
        <pt x="593" y="369" on="0"/>
        <pt x="523" y="414" on="0"/>
        <pt x="431" y="414" on="1"/>
        <pt x="351" y="414" on="0"/>
        <pt x="265" y="322" on="0"/>
        <pt x="265" y="234" on="1"/>
        <pt x="265" y="28" on="1"/>
        <pt x="265" y="-7" on="0"/>
        <pt x="238" y="-7" on="1"/>
        <pt x="212" y="-7" on="0"/>
        <pt x="212" y="27" on="1"/>
        <pt x="212" y="584" on="1"/>
        <pt x="60" y="584" on="1"/>
        <pt x="27" y="584" on="0"/>
        <pt x="27" y="636" on="0"/>
        <pt x="60" y="636" on="1"/>
      </contour>
    </TTGlyph>
    <TTGlyph name="Dzecyrillic" xMin="61" yMin="-8" xMax="537" yMax="644">
      <component glyphName="S" x="0" y="0" flags="0x1004"/>
    </TTGlyph>
    <TTGlyph name="Dzhecyrillic" xMin="86" yMin="-92" xMax="540" yMax="611">
      <contour>
        <pt x="286" y="-57" on="1"/>
        <pt x="286" y="0" on="1"/>
        <pt x="86" y="0" on="1"/>
        <pt x="86" y="576" on="1"/>
        <pt x="86" y="611" on="0"/>
        <pt x="111" y="611" on="1"/>
        <pt x="138" y="611" on="0"/>
        <pt x="138" y="576" on="1"/>
        <pt x="138" y="52" on="1"/>
        <pt x="488" y="52" on="1"/>
        <pt x="488" y="576" on="1"/>
        <pt x="488" y="611" on="0"/>
        <pt x="540" y="611" on="0"/>
        <pt x="540" y="576" on="1"/>
        <pt x="540" y="0" on="1"/>
        <pt x="340" y="0" on="1"/>
        <pt x="340" y="-57" on="1"/>
        <pt x="340" y="-92" on="0"/>
        <pt x="286" y="-92" on="0"/>
      </contour>
    </TTGlyph>
    <TTGlyph name="E" xMin="84" yMin="0" xMax="548" yMax="636">
      <contour>
        <pt x="136" y="332" on="1"/>
        <pt x="136" y="52" on="1"/>
        <pt x="514" y="52" on="1"/>
        <pt x="548" y="52" on="0"/>
        <pt x="548" y="24" on="1"/>
        <pt x="548" y="0" on="0"/>
        <pt x="514" y="0" on="1"/>
        <pt x="108" y="0" on="1"/>
        <pt x="84" y="0" on="0"/>
        <pt x="84" y="36" on="1"/>
        <pt x="84" y="600" on="1"/>
        <pt x="84" y="636" on="0"/>
        <pt x="108" y="636" on="1"/>
        <pt x="514" y="636" on="1"/>
        <pt x="548" y="636" on="0"/>
        <pt x="548" y="608" on="1"/>
        <pt x="548" y="584" on="0"/>
        <pt x="514" y="584" on="1"/>
        <pt x="136" y="584" on="1"/>
        <pt x="136" y="384" on="1"/>
        <pt x="395" y="384" on="1"/>
        <pt x="431" y="384" on="0"/>
        <pt x="431" y="356" on="1"/>
        <pt x="431" y="332" on="0"/>
        <pt x="395" y="332" on="1"/>
      </contour>
    </TTGlyph>
    <TTGlyph name="E.sc" xMin="87" yMin="0" xMax="551" yMax="552">
      <contour>
        <pt x="139" y="270" on="1"/>
        <pt x="139" y="52" on="1"/>
        <pt x="517" y="52" on="1"/>
        <pt x="551" y="52" on="0"/>
        <pt x="551" y="24" on="1"/>
        <pt x="551" y="0" on="0"/>
        <pt x="517" y="0" on="1"/>
        <pt x="111" y="0" on="1"/>
        <pt x="87" y="0" on="0"/>
        <pt x="87" y="36" on="1"/>
        <pt x="87" y="516" on="1"/>
        <pt x="87" y="552" on="0"/>
        <pt x="111" y="552" on="1"/>
        <pt x="517" y="552" on="1"/>
        <pt x="551" y="552" on="0"/>
        <pt x="551" y="524" on="1"/>
        <pt x="551" y="500" on="0"/>
        <pt x="517" y="500" on="1"/>
        <pt x="139" y="500" on="1"/>
        <pt x="139" y="322" on="1"/>
        <pt x="398" y="322" on="1"/>
        <pt x="434" y="322" on="0"/>
        <pt x="434" y="294" on="1"/>
        <pt x="434" y="270" on="0"/>
        <pt x="398" y="270" on="1"/>
      </contour>
    </TTGlyph>
    <TTGlyph name="Eacute" xMin="84" yMin="0" xMax="548" yMax="819">
      <component glyphName="acutecomb" x="630" y="183" flags="0x1004"/>
      <component glyphName="E" x="0" y="0" flags="0x1204"/>
    </TTGlyph>
    <TTGlyph name="Ecaron" xMin="84" yMin="0" xMax="548" yMax="819">
      <contour>
        <pt x="136" y="332" on="1"/>
        <pt x="136" y="52" on="1"/>
        <pt x="514" y="52" on="1"/>
        <pt x="548" y="52" on="0"/>
        <pt x="548" y="24" on="1"/>
        <pt x="548" y="0" on="0"/>
        <pt x="514" y="0" on="1"/>
        <pt x="108" y="0" on="1"/>
        <pt x="84" y="0" on="0"/>
        <pt x="84" y="36" on="1"/>
        <pt x="84" y="600" on="1"/>
        <pt x="84" y="636" on="0"/>
        <pt x="108" y="636" on="1"/>
        <pt x="514" y="636" on="1"/>
        <pt x="548" y="636" on="0"/>
        <pt x="548" y="608" on="1"/>
        <pt x="548" y="584" on="0"/>
        <pt x="514" y="584" on="1"/>
        <pt x="136" y="584" on="1"/>
        <pt x="136" y="384" on="1"/>
        <pt x="395" y="384" on="1"/>
        <pt x="431" y="384" on="0"/>
        <pt x="431" y="356" on="1"/>
        <pt x="431" y="332" on="0"/>
        <pt x="395" y="332" on="1"/>
      </contour>
      <contour>
        <pt x="326" y="675" on="1"/>
        <pt x="270" y="675" on="1"/>
        <pt x="166" y="784" on="1"/>
        <pt x="159" y="791" on="0"/>
        <pt x="159" y="799" on="1"/>
        <pt x="159" y="819" on="0"/>
        <pt x="182" y="819" on="1"/>
        <pt x="194" y="819" on="0"/>
        <pt x="214" y="802" on="1"/>
        <pt x="298" y="732" on="1"/>
        <pt x="382" y="802" on="1"/>
        <pt x="402" y="819" on="0"/>
        <pt x="414" y="819" on="1"/>
        <pt x="437" y="819" on="0"/>
        <pt x="437" y="799" on="1"/>
        <pt x="437" y="791" on="0"/>
        <pt x="430" y="784" on="1"/>
      </contour>
    </TTGlyph>
    <TTGlyph name="Ecircumflex" xMin="84" yMin="0" xMax="548" yMax="819">
      <component glyphName="uni0302" x="613" y="141" flags="0x1004"/>
      <component glyphName="E" x="0" y="0" flags="0x1204"/>
    </TTGlyph>
    <TTGlyph name="Edieresis" xMin="84" yMin="0" xMax="548" yMax="784">
      <component glyphName="dieresis" x="128" y="113" flags="0x1004"/>
      <component glyphName="E" x="0" y="0" flags="0x1204"/>
    </TTGlyph>
    <TTGlyph name="Edotaccent" xMin="84" yMin="0" xMax="548" yMax="788">
      <contour>
        <pt x="311" y="788" on="1"/>
        <pt x="327" y="788" on="0"/>
        <pt x="362" y="764" on="0"/>
        <pt x="362" y="730" on="0"/>
        <pt x="327" y="706" on="0"/>
        <pt x="311" y="706" on="1"/>
        <pt x="294" y="706" on="0"/>
        <pt x="260" y="730" on="0"/>
        <pt x="260" y="764" on="0"/>
        <pt x="294" y="788" on="0"/>
      </contour>
      <contour>
        <pt x="136" y="332" on="1"/>
        <pt x="136" y="52" on="1"/>
        <pt x="514" y="52" on="1"/>
        <pt x="548" y="52" on="0"/>
        <pt x="548" y="24" on="1"/>
        <pt x="548" y="0" on="0"/>
        <pt x="514" y="0" on="1"/>
        <pt x="108" y="0" on="1"/>
        <pt x="84" y="0" on="0"/>
        <pt x="84" y="36" on="1"/>
        <pt x="84" y="600" on="1"/>
        <pt x="84" y="636" on="0"/>
        <pt x="108" y="636" on="1"/>
        <pt x="514" y="636" on="1"/>
        <pt x="548" y="636" on="0"/>
        <pt x="548" y="608" on="1"/>
        <pt x="548" y="584" on="0"/>
        <pt x="514" y="584" on="1"/>
        <pt x="136" y="584" on="1"/>
        <pt x="136" y="384" on="1"/>
        <pt x="395" y="384" on="1"/>
        <pt x="431" y="384" on="0"/>
        <pt x="431" y="356" on="1"/>
        <pt x="431" y="332" on="0"/>
        <pt x="395" y="332" on="1"/>
      </contour>
    </TTGlyph>
    <TTGlyph name="Efcyrillic" xMin="42" yMin="-7" xMax="506" yMax="643">
      <component glyphName="Phi" x="0" y="0" flags="0x1004"/>
    </TTGlyph>
    <TTGlyph name="Egrave" xMin="84" yMin="0" xMax="548" yMax="819">
      <component glyphName="gravecomb" x="579" y="183" flags="0x1004"/>
      <component glyphName="E" x="0" y="0" flags="0x1204"/>
    </TTGlyph>
    <TTGlyph name="Elcyrillic" xMin="21" yMin="-7" xMax="489" yMax="636">
      <contour>
        <pt x="489" y="28" on="1"/>
        <pt x="489" y="-7" on="0"/>
        <pt x="462" y="-7" on="1"/>
        <pt x="437" y="-7" on="0"/>
        <pt x="437" y="28" on="1"/>
        <pt x="437" y="584" on="1"/>
        <pt x="229" y="584" on="1"/>
        <pt x="193" y="584" on="0"/>
        <pt x="167" y="557" on="0"/>
        <pt x="167" y="525" on="1"/>
        <pt x="167" y="127" on="1"/>
        <pt x="167" y="49" on="0"/>
        <pt x="111" y="0" on="0"/>
        <pt x="57" y="0" on="1"/>
        <pt x="21" y="0" on="0"/>
        <pt x="21" y="27" on="1"/>
        <pt x="21" y="52" on="0"/>
        <pt x="57" y="52" on="1"/>
        <pt x="89" y="52" on="0"/>
        <pt x="112" y="78" on="0"/>
        <pt x="112" y="110" on="1"/>
        <pt x="112" y="509" on="1"/>
        <pt x="112" y="579" on="0"/>
        <pt x="157" y="636" on="0"/>
        <pt x="222" y="636" on="1"/>
        <pt x="489" y="636" on="1"/>
      </contour>
    </TTGlyph>
    <TTGlyph name="Emacron" xMin="84" yMin="0" xMax="548" yMax="759">
      <contour>
        <pt x="156" y="733" on="1"/>
        <pt x="156" y="759" on="0"/>
        <pt x="187" y="759" on="1"/>
        <pt x="432" y="759" on="1"/>
        <pt x="466" y="759" on="0"/>
        <pt x="466" y="731" on="1"/>
        <pt x="466" y="720" on="0"/>
        <pt x="447" y="706" on="0"/>
        <pt x="432" y="706" on="1"/>
        <pt x="187" y="706" on="1"/>
        <pt x="156" y="706" on="0"/>
      </contour>
      <contour>
        <pt x="136" y="332" on="1"/>
        <pt x="136" y="52" on="1"/>
        <pt x="514" y="52" on="1"/>
        <pt x="548" y="52" on="0"/>
        <pt x="548" y="24" on="1"/>
        <pt x="548" y="0" on="0"/>
        <pt x="514" y="0" on="1"/>
        <pt x="108" y="0" on="1"/>
        <pt x="84" y="0" on="0"/>
        <pt x="84" y="36" on="1"/>
        <pt x="84" y="600" on="1"/>
        <pt x="84" y="636" on="0"/>
        <pt x="108" y="636" on="1"/>
        <pt x="514" y="636" on="1"/>
        <pt x="548" y="636" on="0"/>
        <pt x="548" y="608" on="1"/>
        <pt x="548" y="584" on="0"/>
        <pt x="514" y="584" on="1"/>
        <pt x="136" y="584" on="1"/>
        <pt x="136" y="384" on="1"/>
        <pt x="395" y="384" on="1"/>
        <pt x="431" y="384" on="0"/>
        <pt x="431" y="356" on="1"/>
        <pt x="431" y="332" on="0"/>
        <pt x="395" y="332" on="1"/>
      </contour>
    </TTGlyph>
    <TTGlyph name="Emcyrillic" xMin="84" yMin="-7" xMax="569" yMax="643">
      <component glyphName="M" x="0" y="0" flags="0x1004"/>
    </TTGlyph>
    <TTGlyph name="Encyrillic" xMin="84" yMin="-7" xMax="548" yMax="643">
      <component glyphName="H" x="0" y="0" flags="0x1004"/>
    </TTGlyph>
    <TTGlyph name="Eng" xMin="84" yMin="-175" xMax="548" yMax="643">
      <contour>
        <pt x="496" y="96" on="1"/>
        <pt x="496" y="607" on="1"/>
        <pt x="496" y="643" on="0"/>
        <pt x="521" y="643" on="1"/>
        <pt x="548" y="643" on="0"/>
        <pt x="548" y="608" on="1"/>
        <pt x="548" y="0" on="1"/>
        <pt x="548" y="-56" on="0"/>
        <pt x="519" y="-127" on="0"/>
        <pt x="458" y="-163" on="0"/>
        <pt x="388" y="-175" on="0"/>
        <pt x="335" y="-175" on="1"/>
        <pt x="299" y="-175" on="0"/>
        <pt x="299" y="-148" on="1"/>
        <pt x="299" y="-123" on="0"/>
        <pt x="335" y="-123" on="1"/>
        <pt x="427" y="-123" on="0"/>
        <pt x="496" y="-79" on="0"/>
        <pt x="496" y="0" on="1"/>
        <pt x="496" y="10" on="1"/>
        <pt x="136" y="543" on="1"/>
        <pt x="136" y="26" on="1"/>
        <pt x="136" y="-7" on="0"/>
        <pt x="84" y="-7" on="0"/>
        <pt x="84" y="27" on="1"/>
        <pt x="84" y="608" on="1"/>
        <pt x="84" y="643" on="0"/>
        <pt x="108" y="643" on="1"/>
        <pt x="126" y="643" on="0"/>
        <pt x="138" y="624" on="1"/>
      </contour>
    </TTGlyph>
    <TTGlyph name="Eogonek" xMin="84" yMin="-205" xMax="548" yMax="641">
      <contour>
        <pt x="136" y="332" on="1"/>
        <pt x="136" y="52" on="1"/>
        <pt x="514" y="52" on="1"/>
        <pt x="548" y="52" on="0"/>
        <pt x="548" y="24" on="1"/>
        <pt x="548" y="0" on="0"/>
        <pt x="514" y="0" on="1"/>
        <pt x="347" y="0" on="1"/>
        <pt x="323" y="-16" on="0"/>
        <pt x="283" y="-85" on="0"/>
        <pt x="283" y="-101" on="1"/>
        <pt x="283" y="-155" on="0"/>
        <pt x="325" y="-155" on="1"/>
        <pt x="341" y="-155" on="0"/>
        <pt x="385" y="-138" on="0"/>
        <pt x="391" y="-138" on="1"/>
        <pt x="406" y="-138" on="0"/>
        <pt x="406" y="-155" on="1"/>
        <pt x="406" y="-181" on="0"/>
        <pt x="352" y="-205" on="0"/>
        <pt x="327" y="-205" on="1"/>
        <pt x="286" y="-205" on="0"/>
        <pt x="231" y="-147" on="0"/>
        <pt x="231" y="-101" on="1"/>
        <pt x="231" y="-64" on="0"/>
        <pt x="279" y="0" on="1"/>
        <pt x="108" y="0" on="1"/>
        <pt x="84" y="0" on="0"/>
        <pt x="84" y="36" on="1"/>
        <pt x="84" y="605" on="1"/>
        <pt x="84" y="641" on="0"/>
        <pt x="108" y="641" on="1"/>
        <pt x="514" y="641" on="1"/>
        <pt x="548" y="641" on="0"/>
        <pt x="548" y="613" on="1"/>
        <pt x="548" y="589" on="0"/>
        <pt x="514" y="589" on="1"/>
        <pt x="136" y="589" on="1"/>
        <pt x="136" y="384" on="1"/>
        <pt x="395" y="384" on="1"/>
        <pt x="431" y="384" on="0"/>
        <pt x="431" y="356" on="1"/>
        <pt x="431" y="332" on="0"/>
        <pt x="395" y="332" on="1"/>
      </contour>
    </TTGlyph>
    <TTGlyph name="Epsilon" xMin="84" yMin="0" xMax="548" yMax="636">
      <component glyphName="E" x="0" y="0" flags="0x1004"/>
    </TTGlyph>
    <TTGlyph name="Epsilontonos" xMin="19" yMin="0" xMax="591" yMax="750">
      <contour>
        <pt x="179" y="332" on="1"/>
        <pt x="179" y="52" on="1"/>
        <pt x="557" y="52" on="1"/>
        <pt x="591" y="52" on="0"/>
        <pt x="591" y="24" on="1"/>
        <pt x="591" y="0" on="0"/>
        <pt x="557" y="0" on="1"/>
        <pt x="151" y="0" on="1"/>
        <pt x="127" y="0" on="0"/>
        <pt x="127" y="36" on="1"/>
        <pt x="127" y="600" on="1"/>
        <pt x="127" y="636" on="0"/>
        <pt x="151" y="636" on="1"/>
        <pt x="557" y="636" on="1"/>
        <pt x="591" y="636" on="0"/>
        <pt x="591" y="608" on="1"/>
        <pt x="591" y="584" on="0"/>
        <pt x="557" y="584" on="1"/>
        <pt x="179" y="584" on="1"/>
        <pt x="179" y="384" on="1"/>
        <pt x="438" y="384" on="1"/>
        <pt x="474" y="384" on="0"/>
        <pt x="474" y="356" on="1"/>
        <pt x="474" y="332" on="0"/>
        <pt x="438" y="332" on="1"/>
      </contour>
      <contour>
        <pt x="93" y="750" on="1"/>
        <pt x="118" y="750" on="0"/>
        <pt x="118" y="723" on="1"/>
        <pt x="118" y="716" on="0"/>
        <pt x="117" y="712" on="1"/>
        <pt x="72" y="555" on="1"/>
        <pt x="65" y="520" on="0"/>
        <pt x="47" y="520" on="1"/>
        <pt x="35" y="520" on="0"/>
        <pt x="19" y="540" on="0"/>
        <pt x="19" y="556" on="1"/>
        <pt x="19" y="562" on="0"/>
        <pt x="21" y="568" on="1"/>
        <pt x="65" y="725" on="1"/>
        <pt x="73" y="750" on="0"/>
      </contour>
    </TTGlyph>
    <TTGlyph name="Ercyrillic" xMin="84" yMin="-7" xMax="506" yMax="636">
      <component glyphName="P" x="0" y="0" flags="0x1004"/>
    </TTGlyph>
    <TTGlyph name="Ereversedcyrillic" xMin="54" yMin="0" xMax="518" yMax="636">
      <contour>
        <pt x="154" y="636" on="1"/>
        <pt x="295" y="636" on="1"/>
        <pt x="410" y="636" on="0"/>
        <pt x="518" y="565" on="0"/>
        <pt x="518" y="459" on="1"/>
        <pt x="518" y="177" on="1"/>
        <pt x="518" y="71" on="0"/>
        <pt x="410" y="0" on="0"/>
        <pt x="295" y="0" on="1"/>
        <pt x="154" y="0" on="1"/>
        <pt x="122" y="0" on="0"/>
        <pt x="79" y="19" on="0"/>
        <pt x="60" y="54" on="0"/>
        <pt x="54" y="88" on="0"/>
        <pt x="54" y="112" on="1"/>
        <pt x="54" y="147" on="0"/>
        <pt x="106" y="147" on="0"/>
        <pt x="106" y="114" on="1"/>
        <pt x="106" y="79" on="0"/>
        <pt x="130" y="52" on="0"/>
        <pt x="161" y="52" on="1"/>
        <pt x="295" y="52" on="1"/>
        <pt x="394" y="52" on="0"/>
        <pt x="466" y="97" on="0"/>
        <pt x="466" y="178" on="1"/>
        <pt x="466" y="307" on="1"/>
        <pt x="207" y="307" on="1"/>
        <pt x="172" y="307" on="0"/>
        <pt x="172" y="335" on="1"/>
        <pt x="172" y="359" on="0"/>
        <pt x="207" y="359" on="1"/>
        <pt x="466" y="359" on="1"/>
        <pt x="466" y="459" on="1"/>
        <pt x="466" y="540" on="0"/>
        <pt x="394" y="584" on="0"/>
        <pt x="295" y="584" on="1"/>
        <pt x="161" y="584" on="1"/>
        <pt x="129" y="584" on="0"/>
        <pt x="106" y="556" on="0"/>
        <pt x="106" y="522" on="1"/>
        <pt x="106" y="489" on="0"/>
        <pt x="54" y="489" on="0"/>
        <pt x="54" y="525" on="1"/>
        <pt x="54" y="548" on="0"/>
        <pt x="60" y="582" on="0"/>
        <pt x="79" y="617" on="0"/>
        <pt x="122" y="636" on="0"/>
      </contour>
    </TTGlyph>
    <TTGlyph name="Escyrillic" xMin="72" yMin="0" xMax="536" yMax="636">
      <component glyphName="C" x="0" y="0" flags="0x1004"/>
    </TTGlyph>
    <TTGlyph name="Eta" xMin="84" yMin="-7" xMax="548" yMax="643">
      <component glyphName="H" x="0" y="0" flags="0x1004"/>
    </TTGlyph>
    <TTGlyph name="Etatonos" xMin="18" yMin="-7" xMax="594" yMax="746">
      <contour>
        <pt x="182" y="27" on="1"/>
        <pt x="182" y="-7" on="0"/>
        <pt x="130" y="-7" on="0"/>
        <pt x="130" y="27" on="1"/>
        <pt x="130" y="608" on="1"/>
        <pt x="130" y="643" on="0"/>
        <pt x="154" y="643" on="1"/>
        <pt x="182" y="643" on="0"/>
        <pt x="182" y="608" on="1"/>
        <pt x="182" y="369" on="1"/>
        <pt x="542" y="369" on="1"/>
        <pt x="542" y="608" on="1"/>
        <pt x="542" y="643" on="0"/>
        <pt x="567" y="643" on="1"/>
        <pt x="594" y="643" on="0"/>
        <pt x="594" y="608" on="1"/>
        <pt x="594" y="27" on="1"/>
        <pt x="594" y="-7" on="0"/>
        <pt x="569" y="-7" on="1"/>
        <pt x="542" y="-7" on="0"/>
        <pt x="542" y="27" on="1"/>
        <pt x="542" y="317" on="1"/>
        <pt x="182" y="317" on="1"/>
      </contour>
      <contour>
        <pt x="92" y="746" on="1"/>
        <pt x="117" y="746" on="0"/>
        <pt x="117" y="719" on="1"/>
        <pt x="117" y="712" on="0"/>
        <pt x="116" y="708" on="1"/>
        <pt x="71" y="551" on="1"/>
        <pt x="64" y="516" on="0"/>
        <pt x="46" y="516" on="1"/>
        <pt x="34" y="516" on="0"/>
        <pt x="18" y="536" on="0"/>
        <pt x="18" y="552" on="1"/>
        <pt x="18" y="558" on="0"/>
        <pt x="20" y="564" on="1"/>
        <pt x="64" y="721" on="1"/>
        <pt x="72" y="746" on="0"/>
      </contour>
    </TTGlyph>
    <TTGlyph name="Eth" xMin="52" yMin="0" xMax="548" yMax="636">
      <contour>
        <pt x="496" y="180" on="1"/>
        <pt x="496" y="456" on="1"/>
        <pt x="496" y="538" on="0"/>
        <pt x="426" y="584" on="0"/>
        <pt x="332" y="584" on="1"/>
        <pt x="136" y="584" on="1"/>
        <pt x="136" y="351" on="1"/>
        <pt x="240" y="351" on="1"/>
        <pt x="274" y="351" on="0"/>
        <pt x="274" y="324" on="1"/>
        <pt x="274" y="298" on="0"/>
        <pt x="240" y="298" on="1"/>
        <pt x="136" y="298" on="1"/>
        <pt x="136" y="52" on="1"/>
        <pt x="326" y="52" on="1"/>
        <pt x="424" y="52" on="0"/>
        <pt x="496" y="97" on="0"/>
      </contour>
      <contour>
        <pt x="548" y="456" on="1"/>
        <pt x="548" y="180" on="1"/>
        <pt x="548" y="72" on="0"/>
        <pt x="441" y="0" on="0"/>
        <pt x="326" y="0" on="1"/>
        <pt x="108" y="0" on="1"/>
        <pt x="84" y="0" on="0"/>
        <pt x="84" y="36" on="1"/>
        <pt x="84" y="298" on="1"/>
        <pt x="52" y="298" on="0"/>
        <pt x="52" y="326" on="1"/>
        <pt x="52" y="351" on="0"/>
        <pt x="84" y="351" on="1"/>
        <pt x="84" y="600" on="1"/>
        <pt x="84" y="636" on="0"/>
        <pt x="108" y="636" on="1"/>
        <pt x="332" y="636" on="1"/>
        <pt x="386" y="636" on="0"/>
        <pt x="458" y="623" on="0"/>
        <pt x="519" y="585" on="0"/>
        <pt x="548" y="512" on="0"/>
      </contour>
    </TTGlyph>
    <TTGlyph name="Euro" xMin="44" yMin="-5" xMax="498" yMax="641">
      <contour>
        <pt x="498" y="529" on="1"/>
        <pt x="498" y="494" on="0"/>
        <pt x="446" y="494" on="0"/>
        <pt x="446" y="527" on="1"/>
        <pt x="446" y="562" on="0"/>
        <pt x="422" y="589" on="0"/>
        <pt x="391" y="589" on="1"/>
        <pt x="335" y="589" on="1"/>
        <pt x="251" y="589" on="0"/>
        <pt x="159" y="496" on="0"/>
        <pt x="159" y="409" on="1"/>
        <pt x="159" y="404" on="1"/>
        <pt x="353" y="404" on="1"/>
        <pt x="387" y="404" on="0"/>
        <pt x="387" y="377" on="1"/>
        <pt x="387" y="351" on="0"/>
        <pt x="353" y="351" on="1"/>
        <pt x="159" y="351" on="1"/>
        <pt x="159" y="286" on="1"/>
        <pt x="353" y="286" on="1"/>
        <pt x="387" y="286" on="0"/>
        <pt x="387" y="258" on="1"/>
        <pt x="387" y="233" on="0"/>
        <pt x="353" y="233" on="1"/>
        <pt x="159" y="233" on="1"/>
        <pt x="159" y="227" on="1"/>
        <pt x="159" y="139" on="0"/>
        <pt x="251" y="47" on="0"/>
        <pt x="335" y="47" on="1"/>
        <pt x="391" y="47" on="1"/>
        <pt x="423" y="47" on="0"/>
        <pt x="446" y="75" on="0"/>
        <pt x="446" y="109" on="1"/>
        <pt x="446" y="142" on="0"/>
        <pt x="498" y="142" on="0"/>
        <pt x="498" y="106" on="1"/>
        <pt x="498" y="83" on="0"/>
        <pt x="492" y="49" on="0"/>
        <pt x="473" y="14" on="0"/>
        <pt x="430" y="-5" on="0"/>
        <pt x="398" y="-5" on="1"/>
        <pt x="335" y="-5" on="1"/>
        <pt x="234" y="-5" on="0"/>
        <pt x="107" y="116" on="0"/>
        <pt x="107" y="227" on="1"/>
        <pt x="107" y="233" on="1"/>
        <pt x="76" y="233" on="1"/>
        <pt x="44" y="233" on="0"/>
        <pt x="44" y="260" on="1"/>
        <pt x="44" y="286" on="0"/>
        <pt x="76" y="286" on="1"/>
        <pt x="107" y="286" on="1"/>
        <pt x="107" y="351" on="1"/>
        <pt x="76" y="351" on="1"/>
        <pt x="44" y="351" on="0"/>
        <pt x="44" y="379" on="1"/>
        <pt x="44" y="404" on="0"/>
        <pt x="76" y="404" on="1"/>
        <pt x="107" y="404" on="1"/>
        <pt x="107" y="409" on="1"/>
        <pt x="107" y="520" on="0"/>
        <pt x="234" y="641" on="0"/>
        <pt x="335" y="641" on="1"/>
        <pt x="398" y="641" on="1"/>
        <pt x="430" y="641" on="0"/>
        <pt x="473" y="622" on="0"/>
        <pt x="492" y="587" on="0"/>
        <pt x="498" y="553" on="0"/>
      </contour>
    </TTGlyph>
    <TTGlyph name="F" xMin="84" yMin="-7" xMax="548" yMax="636">
      <contour>
        <pt x="136" y="27" on="1"/>
        <pt x="136" y="-7" on="0"/>
        <pt x="84" y="-7" on="0"/>
        <pt x="84" y="28" on="1"/>
        <pt x="84" y="600" on="1"/>
        <pt x="84" y="636" on="0"/>
        <pt x="108" y="636" on="1"/>
        <pt x="514" y="636" on="1"/>
        <pt x="548" y="636" on="0"/>
        <pt x="548" y="608" on="1"/>
        <pt x="548" y="584" on="0"/>
        <pt x="514" y="584" on="1"/>
        <pt x="136" y="584" on="1"/>
        <pt x="136" y="384" on="1"/>
        <pt x="395" y="384" on="1"/>
        <pt x="431" y="384" on="0"/>
        <pt x="431" y="356" on="1"/>
        <pt x="431" y="332" on="0"/>
        <pt x="395" y="332" on="1"/>
        <pt x="136" y="332" on="1"/>
      </contour>
    </TTGlyph>
    <TTGlyph name="Fitacyrillic" xMin="65" yMin="-9" xMax="529" yMax="645">
      <contour>
        <pt x="399" y="327" on="1"/>
        <pt x="414" y="327" on="0"/>
        <pt x="453" y="344" on="0"/>
        <pt x="465" y="352" on="1"/>
        <pt x="477" y="361" on="1"/>
        <pt x="477" y="404" on="1"/>
        <pt x="477" y="493" on="0"/>
        <pt x="383" y="593" on="0"/>
        <pt x="211" y="593" on="0"/>
        <pt x="117" y="493" on="0"/>
        <pt x="117" y="404" on="1"/>
        <pt x="117" y="344" on="1"/>
        <pt x="146" y="367" on="0"/>
        <pt x="180" y="367" on="1"/>
        <pt x="216" y="367" on="0"/>
        <pt x="382" y="327" on="0"/>
      </contour>
      <contour>
        <pt x="529" y="228" on="1"/>
        <pt x="529" y="118" on="0"/>
        <pt x="399" y="-9" on="0"/>
        <pt x="195" y="-9" on="0"/>
        <pt x="65" y="117" on="0"/>
        <pt x="65" y="228" on="1"/>
        <pt x="65" y="408" on="1"/>
        <pt x="65" y="519" on="0"/>
        <pt x="195" y="645" on="0"/>
        <pt x="399" y="645" on="0"/>
        <pt x="529" y="518" on="0"/>
        <pt x="529" y="408" on="1"/>
      </contour>
      <contour>
        <pt x="477" y="232" on="1"/>
        <pt x="477" y="298" on="1"/>
        <pt x="446" y="275" on="0"/>
        <pt x="412" y="275" on="1"/>
        <pt x="376" y="275" on="0"/>
        <pt x="210" y="315" on="0"/>
        <pt x="193" y="315" on="1"/>
        <pt x="178" y="315" on="0"/>
        <pt x="140" y="298" on="0"/>
        <pt x="128" y="290" on="1"/>
        <pt x="117" y="282" on="1"/>
        <pt x="117" y="232" on="1"/>
        <pt x="117" y="142" on="0"/>
        <pt x="211" y="43" on="0"/>
        <pt x="383" y="43" on="0"/>
        <pt x="477" y="142" on="0"/>
      </contour>
    </TTGlyph>
    <TTGlyph name="G" xMin="72" yMin="0" xMax="536" yMax="636">
      <contour>
        <pt x="484" y="246" on="1"/>
        <pt x="353" y="246" on="1"/>
        <pt x="317" y="246" on="0"/>
        <pt x="317" y="271" on="1"/>
        <pt x="317" y="298" on="0"/>
        <pt x="353" y="298" on="1"/>
        <pt x="536" y="298" on="1"/>
        <pt x="536" y="109" on="1"/>
        <pt x="536" y="60" on="0"/>
        <pt x="497" y="0" on="0"/>
        <pt x="436" y="0" on="1"/>
        <pt x="289" y="0" on="1"/>
        <pt x="234" y="0" on="0"/>
        <pt x="162" y="13" on="0"/>
        <pt x="101" y="49" on="0"/>
        <pt x="72" y="121" on="0"/>
        <pt x="72" y="177" on="1"/>
        <pt x="72" y="459" on="1"/>
        <pt x="72" y="565" on="0"/>
        <pt x="179" y="636" on="0"/>
        <pt x="295" y="636" on="1"/>
        <pt x="436" y="636" on="1"/>
        <pt x="468" y="636" on="0"/>
        <pt x="511" y="617" on="0"/>
        <pt x="530" y="582" on="0"/>
        <pt x="536" y="548" on="0"/>
        <pt x="536" y="525" on="1"/>
        <pt x="536" y="489" on="0"/>
        <pt x="484" y="489" on="0"/>
        <pt x="484" y="523" on="1"/>
        <pt x="484" y="556" on="0"/>
        <pt x="461" y="584" on="0"/>
        <pt x="429" y="584" on="1"/>
        <pt x="295" y="584" on="1"/>
        <pt x="196" y="584" on="0"/>
        <pt x="124" y="539" on="0"/>
        <pt x="124" y="458" on="1"/>
        <pt x="124" y="178" on="1"/>
        <pt x="124" y="97" on="0"/>
        <pt x="195" y="52" on="0"/>
        <pt x="289" y="52" on="1"/>
        <pt x="429" y="52" on="1"/>
        <pt x="461" y="52" on="0"/>
        <pt x="484" y="79" on="0"/>
        <pt x="484" y="112" on="1"/>
      </contour>
    </TTGlyph>
    <TTGlyph name="Gamma" xMin="82" yMin="-7" xMax="532" yMax="636">
      <contour>
        <pt x="189" y="584" on="1"/>
        <pt x="157" y="584" on="0"/>
        <pt x="134" y="557" on="0"/>
        <pt x="134" y="525" on="1"/>
        <pt x="134" y="27" on="1"/>
        <pt x="134" y="-7" on="0"/>
        <pt x="107" y="-7" on="1"/>
        <pt x="82" y="-7" on="0"/>
        <pt x="82" y="27" on="1"/>
        <pt x="82" y="509" on="1"/>
        <pt x="82" y="579" on="0"/>
        <pt x="124" y="636" on="0"/>
        <pt x="182" y="636" on="1"/>
        <pt x="497" y="636" on="1"/>
        <pt x="532" y="636" on="0"/>
        <pt x="532" y="584" on="0"/>
        <pt x="497" y="584" on="1"/>
      </contour>
    </TTGlyph>
    <TTGlyph name="Gbreve" xMin="72" yMin="0" xMax="536" yMax="819">
      <contour>
        <pt x="484" y="246" on="1"/>
        <pt x="353" y="246" on="1"/>
        <pt x="317" y="246" on="0"/>
        <pt x="317" y="271" on="1"/>
        <pt x="317" y="298" on="0"/>
        <pt x="353" y="298" on="1"/>
        <pt x="536" y="298" on="1"/>
        <pt x="536" y="109" on="1"/>
        <pt x="536" y="60" on="0"/>
        <pt x="497" y="0" on="0"/>
        <pt x="436" y="0" on="1"/>
        <pt x="289" y="0" on="1"/>
        <pt x="234" y="0" on="0"/>
        <pt x="162" y="13" on="0"/>
        <pt x="101" y="49" on="0"/>
        <pt x="72" y="121" on="0"/>
        <pt x="72" y="177" on="1"/>
        <pt x="72" y="459" on="1"/>
        <pt x="72" y="565" on="0"/>
        <pt x="179" y="636" on="0"/>
        <pt x="295" y="636" on="1"/>
        <pt x="436" y="636" on="1"/>
        <pt x="468" y="636" on="0"/>
        <pt x="511" y="617" on="0"/>
        <pt x="530" y="582" on="0"/>
        <pt x="536" y="548" on="0"/>
        <pt x="536" y="525" on="1"/>
        <pt x="536" y="489" on="0"/>
        <pt x="484" y="489" on="0"/>
        <pt x="484" y="523" on="1"/>
        <pt x="484" y="556" on="0"/>
        <pt x="461" y="584" on="0"/>
        <pt x="429" y="584" on="1"/>
        <pt x="295" y="584" on="1"/>
        <pt x="196" y="584" on="0"/>
        <pt x="124" y="539" on="0"/>
        <pt x="124" y="458" on="1"/>
        <pt x="124" y="178" on="1"/>
        <pt x="124" y="97" on="0"/>
        <pt x="195" y="52" on="0"/>
        <pt x="289" y="52" on="1"/>
        <pt x="429" y="52" on="1"/>
        <pt x="461" y="52" on="0"/>
        <pt x="484" y="79" on="0"/>
        <pt x="484" y="112" on="1"/>
      </contour>
      <contour>
        <pt x="305" y="688" on="1"/>
        <pt x="259" y="688" on="0"/>
        <pt x="185" y="759" on="0"/>
        <pt x="185" y="819" on="1"/>
        <pt x="238" y="819" on="1"/>
        <pt x="238" y="776" on="0"/>
        <pt x="279" y="742" on="0"/>
        <pt x="331" y="742" on="0"/>
        <pt x="372" y="776" on="0"/>
        <pt x="372" y="819" on="1"/>
        <pt x="425" y="819" on="1"/>
        <pt x="425" y="758" on="0"/>
        <pt x="350" y="688" on="0"/>
      </contour>
    </TTGlyph>
    <TTGlyph name="Gcircumflex" xMin="72" yMin="0" xMax="536" yMax="819">
      <contour>
        <pt x="484" y="246" on="1"/>
        <pt x="353" y="246" on="1"/>
        <pt x="317" y="246" on="0"/>
        <pt x="317" y="271" on="1"/>
        <pt x="317" y="298" on="0"/>
        <pt x="353" y="298" on="1"/>
        <pt x="536" y="298" on="1"/>
        <pt x="536" y="109" on="1"/>
        <pt x="536" y="60" on="0"/>
        <pt x="497" y="0" on="0"/>
        <pt x="436" y="0" on="1"/>
        <pt x="289" y="0" on="1"/>
        <pt x="234" y="0" on="0"/>
        <pt x="162" y="13" on="0"/>
        <pt x="101" y="49" on="0"/>
        <pt x="72" y="121" on="0"/>
        <pt x="72" y="177" on="1"/>
        <pt x="72" y="459" on="1"/>
        <pt x="72" y="565" on="0"/>
        <pt x="179" y="636" on="0"/>
        <pt x="295" y="636" on="1"/>
        <pt x="436" y="636" on="1"/>
        <pt x="468" y="636" on="0"/>
        <pt x="511" y="617" on="0"/>
        <pt x="530" y="582" on="0"/>
        <pt x="536" y="548" on="0"/>
        <pt x="536" y="525" on="1"/>
        <pt x="536" y="489" on="0"/>
        <pt x="484" y="489" on="0"/>
        <pt x="484" y="523" on="1"/>
        <pt x="484" y="556" on="0"/>
        <pt x="461" y="584" on="0"/>
        <pt x="429" y="584" on="1"/>
        <pt x="295" y="584" on="1"/>
        <pt x="196" y="584" on="0"/>
        <pt x="124" y="539" on="0"/>
        <pt x="124" y="458" on="1"/>
        <pt x="124" y="178" on="1"/>
        <pt x="124" y="97" on="0"/>
        <pt x="195" y="52" on="0"/>
        <pt x="289" y="52" on="1"/>
        <pt x="429" y="52" on="1"/>
        <pt x="461" y="52" on="0"/>
        <pt x="484" y="79" on="0"/>
        <pt x="484" y="112" on="1"/>
      </contour>
      <contour>
        <pt x="168" y="687" on="1"/>
        <pt x="273" y="819" on="1"/>
        <pt x="332" y="819" on="1"/>
        <pt x="439" y="687" on="1"/>
        <pt x="445" y="679" on="0"/>
        <pt x="445" y="669" on="1"/>
        <pt x="445" y="646" on="0"/>
        <pt x="422" y="646" on="1"/>
        <pt x="417" y="646" on="0"/>
        <pt x="408" y="650" on="0"/>
        <pt x="405" y="653" on="0"/>
        <pt x="395" y="665" on="0"/>
        <pt x="394" y="666" on="1"/>
        <pt x="303" y="762" on="1"/>
        <pt x="213" y="666" on="1"/>
        <pt x="211" y="664" on="0"/>
        <pt x="205" y="656" on="0"/>
        <pt x="201" y="653" on="0"/>
        <pt x="196" y="648" on="0"/>
        <pt x="189" y="646" on="0"/>
        <pt x="185" y="646" on="1"/>
        <pt x="162" y="646" on="0"/>
        <pt x="162" y="669" on="1"/>
        <pt x="162" y="679" on="0"/>
      </contour>
    </TTGlyph>
    <TTGlyph name="Gcommaaccent" xMin="72" yMin="-205" xMax="536" yMax="636">
      <contour>
        <pt x="355" y="-79" on="1"/>
        <pt x="355" y="-89" on="0"/>
        <pt x="350" y="-98" on="1"/>
        <pt x="309" y="-181" on="1"/>
        <pt x="299" y="-205" on="0"/>
        <pt x="284" y="-205" on="1"/>
        <pt x="262" y="-205" on="0"/>
        <pt x="262" y="-180" on="1"/>
        <pt x="262" y="-176" on="0"/>
        <pt x="265" y="-164" on="1"/>
        <pt x="289" y="-77" on="1"/>
        <pt x="296" y="-54" on="0"/>
        <pt x="314" y="-54" on="1"/>
        <pt x="325" y="-54" on="0"/>
        <pt x="355" y="-66" on="0"/>
      </contour>
      <contour>
        <pt x="484" y="246" on="1"/>
        <pt x="353" y="246" on="1"/>
        <pt x="317" y="246" on="0"/>
        <pt x="317" y="271" on="1"/>
        <pt x="317" y="298" on="0"/>
        <pt x="353" y="298" on="1"/>
        <pt x="536" y="298" on="1"/>
        <pt x="536" y="109" on="1"/>
        <pt x="536" y="60" on="0"/>
        <pt x="497" y="0" on="0"/>
        <pt x="436" y="0" on="1"/>
        <pt x="289" y="0" on="1"/>
        <pt x="234" y="0" on="0"/>
        <pt x="162" y="13" on="0"/>
        <pt x="101" y="49" on="0"/>
        <pt x="72" y="121" on="0"/>
        <pt x="72" y="177" on="1"/>
        <pt x="72" y="459" on="1"/>
        <pt x="72" y="565" on="0"/>
        <pt x="179" y="636" on="0"/>
        <pt x="295" y="636" on="1"/>
        <pt x="436" y="636" on="1"/>
        <pt x="468" y="636" on="0"/>
        <pt x="511" y="617" on="0"/>
        <pt x="530" y="582" on="0"/>
        <pt x="536" y="548" on="0"/>
        <pt x="536" y="525" on="1"/>
        <pt x="536" y="489" on="0"/>
        <pt x="484" y="489" on="0"/>
        <pt x="484" y="523" on="1"/>
        <pt x="484" y="556" on="0"/>
        <pt x="461" y="584" on="0"/>
        <pt x="429" y="584" on="1"/>
        <pt x="295" y="584" on="1"/>
        <pt x="196" y="584" on="0"/>
        <pt x="124" y="539" on="0"/>
        <pt x="124" y="458" on="1"/>
        <pt x="124" y="178" on="1"/>
        <pt x="124" y="97" on="0"/>
        <pt x="195" y="52" on="0"/>
        <pt x="289" y="52" on="1"/>
        <pt x="429" y="52" on="1"/>
        <pt x="461" y="52" on="0"/>
        <pt x="484" y="79" on="0"/>
        <pt x="484" y="112" on="1"/>
      </contour>
    </TTGlyph>
    <TTGlyph name="Gdotaccent" xMin="72" yMin="0" xMax="536" yMax="783">
      <contour>
        <pt x="484" y="246" on="1"/>
        <pt x="353" y="246" on="1"/>
        <pt x="317" y="246" on="0"/>
        <pt x="317" y="271" on="1"/>
        <pt x="317" y="298" on="0"/>
        <pt x="353" y="298" on="1"/>
        <pt x="536" y="298" on="1"/>
        <pt x="536" y="109" on="1"/>
        <pt x="536" y="60" on="0"/>
        <pt x="497" y="0" on="0"/>
        <pt x="436" y="0" on="1"/>
        <pt x="289" y="0" on="1"/>
        <pt x="234" y="0" on="0"/>
        <pt x="162" y="13" on="0"/>
        <pt x="101" y="49" on="0"/>
        <pt x="72" y="121" on="0"/>
        <pt x="72" y="177" on="1"/>
        <pt x="72" y="459" on="1"/>
        <pt x="72" y="565" on="0"/>
        <pt x="179" y="636" on="0"/>
        <pt x="295" y="636" on="1"/>
        <pt x="436" y="636" on="1"/>
        <pt x="468" y="636" on="0"/>
        <pt x="511" y="617" on="0"/>
        <pt x="530" y="582" on="0"/>
        <pt x="536" y="548" on="0"/>
        <pt x="536" y="525" on="1"/>
        <pt x="536" y="489" on="0"/>
        <pt x="484" y="489" on="0"/>
        <pt x="484" y="523" on="1"/>
        <pt x="484" y="556" on="0"/>
        <pt x="461" y="584" on="0"/>
        <pt x="429" y="584" on="1"/>
        <pt x="295" y="584" on="1"/>
        <pt x="196" y="584" on="0"/>
        <pt x="124" y="539" on="0"/>
        <pt x="124" y="458" on="1"/>
        <pt x="124" y="178" on="1"/>
        <pt x="124" y="97" on="0"/>
        <pt x="195" y="52" on="0"/>
        <pt x="289" y="52" on="1"/>
        <pt x="429" y="52" on="1"/>
        <pt x="461" y="52" on="0"/>
        <pt x="484" y="79" on="0"/>
        <pt x="484" y="112" on="1"/>
      </contour>
      <contour>
        <pt x="289" y="783" on="1"/>
        <pt x="305" y="783" on="0"/>
        <pt x="340" y="759" on="0"/>
        <pt x="340" y="725" on="0"/>
        <pt x="305" y="701" on="0"/>
        <pt x="289" y="701" on="1"/>
        <pt x="272" y="701" on="0"/>
        <pt x="238" y="725" on="0"/>
        <pt x="238" y="759" on="0"/>
        <pt x="272" y="783" on="0"/>
      </contour>
    </TTGlyph>
    <TTGlyph name="Gecyrillic" xMin="82" yMin="-7" xMax="532" yMax="636">
      <component glyphName="Gamma" x="0" y="0" flags="0x1004"/>
    </TTGlyph>
    <TTGlyph name="Gheupturncyrillic" xMin="82" yMin="-7" xMax="532" yMax="748">
      <contour>
        <pt x="532" y="584" on="1"/>
        <pt x="189" y="584" on="1"/>
        <pt x="157" y="584" on="0"/>
        <pt x="134" y="557" on="0"/>
        <pt x="134" y="525" on="1"/>
        <pt x="134" y="27" on="1"/>
        <pt x="134" y="-7" on="0"/>
        <pt x="107" y="-7" on="1"/>
        <pt x="82" y="-7" on="0"/>
        <pt x="82" y="27" on="1"/>
        <pt x="82" y="509" on="1"/>
        <pt x="82" y="579" on="0"/>
        <pt x="124" y="636" on="0"/>
        <pt x="182" y="636" on="1"/>
        <pt x="480" y="636" on="1"/>
        <pt x="480" y="713" on="1"/>
        <pt x="480" y="748" on="0"/>
        <pt x="507" y="748" on="1"/>
        <pt x="532" y="748" on="0"/>
        <pt x="532" y="713" on="1"/>
      </contour>
    </TTGlyph>
    <TTGlyph name="Gjecyrillic" xMin="82" yMin="-7" xMax="532" yMax="819">
      <component glyphName="acutecomb" x="649" y="183" flags="0x1004"/>
      <component glyphName="Gecyrillic" x="0" y="0" flags="0x1204"/>
    </TTGlyph>
    <TTGlyph name="H" xMin="84" yMin="-7" xMax="548" yMax="643">
      <contour>
        <pt x="136" y="27" on="1"/>
        <pt x="136" y="-7" on="0"/>
        <pt x="84" y="-7" on="0"/>
        <pt x="84" y="27" on="1"/>
        <pt x="84" y="608" on="1"/>
        <pt x="84" y="643" on="0"/>
        <pt x="108" y="643" on="1"/>
        <pt x="136" y="643" on="0"/>
        <pt x="136" y="608" on="1"/>
        <pt x="136" y="369" on="1"/>
        <pt x="496" y="369" on="1"/>
        <pt x="496" y="608" on="1"/>
        <pt x="496" y="643" on="0"/>
        <pt x="521" y="643" on="1"/>
        <pt x="548" y="643" on="0"/>
        <pt x="548" y="608" on="1"/>
        <pt x="548" y="27" on="1"/>
        <pt x="548" y="-7" on="0"/>
        <pt x="523" y="-7" on="1"/>
        <pt x="496" y="-7" on="0"/>
        <pt x="496" y="27" on="1"/>
        <pt x="496" y="317" on="1"/>
        <pt x="136" y="317" on="1"/>
      </contour>
    </TTGlyph>
    <TTGlyph name="Hardsigncyrillic" xMin="25" yMin="-7" xMax="579" yMax="636">
      <contour>
        <pt x="157" y="584" on="1"/>
        <pt x="61" y="584" on="1"/>
        <pt x="25" y="584" on="0"/>
        <pt x="25" y="612" on="1"/>
        <pt x="25" y="636" on="0"/>
        <pt x="61" y="636" on="1"/>
        <pt x="209" y="636" on="1"/>
        <pt x="209" y="466" on="1"/>
        <pt x="363" y="466" on="1"/>
        <pt x="458" y="466" on="0"/>
        <pt x="579" y="326" on="0"/>
        <pt x="579" y="230" on="1"/>
        <pt x="579" y="133" on="0"/>
        <pt x="459" y="-7" on="0"/>
        <pt x="364" y="-7" on="1"/>
        <pt x="182" y="-7" on="1"/>
        <pt x="157" y="-7" on="0"/>
        <pt x="157" y="28" on="1"/>
      </contour>
      <contour>
        <pt x="363" y="414" on="1"/>
        <pt x="209" y="414" on="1"/>
        <pt x="209" y="45" on="1"/>
        <pt x="364" y="45" on="1"/>
        <pt x="442" y="45" on="0"/>
        <pt x="527" y="155" on="0"/>
        <pt x="527" y="230" on="1"/>
        <pt x="527" y="303" on="0"/>
        <pt x="441" y="414" on="0"/>
      </contour>
    </TTGlyph>
    <TTGlyph name="Hbar" xMin="28" yMin="-7" xMax="608" yMax="643">
      <contour>
        <pt x="54" y="508" on="1"/>
        <pt x="28" y="508" on="0"/>
        <pt x="28" y="530" on="1"/>
        <pt x="28" y="551" on="0"/>
        <pt x="54" y="551" on="1"/>
        <pt x="86" y="551" on="1"/>
        <pt x="86" y="608" on="1"/>
        <pt x="86" y="643" on="0"/>
        <pt x="110" y="643" on="1"/>
        <pt x="138" y="643" on="0"/>
        <pt x="138" y="608" on="1"/>
        <pt x="138" y="551" on="1"/>
        <pt x="498" y="551" on="1"/>
        <pt x="498" y="608" on="1"/>
        <pt x="498" y="643" on="0"/>
        <pt x="523" y="643" on="1"/>
        <pt x="550" y="643" on="0"/>
        <pt x="550" y="608" on="1"/>
        <pt x="550" y="551" on="1"/>
        <pt x="579" y="551" on="1"/>
        <pt x="608" y="551" on="0"/>
        <pt x="608" y="528" on="1"/>
        <pt x="608" y="508" on="0"/>
        <pt x="579" y="508" on="1"/>
        <pt x="550" y="508" on="1"/>
        <pt x="550" y="27" on="1"/>
        <pt x="550" y="-7" on="0"/>
        <pt x="525" y="-7" on="1"/>
        <pt x="498" y="-7" on="0"/>
        <pt x="498" y="27" on="1"/>
        <pt x="498" y="317" on="1"/>
        <pt x="138" y="317" on="1"/>
        <pt x="138" y="27" on="1"/>
        <pt x="138" y="-7" on="0"/>
        <pt x="86" y="-7" on="0"/>
        <pt x="86" y="27" on="1"/>
        <pt x="86" y="508" on="1"/>
      </contour>
      <contour>
        <pt x="498" y="508" on="1"/>
        <pt x="138" y="508" on="1"/>
        <pt x="138" y="369" on="1"/>
        <pt x="498" y="369" on="1"/>
      </contour>
    </TTGlyph>
    <TTGlyph name="Hcircumflex" xMin="84" yMin="-7" xMax="548" yMax="819">
      <contour>
        <pt x="136" y="27" on="1"/>
        <pt x="136" y="-7" on="0"/>
        <pt x="84" y="-7" on="0"/>
        <pt x="84" y="27" on="1"/>
        <pt x="84" y="608" on="1"/>
        <pt x="84" y="643" on="0"/>
        <pt x="108" y="643" on="1"/>
        <pt x="136" y="643" on="0"/>
        <pt x="136" y="608" on="1"/>
        <pt x="136" y="369" on="1"/>
        <pt x="496" y="369" on="1"/>
        <pt x="496" y="608" on="1"/>
        <pt x="496" y="643" on="0"/>
        <pt x="521" y="643" on="1"/>
        <pt x="548" y="643" on="0"/>
        <pt x="548" y="608" on="1"/>
        <pt x="548" y="27" on="1"/>
        <pt x="548" y="-7" on="0"/>
        <pt x="523" y="-7" on="1"/>
        <pt x="496" y="-7" on="0"/>
        <pt x="496" y="27" on="1"/>
        <pt x="496" y="317" on="1"/>
        <pt x="136" y="317" on="1"/>
      </contour>
      <contour>
        <pt x="183" y="687" on="1"/>
        <pt x="288" y="819" on="1"/>
        <pt x="347" y="819" on="1"/>
        <pt x="454" y="687" on="1"/>
        <pt x="460" y="679" on="0"/>
        <pt x="460" y="669" on="1"/>
        <pt x="460" y="646" on="0"/>
        <pt x="437" y="646" on="1"/>
        <pt x="432" y="646" on="0"/>
        <pt x="423" y="650" on="0"/>
        <pt x="420" y="653" on="0"/>
        <pt x="410" y="665" on="0"/>
        <pt x="409" y="666" on="1"/>
        <pt x="318" y="762" on="1"/>
        <pt x="228" y="666" on="1"/>
        <pt x="226" y="664" on="0"/>
        <pt x="220" y="656" on="0"/>
        <pt x="216" y="653" on="0"/>
        <pt x="211" y="648" on="0"/>
        <pt x="204" y="646" on="0"/>
        <pt x="200" y="646" on="1"/>
        <pt x="177" y="646" on="0"/>
        <pt x="177" y="669" on="1"/>
        <pt x="177" y="679" on="0"/>
      </contour>
    </TTGlyph>
    <TTGlyph name="I" xMin="84" yMin="-7" xMax="136" yMax="643">
      <contour>
        <pt x="136" y="25" on="1"/>
        <pt x="136" y="-7" on="0"/>
        <pt x="109" y="-7" on="1"/>
        <pt x="84" y="-7" on="0"/>
        <pt x="84" y="25" on="1"/>
        <pt x="84" y="610" on="1"/>
        <pt x="84" y="643" on="0"/>
        <pt x="136" y="643" on="0"/>
        <pt x="136" y="610" on="1"/>
      </contour>
    </TTGlyph>
    <TTGlyph name="I.sc" xMin="86" yMin="-7" xMax="138" yMax="559">
      <contour>
        <pt x="138" y="25" on="1"/>
        <pt x="138" y="-7" on="0"/>
        <pt x="111" y="-7" on="1"/>
        <pt x="86" y="-7" on="0"/>
        <pt x="86" y="25" on="1"/>
        <pt x="86" y="526" on="1"/>
        <pt x="86" y="559" on="0"/>
        <pt x="138" y="559" on="0"/>
        <pt x="138" y="526" on="1"/>
      </contour>
    </TTGlyph>
    <TTGlyph name="IAcyrillic" xMin="7" yMin="-7" xMax="501" yMax="646">
      <contour>
        <pt x="138" y="467" on="1"/>
        <pt x="138" y="401" on="0"/>
        <pt x="217" y="346" on="0"/>
        <pt x="303" y="346" on="1"/>
        <pt x="449" y="346" on="1"/>
        <pt x="449" y="589" on="1"/>
        <pt x="303" y="589" on="1"/>
        <pt x="216" y="589" on="0"/>
        <pt x="138" y="532" on="0"/>
      </contour>
      <contour>
        <pt x="202" y="311" on="1"/>
        <pt x="86" y="345" on="0"/>
        <pt x="86" y="472" on="1"/>
        <pt x="86" y="646" on="0"/>
        <pt x="303" y="646" on="1"/>
        <pt x="477" y="646" on="1"/>
        <pt x="501" y="646" on="0"/>
        <pt x="501" y="610" on="1"/>
        <pt x="501" y="25" on="1"/>
        <pt x="501" y="-7" on="0"/>
        <pt x="476" y="-7" on="1"/>
        <pt x="449" y="-7" on="0"/>
        <pt x="449" y="25" on="1"/>
        <pt x="449" y="299" on="1"/>
        <pt x="314" y="299" on="1"/>
        <pt x="262" y="299" on="0"/>
        <pt x="208" y="259" on="0"/>
        <pt x="197" y="218" on="1"/>
        <pt x="169" y="114" on="1"/>
        <pt x="155" y="60" on="0"/>
        <pt x="86" y="-7" on="0"/>
        <pt x="43" y="-7" on="1"/>
        <pt x="7" y="-7" on="0"/>
        <pt x="7" y="45" on="0"/>
        <pt x="43" y="45" on="1"/>
        <pt x="68" y="45" on="0"/>
        <pt x="108" y="89" on="0"/>
        <pt x="114" y="110" on="1"/>
        <pt x="145" y="224" on="1"/>
        <pt x="159" y="279" on="0"/>
      </contour>
    </TTGlyph>
    <TTGlyph name="IUcyrillic" xMin="84" yMin="-9" xMax="655" yMax="645">
      <contour>
        <pt x="425" y="593" on="1"/>
        <pt x="340" y="593" on="0"/>
        <pt x="244" y="494" on="0"/>
        <pt x="244" y="407" on="1"/>
        <pt x="244" y="229" on="1"/>
        <pt x="244" y="141" on="0"/>
        <pt x="340" y="43" on="0"/>
        <pt x="510" y="43" on="0"/>
        <pt x="603" y="141" on="0"/>
        <pt x="603" y="229" on="1"/>
        <pt x="603" y="407" on="1"/>
        <pt x="603" y="494" on="0"/>
        <pt x="509" y="593" on="0"/>
      </contour>
      <contour>
        <pt x="425" y="-9" on="1"/>
        <pt x="322" y="-9" on="0"/>
        <pt x="192" y="117" on="0"/>
        <pt x="192" y="228" on="1"/>
        <pt x="192" y="297" on="1"/>
        <pt x="136" y="297" on="1"/>
        <pt x="136" y="24" on="1"/>
        <pt x="136" y="-7" on="0"/>
        <pt x="109" y="-7" on="1"/>
        <pt x="84" y="-7" on="0"/>
        <pt x="84" y="25" on="1"/>
        <pt x="84" y="610" on="1"/>
        <pt x="84" y="643" on="0"/>
        <pt x="136" y="643" on="0"/>
        <pt x="136" y="611" on="1"/>
        <pt x="136" y="349" on="1"/>
        <pt x="192" y="349" on="1"/>
        <pt x="192" y="408" on="1"/>
        <pt x="192" y="519" on="0"/>
        <pt x="322" y="645" on="0"/>
        <pt x="425" y="645" on="1"/>
        <pt x="526" y="645" on="0"/>
        <pt x="655" y="518" on="0"/>
        <pt x="655" y="408" on="1"/>
        <pt x="655" y="228" on="1"/>
        <pt x="655" y="118" on="0"/>
        <pt x="526" y="-9" on="0"/>
      </contour>
    </TTGlyph>
    <TTGlyph name="Iacute" xMin="84" yMin="-7" xMax="217" yMax="819">
      <component glyphName="acutecomb" x="460" y="183" flags="0x1004"/>
      <component glyphName="I" x="0" y="0" flags="0x1204"/>
    </TTGlyph>
    <TTGlyph name="Icircumflex" xMin="-30" yMin="-7" xMax="253" yMax="819">
      <component glyphName="uni0302" x="413" y="141" flags="0x1004"/>
      <component glyphName="I" x="0" y="0" flags="0x1204"/>
    </TTGlyph>
    <TTGlyph name="Icyrillic" xMin="84" yMin="-7" xMax="136" yMax="643">
      <component glyphName="I" x="0" y="0" flags="0x1004"/>
    </TTGlyph>
    <TTGlyph name="Idieresis" xMin="-13" yMin="-7" xMax="235" yMax="784">
      <component glyphName="dieresis" x="-73" y="113" flags="0x1004"/>
      <component glyphName="I" x="0" y="0" flags="0x1204"/>
    </TTGlyph>
    <TTGlyph name="Idotaccent" xMin="54" yMin="-7" xMax="156" yMax="783">
      <contour>
        <pt x="136" y="25" on="1"/>
        <pt x="136" y="-7" on="0"/>
        <pt x="109" y="-7" on="1"/>
        <pt x="84" y="-7" on="0"/>
        <pt x="84" y="25" on="1"/>
        <pt x="84" y="610" on="1"/>
        <pt x="84" y="643" on="0"/>
        <pt x="136" y="643" on="0"/>
        <pt x="136" y="610" on="1"/>
      </contour>
      <contour>
        <pt x="105" y="783" on="1"/>
        <pt x="121" y="783" on="0"/>
        <pt x="156" y="759" on="0"/>
        <pt x="156" y="725" on="0"/>
        <pt x="121" y="701" on="0"/>
        <pt x="105" y="701" on="1"/>
        <pt x="88" y="701" on="0"/>
        <pt x="54" y="725" on="0"/>
        <pt x="54" y="759" on="0"/>
        <pt x="88" y="783" on="0"/>
      </contour>
    </TTGlyph>
    <TTGlyph name="Ie.ukran" xMin="72" yMin="0" xMax="536" yMax="636">
      <contour>
        <pt x="436" y="636" on="1"/>
        <pt x="468" y="636" on="0"/>
        <pt x="511" y="617" on="0"/>
        <pt x="530" y="582" on="0"/>
        <pt x="536" y="548" on="0"/>
        <pt x="536" y="525" on="1"/>
        <pt x="536" y="489" on="0"/>
        <pt x="484" y="489" on="0"/>
        <pt x="484" y="522" on="1"/>
        <pt x="484" y="556" on="0"/>
        <pt x="461" y="584" on="0"/>
        <pt x="429" y="584" on="1"/>
        <pt x="295" y="584" on="1"/>
        <pt x="196" y="584" on="0"/>
        <pt x="124" y="540" on="0"/>
        <pt x="124" y="459" on="1"/>
        <pt x="124" y="359" on="1"/>
        <pt x="383" y="359" on="1"/>
        <pt x="418" y="359" on="0"/>
        <pt x="418" y="335" on="1"/>
        <pt x="418" y="307" on="0"/>
        <pt x="383" y="307" on="1"/>
        <pt x="124" y="307" on="1"/>
        <pt x="124" y="178" on="1"/>
        <pt x="124" y="97" on="0"/>
        <pt x="196" y="52" on="0"/>
        <pt x="295" y="52" on="1"/>
        <pt x="429" y="52" on="1"/>
        <pt x="460" y="52" on="0"/>
        <pt x="484" y="79" on="0"/>
        <pt x="484" y="114" on="1"/>
        <pt x="484" y="147" on="0"/>
        <pt x="536" y="147" on="0"/>
        <pt x="536" y="112" on="1"/>
        <pt x="536" y="88" on="0"/>
        <pt x="530" y="54" on="0"/>
        <pt x="511" y="19" on="0"/>
        <pt x="468" y="0" on="0"/>
        <pt x="436" y="0" on="1"/>
        <pt x="295" y="0" on="1"/>
        <pt x="180" y="0" on="0"/>
        <pt x="72" y="71" on="0"/>
        <pt x="72" y="177" on="1"/>
        <pt x="72" y="459" on="1"/>
        <pt x="72" y="565" on="0"/>
        <pt x="180" y="636" on="0"/>
        <pt x="295" y="636" on="1"/>
      </contour>
    </TTGlyph>
    <TTGlyph name="Iecyrillic" xMin="84" yMin="0" xMax="548" yMax="636">
      <component glyphName="E" x="0" y="0" flags="0x1004"/>
    </TTGlyph>
    <TTGlyph name="Igrave" xMin="4" yMin="-7" xMax="136" yMax="819">
      <component glyphName="gravecomb" x="379" y="183" flags="0x1004"/>
      <component glyphName="I" x="0" y="0" flags="0x1204"/>
    </TTGlyph>
    <TTGlyph name="Iicyrillic" xMin="84" yMin="-7" xMax="548" yMax="643">
      <contour>
        <pt x="109" y="-7" on="1"/>
        <pt x="84" y="-7" on="0"/>
        <pt x="84" y="27" on="1"/>
        <pt x="84" y="608" on="1"/>
        <pt x="84" y="643" on="0"/>
        <pt x="111" y="643" on="1"/>
        <pt x="136" y="643" on="0"/>
        <pt x="136" y="607" on="1"/>
        <pt x="136" y="96" on="1"/>
        <pt x="494" y="624" on="1"/>
        <pt x="506" y="643" on="0"/>
        <pt x="524" y="643" on="1"/>
        <pt x="548" y="643" on="0"/>
        <pt x="548" y="608" on="1"/>
        <pt x="548" y="27" on="1"/>
        <pt x="548" y="-7" on="0"/>
        <pt x="496" y="-7" on="0"/>
        <pt x="496" y="26" on="1"/>
        <pt x="496" y="543" on="1"/>
        <pt x="129" y="0" on="1"/>
        <pt x="123" y="-7" on="0"/>
      </contour>
    </TTGlyph>
    <TTGlyph name="Iicyrillic_grave" xMin="84" yMin="-7" xMax="548" yMax="809">
      <component glyphName="grave" x="181" y="126" flags="0x1004"/>
      <component glyphName="Iicyrillic" x="0" y="0" flags="0x1204"/>
    </TTGlyph>
    <TTGlyph name="Iishortcyrillic" xMin="84" yMin="-7" xMax="548" yMax="775">
      <contour>
        <pt x="464" y="748" on="1"/>
        <pt x="464" y="683" on="0"/>
        <pt x="426" y="631" on="0"/>
        <pt x="373" y="631" on="1"/>
        <pt x="256" y="631" on="1"/>
        <pt x="203" y="631" on="0"/>
        <pt x="165" y="684" on="0"/>
        <pt x="165" y="748" on="1"/>
        <pt x="165" y="775" on="1"/>
        <pt x="217" y="775" on="1"/>
        <pt x="217" y="732" on="1"/>
        <pt x="217" y="703" on="0"/>
        <pt x="236" y="683" on="0"/>
        <pt x="264" y="683" on="1"/>
        <pt x="366" y="683" on="1"/>
        <pt x="394" y="683" on="0"/>
        <pt x="412" y="702" on="0"/>
        <pt x="412" y="732" on="1"/>
        <pt x="412" y="775" on="1"/>
        <pt x="464" y="775" on="1"/>
      </contour>
      <contour>
        <pt x="109" y="-7" on="1"/>
        <pt x="84" y="-7" on="0"/>
        <pt x="84" y="27" on="1"/>
        <pt x="84" y="608" on="1"/>
        <pt x="84" y="643" on="0"/>
        <pt x="111" y="643" on="1"/>
        <pt x="136" y="643" on="0"/>
        <pt x="136" y="607" on="1"/>
        <pt x="136" y="96" on="1"/>
        <pt x="494" y="624" on="1"/>
        <pt x="506" y="643" on="0"/>
        <pt x="524" y="643" on="1"/>
        <pt x="548" y="643" on="0"/>
        <pt x="548" y="608" on="1"/>
        <pt x="548" y="27" on="1"/>
        <pt x="548" y="-7" on="0"/>
        <pt x="496" y="-7" on="0"/>
        <pt x="496" y="26" on="1"/>
        <pt x="496" y="543" on="1"/>
        <pt x="129" y="0" on="1"/>
        <pt x="123" y="-7" on="0"/>
      </contour>
    </TTGlyph>
    <TTGlyph name="Imacron" xMin="-45" yMin="-7" xMax="265" yMax="759">
      <contour>
        <pt x="-45" y="733" on="1"/>
        <pt x="-45" y="759" on="0"/>
        <pt x="-14" y="759" on="1"/>
        <pt x="231" y="759" on="1"/>
        <pt x="265" y="759" on="0"/>
        <pt x="265" y="731" on="1"/>
        <pt x="265" y="720" on="0"/>
        <pt x="246" y="706" on="0"/>
        <pt x="231" y="706" on="1"/>
        <pt x="-14" y="706" on="1"/>
        <pt x="-45" y="706" on="0"/>
      </contour>
      <contour>
        <pt x="136" y="25" on="1"/>
        <pt x="136" y="-7" on="0"/>
        <pt x="109" y="-7" on="1"/>
        <pt x="84" y="-7" on="0"/>
        <pt x="84" y="25" on="1"/>
        <pt x="84" y="610" on="1"/>
        <pt x="84" y="643" on="0"/>
        <pt x="136" y="643" on="0"/>
        <pt x="136" y="610" on="1"/>
      </contour>
    </TTGlyph>
    <TTGlyph name="Iocyrillic" xMin="84" yMin="0" xMax="548" yMax="784">
      <component glyphName="Edieresis" x="0" y="0" flags="0x1004"/>
    </TTGlyph>
    <TTGlyph name="Iogonek" xMin="26" yMin="-195" xMax="201" yMax="643">
      <contour>
        <pt x="78" y="-91" on="1"/>
        <pt x="78" y="-145" on="0"/>
        <pt x="120" y="-145" on="1"/>
        <pt x="136" y="-145" on="0"/>
        <pt x="180" y="-128" on="0"/>
        <pt x="186" y="-128" on="1"/>
        <pt x="201" y="-128" on="0"/>
        <pt x="201" y="-145" on="1"/>
        <pt x="201" y="-171" on="0"/>
        <pt x="147" y="-195" on="0"/>
        <pt x="122" y="-195" on="1"/>
        <pt x="81" y="-195" on="0"/>
        <pt x="26" y="-137" on="0"/>
        <pt x="26" y="-91" on="1"/>
        <pt x="26" y="-47" on="0"/>
        <pt x="85" y="25" on="1"/>
        <pt x="85" y="610" on="1"/>
        <pt x="85" y="643" on="0"/>
        <pt x="137" y="643" on="0"/>
        <pt x="137" y="610" on="1"/>
        <pt x="137" y="25" on="1"/>
        <pt x="137" y="7" on="0"/>
        <pt x="126" y="-3" on="1"/>
        <pt x="106" y="-20" on="0"/>
        <pt x="78" y="-78" on="0"/>
      </contour>
    </TTGlyph>
    <TTGlyph name="Iota" xMin="84" yMin="-7" xMax="136" yMax="643">
      <component glyphName="I" x="0" y="0" flags="0x1004"/>
    </TTGlyph>
    <TTGlyph name="Iotadieresis" xMin="-13" yMin="-7" xMax="235" yMax="784">
      <contour>
        <pt x="136" y="25" on="1"/>
        <pt x="136" y="-7" on="0"/>
        <pt x="109" y="-7" on="1"/>
        <pt x="84" y="-7" on="0"/>
        <pt x="84" y="25" on="1"/>
        <pt x="84" y="610" on="1"/>
        <pt x="84" y="643" on="0"/>
        <pt x="136" y="643" on="0"/>
        <pt x="136" y="610" on="1"/>
      </contour>
      <contour>
        <pt x="38" y="784" on="1"/>
        <pt x="54" y="784" on="0"/>
        <pt x="89" y="760" on="0"/>
        <pt x="89" y="726" on="0"/>
        <pt x="54" y="702" on="0"/>
        <pt x="38" y="702" on="1"/>
        <pt x="21" y="702" on="0"/>
        <pt x="-13" y="726" on="0"/>
        <pt x="-13" y="760" on="0"/>
        <pt x="21" y="784" on="0"/>
      </contour>
      <contour>
        <pt x="184" y="784" on="1"/>
        <pt x="200" y="784" on="0"/>
        <pt x="235" y="760" on="0"/>
        <pt x="235" y="726" on="0"/>
        <pt x="200" y="702" on="0"/>
        <pt x="184" y="702" on="1"/>
        <pt x="167" y="702" on="0"/>
        <pt x="133" y="726" on="0"/>
        <pt x="133" y="760" on="0"/>
        <pt x="167" y="784" on="0"/>
      </contour>
    </TTGlyph>
    <TTGlyph name="Iotatonos" xMin="17" yMin="-7" xMax="185" yMax="750">
      <contour>
        <pt x="185" y="25" on="1"/>
        <pt x="185" y="-7" on="0"/>
        <pt x="158" y="-7" on="1"/>
        <pt x="133" y="-7" on="0"/>
        <pt x="133" y="25" on="1"/>
        <pt x="133" y="610" on="1"/>
        <pt x="133" y="643" on="0"/>
        <pt x="185" y="643" on="0"/>
        <pt x="185" y="610" on="1"/>
      </contour>
      <contour>
        <pt x="91" y="750" on="1"/>
        <pt x="116" y="750" on="0"/>
        <pt x="116" y="723" on="1"/>
        <pt x="116" y="716" on="0"/>
        <pt x="115" y="712" on="1"/>
        <pt x="70" y="555" on="1"/>
        <pt x="63" y="520" on="0"/>
        <pt x="45" y="520" on="1"/>
        <pt x="33" y="520" on="0"/>
        <pt x="17" y="540" on="0"/>
        <pt x="17" y="556" on="1"/>
        <pt x="17" y="562" on="0"/>
        <pt x="19" y="568" on="1"/>
        <pt x="63" y="725" on="1"/>
        <pt x="71" y="750" on="0"/>
      </contour>
    </TTGlyph>
    <TTGlyph name="Itilde" xMin="-31" yMin="-7" xMax="251" yMax="804">
      <contour>
        <pt x="164" y="763" on="1"/>
        <pt x="167" y="763" on="0"/>
        <pt x="172" y="767" on="1"/>
        <pt x="203" y="795" on="1"/>
        <pt x="216" y="804" on="0"/>
        <pt x="225" y="804" on="1"/>
        <pt x="235" y="804" on="0"/>
        <pt x="251" y="792" on="0"/>
        <pt x="251" y="781" on="1"/>
        <pt x="251" y="767" on="0"/>
        <pt x="237" y="754" on="1"/>
        <pt x="190" y="715" on="1"/>
        <pt x="182" y="707" on="0"/>
        <pt x="171" y="707" on="1"/>
        <pt x="169" y="707" on="0"/>
        <pt x="165" y="708" on="0"/>
        <pt x="162" y="708" on="0"/>
        <pt x="160" y="708" on="1"/>
        <pt x="159" y="709" on="1"/>
        <pt x="61" y="745" on="1"/>
        <pt x="59" y="747" on="0"/>
        <pt x="55" y="747" on="1"/>
        <pt x="52" y="747" on="0"/>
        <pt x="47" y="743" on="1"/>
        <pt x="16" y="715" on="1"/>
        <pt x="3" y="706" on="0"/>
        <pt x="-15" y="706" on="0"/>
        <pt x="-31" y="719" on="0"/>
        <pt x="-31" y="730" on="1"/>
        <pt x="-31" y="745" on="0"/>
        <pt x="-17" y="756" on="1"/>
        <pt x="29" y="794" on="1"/>
        <pt x="36" y="803" on="0"/>
        <pt x="48" y="803" on="1"/>
        <pt x="50" y="803" on="0"/>
        <pt x="60" y="801" on="0"/>
        <pt x="61" y="801" on="1"/>
        <pt x="159" y="765" on="1"/>
      </contour>
      <contour>
        <pt x="136" y="25" on="1"/>
        <pt x="136" y="-7" on="0"/>
        <pt x="109" y="-7" on="1"/>
        <pt x="84" y="-7" on="0"/>
        <pt x="84" y="25" on="1"/>
        <pt x="84" y="610" on="1"/>
        <pt x="84" y="643" on="0"/>
        <pt x="136" y="643" on="0"/>
        <pt x="136" y="610" on="1"/>
      </contour>
    </TTGlyph>
    <TTGlyph name="J" xMin="32" yMin="-8" xMax="469" yMax="643">
      <contour>
        <pt x="251" y="44" on="1"/>
        <pt x="346" y="44" on="0"/>
        <pt x="417" y="89" on="0"/>
        <pt x="417" y="170" on="1"/>
        <pt x="417" y="611" on="1"/>
        <pt x="417" y="643" on="0"/>
        <pt x="469" y="643" on="0"/>
        <pt x="469" y="610" on="1"/>
        <pt x="469" y="169" on="1"/>
        <pt x="469" y="113" on="0"/>
        <pt x="440" y="41" on="0"/>
        <pt x="379" y="5" on="0"/>
        <pt x="306" y="-8" on="0"/>
        <pt x="196" y="-8" on="0"/>
        <pt x="123" y="5" on="0"/>
        <pt x="61" y="42" on="0"/>
        <pt x="32" y="115" on="0"/>
        <pt x="32" y="172" on="1"/>
        <pt x="32" y="205" on="0"/>
        <pt x="60" y="205" on="1"/>
        <pt x="85" y="205" on="0"/>
        <pt x="85" y="172" on="1"/>
        <pt x="85" y="89" on="0"/>
        <pt x="155" y="44" on="0"/>
      </contour>
    </TTGlyph>
    <TTGlyph name="Jcircumflex" xMin="32" yMin="-8" xMax="570" yMax="820">
      <contour>
        <pt x="251" y="44" on="1"/>
        <pt x="346" y="44" on="0"/>
        <pt x="417" y="89" on="0"/>
        <pt x="417" y="170" on="1"/>
        <pt x="417" y="611" on="1"/>
        <pt x="417" y="643" on="0"/>
        <pt x="469" y="643" on="0"/>
        <pt x="469" y="610" on="1"/>
        <pt x="469" y="169" on="1"/>
        <pt x="469" y="113" on="0"/>
        <pt x="440" y="41" on="0"/>
        <pt x="379" y="5" on="0"/>
        <pt x="306" y="-8" on="0"/>
        <pt x="196" y="-8" on="0"/>
        <pt x="123" y="5" on="0"/>
        <pt x="61" y="42" on="0"/>
        <pt x="32" y="115" on="0"/>
        <pt x="32" y="172" on="1"/>
        <pt x="32" y="205" on="0"/>
        <pt x="60" y="205" on="1"/>
        <pt x="85" y="205" on="0"/>
        <pt x="85" y="172" on="1"/>
        <pt x="85" y="89" on="0"/>
        <pt x="155" y="44" on="0"/>
      </contour>
      <contour>
        <pt x="293" y="688" on="1"/>
        <pt x="398" y="820" on="1"/>
        <pt x="457" y="820" on="1"/>
        <pt x="564" y="688" on="1"/>
        <pt x="570" y="680" on="0"/>
        <pt x="570" y="670" on="1"/>
        <pt x="570" y="647" on="0"/>
        <pt x="547" y="647" on="1"/>
        <pt x="542" y="647" on="0"/>
        <pt x="533" y="651" on="0"/>
        <pt x="530" y="654" on="0"/>
        <pt x="520" y="666" on="0"/>
        <pt x="519" y="667" on="1"/>
        <pt x="428" y="763" on="1"/>
        <pt x="338" y="667" on="1"/>
        <pt x="336" y="665" on="0"/>
        <pt x="330" y="657" on="0"/>
        <pt x="326" y="654" on="0"/>
        <pt x="321" y="649" on="0"/>
        <pt x="314" y="647" on="0"/>
        <pt x="310" y="647" on="1"/>
        <pt x="287" y="647" on="0"/>
        <pt x="287" y="670" on="1"/>
        <pt x="287" y="680" on="0"/>
      </contour>
    </TTGlyph>
    <TTGlyph name="Jecyrillic" xMin="32" yMin="-8" xMax="469" yMax="643">
      <component glyphName="J" x="0" y="0" flags="0x1004"/>
    </TTGlyph>
    <TTGlyph name="K" xMin="84" yMin="-7" xMax="514" yMax="643">
      <contour>
        <pt x="514" y="28" on="0"/>
        <pt x="514" y="8" on="0"/>
        <pt x="496" y="-7" on="0"/>
        <pt x="488" y="-7" on="1"/>
        <pt x="475" y="-7" on="0"/>
        <pt x="463" y="8" on="1"/>
        <pt x="189" y="322" on="1"/>
        <pt x="136" y="258" on="1"/>
        <pt x="136" y="25" on="1"/>
        <pt x="136" y="-7" on="0"/>
        <pt x="109" y="-7" on="1"/>
        <pt x="84" y="-7" on="0"/>
        <pt x="84" y="25" on="1"/>
        <pt x="84" y="610" on="1"/>
        <pt x="84" y="643" on="0"/>
        <pt x="136" y="643" on="0"/>
        <pt x="136" y="610" on="1"/>
        <pt x="136" y="330" on="1"/>
        <pt x="397" y="628" on="1"/>
        <pt x="408" y="643" on="0"/>
        <pt x="422" y="643" on="1"/>
        <pt x="430" y="643" on="0"/>
        <pt x="447" y="629" on="0"/>
        <pt x="447" y="619" on="1"/>
        <pt x="447" y="608" on="0"/>
        <pt x="437" y="595" on="1"/>
        <pt x="224" y="356" on="1"/>
        <pt x="503" y="41" on="1"/>
      </contour>
    </TTGlyph>
    <TTGlyph name="Kacyrillic" xMin="84" yMin="-7" xMax="534" yMax="604">
      <contour>
        <pt x="226" y="270" on="1"/>
        <pt x="136" y="270" on="1"/>
        <pt x="136" y="24" on="1"/>
        <pt x="136" y="-7" on="0"/>
        <pt x="109" y="-7" on="1"/>
        <pt x="84" y="-7" on="0"/>
        <pt x="84" y="25" on="1"/>
        <pt x="84" y="570" on="1"/>
        <pt x="84" y="603" on="0"/>
        <pt x="136" y="603" on="0"/>
        <pt x="136" y="570" on="1"/>
        <pt x="136" y="322" on="1"/>
        <pt x="229" y="322" on="1"/>
        <pt x="249" y="322" on="0"/>
        <pt x="297" y="380" on="0"/>
        <pt x="346" y="463" on="0"/>
        <pt x="398" y="546" on="0"/>
        <pt x="465" y="604" on="0"/>
        <pt x="498" y="604" on="1"/>
        <pt x="534" y="604" on="0"/>
        <pt x="534" y="552" on="0"/>
        <pt x="498" y="552" on="1"/>
        <pt x="473" y="552" on="0"/>
        <pt x="420" y="490" on="0"/>
        <pt x="378" y="410" on="0"/>
        <pt x="318" y="317" on="0"/>
        <pt x="291" y="295" on="1"/>
        <pt x="327" y="265" on="0"/>
        <pt x="406" y="135" on="0"/>
        <pt x="469" y="45" on="0"/>
        <pt x="498" y="45" on="1"/>
        <pt x="534" y="45" on="0"/>
        <pt x="534" y="-7" on="0"/>
        <pt x="498" y="-7" on="1"/>
        <pt x="464" y="-7" on="0"/>
        <pt x="398" y="50" on="0"/>
        <pt x="346" y="132" on="0"/>
        <pt x="297" y="213" on="0"/>
        <pt x="248" y="270" on="0"/>
      </contour>
    </TTGlyph>
    <TTGlyph name="Kappa" xMin="84" yMin="-7" xMax="514" yMax="643">
      <component glyphName="K" x="0" y="0" flags="0x1004"/>
    </TTGlyph>
    <TTGlyph name="Kcommaaccent" xMin="84" yMin="-151" xMax="514" yMax="643">
      <contour>
        <pt x="345" y="-25" on="1"/>
        <pt x="345" y="-35" on="0"/>
        <pt x="340" y="-44" on="1"/>
        <pt x="299" y="-127" on="1"/>
        <pt x="289" y="-151" on="0"/>
        <pt x="274" y="-151" on="1"/>
        <pt x="252" y="-151" on="0"/>
        <pt x="252" y="-126" on="1"/>
        <pt x="252" y="-122" on="0"/>
        <pt x="255" y="-110" on="1"/>
        <pt x="279" y="-23" on="1"/>
        <pt x="286" y="0" on="0"/>
        <pt x="304" y="0" on="1"/>
        <pt x="315" y="0" on="0"/>
        <pt x="345" y="-12" on="0"/>
      </contour>
      <contour>
        <pt x="514" y="28" on="0"/>
        <pt x="514" y="8" on="0"/>
        <pt x="496" y="-7" on="0"/>
        <pt x="488" y="-7" on="1"/>
        <pt x="475" y="-7" on="0"/>
        <pt x="463" y="8" on="1"/>
        <pt x="189" y="322" on="1"/>
        <pt x="136" y="258" on="1"/>
        <pt x="136" y="25" on="1"/>
        <pt x="136" y="-7" on="0"/>
        <pt x="109" y="-7" on="1"/>
        <pt x="84" y="-7" on="0"/>
        <pt x="84" y="25" on="1"/>
        <pt x="84" y="610" on="1"/>
        <pt x="84" y="643" on="0"/>
        <pt x="136" y="643" on="0"/>
        <pt x="136" y="610" on="1"/>
        <pt x="136" y="330" on="1"/>
        <pt x="397" y="628" on="1"/>
        <pt x="408" y="643" on="0"/>
        <pt x="422" y="643" on="1"/>
        <pt x="430" y="643" on="0"/>
        <pt x="447" y="629" on="0"/>
        <pt x="447" y="619" on="1"/>
        <pt x="447" y="608" on="0"/>
        <pt x="437" y="595" on="1"/>
        <pt x="224" y="356" on="1"/>
        <pt x="503" y="41" on="1"/>
      </contour>
    </TTGlyph>
    <TTGlyph name="Khacyrillic" xMin="36" yMin="-7" xMax="523" yMax="643">
      <component glyphName="X" x="0" y="0" flags="0x1004"/>
    </TTGlyph>
    <TTGlyph name="Kjecyrillic" xMin="84" yMin="-7" xMax="534" yMax="767">
      <component glyphName="acute" x="204" y="84" flags="0x1004"/>
      <component glyphName="Kacyrillic" x="0" y="0" flags="0x1204"/>
    </TTGlyph>
    <TTGlyph name="L" xMin="84" yMin="0" xMax="492" yMax="643">
      <contour>
        <pt x="108" y="0" on="1"/>
        <pt x="84" y="0" on="0"/>
        <pt x="84" y="35" on="1"/>
        <pt x="84" y="611" on="1"/>
        <pt x="84" y="643" on="0"/>
        <pt x="136" y="643" on="0"/>
        <pt x="136" y="611" on="1"/>
        <pt x="136" y="52" on="1"/>
        <pt x="459" y="52" on="1"/>
        <pt x="492" y="52" on="0"/>
        <pt x="492" y="25" on="1"/>
        <pt x="492" y="0" on="0"/>
        <pt x="459" y="0" on="1"/>
      </contour>
    </TTGlyph>
    <TTGlyph name="Lacute" xMin="79" yMin="0" xMax="492" yMax="819">
      <contour>
        <pt x="108" y="0" on="1"/>
        <pt x="84" y="0" on="0"/>
        <pt x="84" y="35" on="1"/>
        <pt x="84" y="611" on="1"/>
        <pt x="84" y="643" on="0"/>
        <pt x="136" y="643" on="0"/>
        <pt x="136" y="611" on="1"/>
        <pt x="136" y="52" on="1"/>
        <pt x="459" y="52" on="1"/>
        <pt x="492" y="52" on="0"/>
        <pt x="492" y="25" on="1"/>
        <pt x="492" y="0" on="0"/>
        <pt x="459" y="0" on="1"/>
      </contour>
      <contour>
        <pt x="199" y="770" on="1"/>
        <pt x="129" y="701" on="1"/>
        <pt x="117" y="688" on="0"/>
        <pt x="105" y="688" on="1"/>
        <pt x="95" y="688" on="0"/>
        <pt x="79" y="703" on="0"/>
        <pt x="79" y="712" on="1"/>
        <pt x="79" y="723" on="0"/>
        <pt x="92" y="738" on="1"/>
        <pt x="161" y="806" on="1"/>
        <pt x="173" y="819" on="0"/>
        <pt x="186" y="819" on="1"/>
        <pt x="197" y="819" on="0"/>
        <pt x="211" y="802" on="0"/>
        <pt x="211" y="794" on="1"/>
        <pt x="211" y="784" on="0"/>
      </contour>
    </TTGlyph>
    <TTGlyph name="Lambda" xMin="24" yMin="-16" xMax="546" yMax="636">
      <contour>
        <pt x="50" y="-16" on="1"/>
        <pt x="45" y="-16" on="0"/>
        <pt x="35" y="-13" on="0"/>
        <pt x="24" y="-3" on="0"/>
        <pt x="24" y="4" on="1"/>
        <pt x="24" y="12" on="0"/>
        <pt x="27" y="22" on="1"/>
        <pt x="258" y="636" on="1"/>
        <pt x="312" y="636" on="1"/>
        <pt x="543" y="22" on="1"/>
        <pt x="546" y="12" on="0"/>
        <pt x="546" y="4" on="1"/>
        <pt x="546" y="-3" on="0"/>
        <pt x="535" y="-13" on="0"/>
        <pt x="525" y="-16" on="0"/>
        <pt x="520" y="-16" on="1"/>
        <pt x="503" y="-16" on="0"/>
        <pt x="493" y="4" on="1"/>
        <pt x="284" y="559" on="1"/>
        <pt x="77" y="4" on="1"/>
        <pt x="69" y="-16" on="0"/>
      </contour>
    </TTGlyph>
    <TTGlyph name="Lcaron" xMin="84" yMin="0" xMax="492" yMax="650">
      <contour>
        <pt x="108" y="0" on="1"/>
        <pt x="84" y="0" on="0"/>
        <pt x="84" y="35" on="1"/>
        <pt x="84" y="611" on="1"/>
        <pt x="84" y="643" on="0"/>
        <pt x="136" y="643" on="0"/>
        <pt x="136" y="611" on="1"/>
        <pt x="136" y="52" on="1"/>
        <pt x="459" y="52" on="1"/>
        <pt x="492" y="52" on="0"/>
        <pt x="492" y="25" on="1"/>
        <pt x="492" y="0" on="0"/>
        <pt x="459" y="0" on="1"/>
      </contour>
      <contour>
        <pt x="277" y="625" on="1"/>
        <pt x="277" y="615" on="0"/>
        <pt x="272" y="606" on="1"/>
        <pt x="231" y="523" on="1"/>
        <pt x="221" y="499" on="0"/>
        <pt x="206" y="499" on="1"/>
        <pt x="184" y="499" on="0"/>
        <pt x="184" y="524" on="1"/>
        <pt x="184" y="528" on="0"/>
        <pt x="187" y="540" on="1"/>
        <pt x="211" y="627" on="1"/>
        <pt x="218" y="650" on="0"/>
        <pt x="236" y="650" on="1"/>
        <pt x="247" y="650" on="0"/>
        <pt x="277" y="638" on="0"/>
      </contour>
    </TTGlyph>
    <TTGlyph name="Lcommaaccent" xMin="84" yMin="-205" xMax="492" yMax="643">
      <contour>
        <pt x="330" y="-79" on="1"/>
        <pt x="330" y="-89" on="0"/>
        <pt x="325" y="-98" on="1"/>
        <pt x="284" y="-181" on="1"/>
        <pt x="274" y="-205" on="0"/>
        <pt x="259" y="-205" on="1"/>
        <pt x="237" y="-205" on="0"/>
        <pt x="237" y="-180" on="1"/>
        <pt x="237" y="-176" on="0"/>
        <pt x="240" y="-164" on="1"/>
        <pt x="264" y="-77" on="1"/>
        <pt x="271" y="-54" on="0"/>
        <pt x="289" y="-54" on="1"/>
        <pt x="300" y="-54" on="0"/>
        <pt x="330" y="-66" on="0"/>
      </contour>
      <contour>
        <pt x="108" y="0" on="1"/>
        <pt x="84" y="0" on="0"/>
        <pt x="84" y="35" on="1"/>
        <pt x="84" y="611" on="1"/>
        <pt x="84" y="643" on="0"/>
        <pt x="136" y="643" on="0"/>
        <pt x="136" y="611" on="1"/>
        <pt x="136" y="52" on="1"/>
        <pt x="459" y="52" on="1"/>
        <pt x="492" y="52" on="0"/>
        <pt x="492" y="25" on="1"/>
        <pt x="492" y="0" on="0"/>
        <pt x="459" y="0" on="1"/>
      </contour>
    </TTGlyph>
    <TTGlyph name="Ljecyrillic" xMin="21" yMin="-7" xMax="847" yMax="636">
      <contour>
        <pt x="489" y="354" on="1"/>
        <pt x="489" y="45" on="1"/>
        <pt x="632" y="45" on="1"/>
        <pt x="713" y="45" on="0"/>
        <pt x="795" y="129" on="0"/>
        <pt x="795" y="200" on="1"/>
        <pt x="795" y="269" on="0"/>
        <pt x="712" y="354" on="0"/>
        <pt x="631" y="354" on="1"/>
      </contour>
      <contour>
        <pt x="489" y="406" on="1"/>
        <pt x="631" y="406" on="1"/>
        <pt x="729" y="406" on="0"/>
        <pt x="847" y="293" on="0"/>
        <pt x="847" y="107" on="0"/>
        <pt x="730" y="-7" on="0"/>
        <pt x="632" y="-7" on="1"/>
        <pt x="464" y="-7" on="1"/>
        <pt x="437" y="-7" on="0"/>
        <pt x="437" y="28" on="1"/>
        <pt x="437" y="584" on="1"/>
        <pt x="229" y="584" on="1"/>
        <pt x="193" y="584" on="0"/>
        <pt x="164" y="556" on="0"/>
        <pt x="164" y="525" on="1"/>
        <pt x="164" y="127" on="1"/>
        <pt x="164" y="48" on="0"/>
        <pt x="110" y="0" on="0"/>
        <pt x="57" y="0" on="1"/>
        <pt x="21" y="0" on="0"/>
        <pt x="21" y="27" on="1"/>
        <pt x="21" y="51" on="0"/>
        <pt x="57" y="51" on="1"/>
        <pt x="89" y="51" on="0"/>
        <pt x="112" y="77" on="0"/>
        <pt x="112" y="109" on="1"/>
        <pt x="112" y="509" on="1"/>
        <pt x="112" y="579" on="0"/>
        <pt x="157" y="636" on="0"/>
        <pt x="222" y="636" on="1"/>
        <pt x="489" y="636" on="1"/>
      </contour>
    </TTGlyph>
    <TTGlyph name="Lslash" xMin="-1" yMin="0" xMax="501" yMax="643">
      <contour>
        <pt x="117" y="0" on="1"/>
        <pt x="93" y="0" on="0"/>
        <pt x="93" y="35" on="1"/>
        <pt x="93" y="307" on="1"/>
        <pt x="40" y="281" on="1"/>
        <pt x="32" y="278" on="0"/>
        <pt x="25" y="278" on="1"/>
        <pt x="11" y="278" on="0"/>
        <pt x="-1" y="296" on="0"/>
        <pt x="-1" y="306" on="1"/>
        <pt x="-1" y="319" on="0"/>
        <pt x="21" y="330" on="1"/>
        <pt x="93" y="366" on="1"/>
        <pt x="93" y="611" on="1"/>
        <pt x="93" y="643" on="0"/>
        <pt x="145" y="643" on="0"/>
        <pt x="145" y="611" on="1"/>
        <pt x="145" y="392" on="1"/>
        <pt x="191" y="415" on="1"/>
        <pt x="206" y="418" on="0"/>
        <pt x="208" y="418" on="1"/>
        <pt x="220" y="418" on="0"/>
        <pt x="235" y="403" on="0"/>
        <pt x="235" y="392" on="1"/>
        <pt x="235" y="378" on="0"/>
        <pt x="210" y="365" on="1"/>
        <pt x="145" y="333" on="1"/>
        <pt x="145" y="52" on="1"/>
        <pt x="468" y="52" on="1"/>
        <pt x="501" y="52" on="0"/>
        <pt x="501" y="25" on="1"/>
        <pt x="501" y="0" on="0"/>
        <pt x="468" y="0" on="1"/>
      </contour>
    </TTGlyph>
    <TTGlyph name="M" xMin="84" yMin="-7" xMax="569" yMax="643">
      <contour>
        <pt x="326" y="279" on="1"/>
        <pt x="315" y="279" on="0"/>
        <pt x="309" y="287" on="1"/>
        <pt x="136" y="545" on="1"/>
        <pt x="136" y="28" on="1"/>
        <pt x="136" y="-7" on="0"/>
        <pt x="84" y="-7" on="0"/>
        <pt x="84" y="27" on="1"/>
        <pt x="84" y="608" on="1"/>
        <pt x="84" y="643" on="0"/>
        <pt x="108" y="643" on="1"/>
        <pt x="126" y="643" on="0"/>
        <pt x="138" y="624" on="1"/>
        <pt x="326" y="346" on="1"/>
        <pt x="515" y="624" on="1"/>
        <pt x="528" y="643" on="0"/>
        <pt x="544" y="643" on="1"/>
        <pt x="569" y="643" on="0"/>
        <pt x="569" y="608" on="1"/>
        <pt x="569" y="27" on="1"/>
        <pt x="569" y="-7" on="0"/>
        <pt x="542" y="-7" on="1"/>
        <pt x="517" y="-7" on="0"/>
        <pt x="517" y="28" on="1"/>
        <pt x="517" y="545" on="1"/>
        <pt x="344" y="287" on="1"/>
        <pt x="338" y="279" on="0"/>
      </contour>
    </TTGlyph>
    <TTGlyph name="Mu" xMin="84" yMin="-7" xMax="569" yMax="643">
      <component glyphName="M" x="0" y="0" flags="0x1004"/>
    </TTGlyph>
    <TTGlyph name="N" xMin="84" yMin="-7" xMax="548" yMax="643">
      <contour>
        <pt x="523" y="-7" on="1"/>
        <pt x="509" y="-7" on="0"/>
        <pt x="503" y="0" on="1"/>
        <pt x="136" y="543" on="1"/>
        <pt x="136" y="26" on="1"/>
        <pt x="136" y="-7" on="0"/>
        <pt x="84" y="-7" on="0"/>
        <pt x="84" y="27" on="1"/>
        <pt x="84" y="608" on="1"/>
        <pt x="84" y="643" on="0"/>
        <pt x="108" y="643" on="1"/>
        <pt x="126" y="643" on="0"/>
        <pt x="138" y="624" on="1"/>
        <pt x="496" y="96" on="1"/>
        <pt x="496" y="607" on="1"/>
        <pt x="496" y="643" on="0"/>
        <pt x="521" y="643" on="1"/>
        <pt x="548" y="643" on="0"/>
        <pt x="548" y="608" on="1"/>
        <pt x="548" y="27" on="1"/>
        <pt x="548" y="-7" on="0"/>
      </contour>
    </TTGlyph>
    <TTGlyph name="Nacute" xMin="84" yMin="-7" xMax="548" yMax="809">
      <contour>
        <pt x="523" y="-7" on="1"/>
        <pt x="509" y="-7" on="0"/>
        <pt x="503" y="0" on="1"/>
        <pt x="136" y="543" on="1"/>
        <pt x="136" y="26" on="1"/>
        <pt x="136" y="-7" on="0"/>
        <pt x="84" y="-7" on="0"/>
        <pt x="84" y="27" on="1"/>
        <pt x="84" y="608" on="1"/>
        <pt x="84" y="643" on="0"/>
        <pt x="108" y="643" on="1"/>
        <pt x="126" y="643" on="0"/>
        <pt x="138" y="624" on="1"/>
        <pt x="496" y="96" on="1"/>
        <pt x="496" y="607" on="1"/>
        <pt x="496" y="643" on="0"/>
        <pt x="521" y="643" on="1"/>
        <pt x="548" y="643" on="0"/>
        <pt x="548" y="608" on="1"/>
        <pt x="548" y="27" on="1"/>
        <pt x="548" y="-7" on="0"/>
      </contour>
      <contour>
        <pt x="397" y="761" on="1"/>
        <pt x="301" y="646" on="1"/>
        <pt x="288" y="631" on="0"/>
        <pt x="276" y="631" on="1"/>
        <pt x="268" y="631" on="0"/>
        <pt x="251" y="646" on="0"/>
        <pt x="251" y="656" on="1"/>
        <pt x="251" y="668" on="0"/>
        <pt x="260" y="679" on="1"/>
        <pt x="356" y="794" on="1"/>
        <pt x="370" y="809" on="0"/>
        <pt x="381" y="809" on="1"/>
        <pt x="390" y="809" on="0"/>
        <pt x="406" y="794" on="0"/>
        <pt x="406" y="772" on="0"/>
      </contour>
    </TTGlyph>
    <TTGlyph name="Ncaron" xMin="84" yMin="-7" xMax="548" yMax="792">
      <contour>
        <pt x="523" y="-7" on="1"/>
        <pt x="509" y="-7" on="0"/>
        <pt x="503" y="0" on="1"/>
        <pt x="136" y="543" on="1"/>
        <pt x="136" y="26" on="1"/>
        <pt x="136" y="-7" on="0"/>
        <pt x="84" y="-7" on="0"/>
        <pt x="84" y="27" on="1"/>
        <pt x="84" y="608" on="1"/>
        <pt x="84" y="643" on="0"/>
        <pt x="108" y="643" on="1"/>
        <pt x="126" y="643" on="0"/>
        <pt x="138" y="624" on="1"/>
        <pt x="496" y="96" on="1"/>
        <pt x="496" y="607" on="1"/>
        <pt x="496" y="643" on="0"/>
        <pt x="521" y="643" on="1"/>
        <pt x="548" y="643" on="0"/>
        <pt x="548" y="608" on="1"/>
        <pt x="548" y="27" on="1"/>
        <pt x="548" y="-7" on="0"/>
      </contour>
      <contour>
        <pt x="337" y="648" on="1"/>
        <pt x="281" y="648" on="1"/>
        <pt x="177" y="757" on="1"/>
        <pt x="170" y="764" on="0"/>
        <pt x="170" y="772" on="1"/>
        <pt x="170" y="792" on="0"/>
        <pt x="193" y="792" on="1"/>
        <pt x="205" y="792" on="0"/>
        <pt x="225" y="775" on="1"/>
        <pt x="309" y="705" on="1"/>
        <pt x="393" y="775" on="1"/>
        <pt x="413" y="792" on="0"/>
        <pt x="425" y="792" on="1"/>
        <pt x="448" y="792" on="0"/>
        <pt x="448" y="772" on="1"/>
        <pt x="448" y="764" on="0"/>
        <pt x="441" y="757" on="1"/>
      </contour>
    </TTGlyph>
    <TTGlyph name="Ncommaaccent" xMin="84" yMin="-151" xMax="548" yMax="643">
      <contour>
        <pt x="363" y="-25" on="1"/>
        <pt x="363" y="-35" on="0"/>
        <pt x="358" y="-44" on="1"/>
        <pt x="317" y="-127" on="1"/>
        <pt x="307" y="-151" on="0"/>
        <pt x="292" y="-151" on="1"/>
        <pt x="270" y="-151" on="0"/>
        <pt x="270" y="-126" on="1"/>
        <pt x="270" y="-122" on="0"/>
        <pt x="273" y="-110" on="1"/>
        <pt x="297" y="-23" on="1"/>
        <pt x="304" y="0" on="0"/>
        <pt x="322" y="0" on="1"/>
        <pt x="333" y="0" on="0"/>
        <pt x="363" y="-12" on="0"/>
      </contour>
      <contour>
        <pt x="523" y="-7" on="1"/>
        <pt x="509" y="-7" on="0"/>
        <pt x="503" y="0" on="1"/>
        <pt x="136" y="543" on="1"/>
        <pt x="136" y="26" on="1"/>
        <pt x="136" y="-7" on="0"/>
        <pt x="84" y="-7" on="0"/>
        <pt x="84" y="27" on="1"/>
        <pt x="84" y="608" on="1"/>
        <pt x="84" y="643" on="0"/>
        <pt x="108" y="643" on="1"/>
        <pt x="126" y="643" on="0"/>
        <pt x="138" y="624" on="1"/>
        <pt x="496" y="96" on="1"/>
        <pt x="496" y="607" on="1"/>
        <pt x="496" y="643" on="0"/>
        <pt x="521" y="643" on="1"/>
        <pt x="548" y="643" on="0"/>
        <pt x="548" y="608" on="1"/>
        <pt x="548" y="27" on="1"/>
        <pt x="548" y="-7" on="0"/>
      </contour>
    </TTGlyph>
    <TTGlyph name="Njecyrillic" xMin="84" yMin="-7" xMax="896" yMax="643">
      <contour>
        <pt x="543" y="354" on="1"/>
        <pt x="543" y="45" on="1"/>
        <pt x="682" y="45" on="1"/>
        <pt x="762" y="45" on="0"/>
        <pt x="844" y="129" on="0"/>
        <pt x="844" y="200" on="1"/>
        <pt x="844" y="269" on="0"/>
        <pt x="762" y="354" on="0"/>
        <pt x="682" y="354" on="1"/>
      </contour>
      <contour>
        <pt x="543" y="406" on="1"/>
        <pt x="682" y="406" on="1"/>
        <pt x="779" y="406" on="0"/>
        <pt x="896" y="292" on="0"/>
        <pt x="896" y="200" on="1"/>
        <pt x="896" y="107" on="0"/>
        <pt x="779" y="-7" on="0"/>
        <pt x="682" y="-7" on="1"/>
        <pt x="517" y="-7" on="1"/>
        <pt x="491" y="-7" on="0"/>
        <pt x="491" y="29" on="1"/>
        <pt x="491" y="354" on="1"/>
        <pt x="136" y="354" on="1"/>
        <pt x="136" y="28" on="1"/>
        <pt x="136" y="-7" on="0"/>
        <pt x="84" y="-7" on="0"/>
        <pt x="84" y="27" on="1"/>
        <pt x="84" y="608" on="1"/>
        <pt x="84" y="643" on="0"/>
        <pt x="108" y="643" on="1"/>
        <pt x="136" y="643" on="0"/>
        <pt x="136" y="608" on="1"/>
        <pt x="136" y="406" on="1"/>
        <pt x="491" y="406" on="1"/>
        <pt x="491" y="608" on="1"/>
        <pt x="491" y="643" on="0"/>
        <pt x="516" y="643" on="1"/>
        <pt x="543" y="643" on="0"/>
        <pt x="543" y="608" on="1"/>
      </contour>
    </TTGlyph>
    <TTGlyph name="Ntilde" xMin="84" yMin="-7" xMax="548" yMax="799">
      <component glyphName="tildecomb" x="599" y="212" flags="0x1004"/>
      <component glyphName="N" x="0" y="0" flags="0x1204"/>
    </TTGlyph>
    <TTGlyph name="Nu" xMin="84" yMin="-7" xMax="548" yMax="643">
      <contour>
        <pt x="523" y="-7" on="1"/>
        <pt x="509" y="-7" on="0"/>
        <pt x="503" y="0" on="1"/>
        <pt x="136" y="543" on="1"/>
        <pt x="136" y="26" on="1"/>
        <pt x="136" y="-7" on="0"/>
        <pt x="84" y="-7" on="0"/>
        <pt x="84" y="27" on="1"/>
        <pt x="84" y="608" on="1"/>
        <pt x="84" y="643" on="0"/>
        <pt x="108" y="643" on="1"/>
        <pt x="126" y="643" on="0"/>
        <pt x="138" y="624" on="1"/>
        <pt x="496" y="96" on="1"/>
        <pt x="496" y="607" on="1"/>
        <pt x="496" y="643" on="0"/>
        <pt x="521" y="643" on="1"/>
        <pt x="548" y="643" on="0"/>
        <pt x="548" y="608" on="1"/>
        <pt x="548" y="27" on="1"/>
        <pt x="548" y="-7" on="0"/>
      </contour>
    </TTGlyph>
    <TTGlyph name="O" xMin="65" yMin="-9" xMax="529" yMax="645">
      <contour>
        <pt x="399" y="-9" on="0"/>
        <pt x="195" y="-9" on="0"/>
        <pt x="65" y="117" on="0"/>
        <pt x="65" y="228" on="1"/>
        <pt x="65" y="408" on="1"/>
        <pt x="65" y="519" on="0"/>
        <pt x="195" y="645" on="0"/>
        <pt x="399" y="645" on="0"/>
        <pt x="529" y="518" on="0"/>
        <pt x="529" y="408" on="1"/>
        <pt x="529" y="228" on="1"/>
        <pt x="529" y="118" on="0"/>
      </contour>
      <contour>
        <pt x="383" y="593" on="0"/>
        <pt x="211" y="593" on="0"/>
        <pt x="117" y="495" on="0"/>
        <pt x="117" y="407" on="1"/>
        <pt x="117" y="229" on="1"/>
        <pt x="117" y="141" on="0"/>
        <pt x="211" y="43" on="0"/>
        <pt x="383" y="43" on="0"/>
        <pt x="477" y="141" on="0"/>
        <pt x="477" y="229" on="1"/>
        <pt x="477" y="407" on="1"/>
        <pt x="477" y="495" on="0"/>
      </contour>
    </TTGlyph>
    <TTGlyph name="O.sc" xMin="63" yMin="-9" xMax="527" yMax="561">
      <contour>
        <pt x="397" y="-9" on="0"/>
        <pt x="193" y="-9" on="0"/>
        <pt x="63" y="117" on="0"/>
        <pt x="63" y="228" on="1"/>
        <pt x="63" y="324" on="1"/>
        <pt x="63" y="435" on="0"/>
        <pt x="193" y="561" on="0"/>
        <pt x="397" y="561" on="0"/>
        <pt x="527" y="434" on="0"/>
        <pt x="527" y="324" on="1"/>
        <pt x="527" y="228" on="1"/>
        <pt x="527" y="118" on="0"/>
      </contour>
      <contour>
        <pt x="381" y="509" on="0"/>
        <pt x="209" y="509" on="0"/>
        <pt x="115" y="411" on="0"/>
        <pt x="115" y="323" on="1"/>
        <pt x="115" y="229" on="1"/>
        <pt x="115" y="141" on="0"/>
        <pt x="209" y="43" on="0"/>
        <pt x="381" y="43" on="0"/>
        <pt x="475" y="141" on="0"/>
        <pt x="475" y="229" on="1"/>
        <pt x="475" y="323" on="1"/>
        <pt x="475" y="411" on="0"/>
      </contour>
    </TTGlyph>
    <TTGlyph name="OE" xMin="64" yMin="-9" xMax="682" yMax="645">
      <contour>
        <pt x="382" y="620" on="1"/>
        <pt x="386" y="636" on="0"/>
        <pt x="404" y="636" on="1"/>
        <pt x="647" y="636" on="1"/>
        <pt x="682" y="636" on="0"/>
        <pt x="682" y="612" on="1"/>
        <pt x="682" y="585" on="0"/>
        <pt x="647" y="585" on="1"/>
        <pt x="433" y="585" on="1"/>
        <pt x="433" y="384" on="1"/>
        <pt x="528" y="384" on="1"/>
        <pt x="564" y="384" on="0"/>
        <pt x="564" y="356" on="1"/>
        <pt x="564" y="332" on="0"/>
        <pt x="528" y="332" on="1"/>
        <pt x="433" y="332" on="1"/>
        <pt x="433" y="52" on="1"/>
        <pt x="647" y="52" on="1"/>
        <pt x="682" y="52" on="0"/>
        <pt x="682" y="24" on="1"/>
        <pt x="682" y="0" on="0"/>
        <pt x="647" y="0" on="1"/>
        <pt x="408" y="0" on="1"/>
        <pt x="388" y="0" on="0"/>
        <pt x="384" y="15" on="1"/>
        <pt x="338" y="-9" on="0"/>
        <pt x="276" y="-9" on="1"/>
        <pt x="199" y="-9" on="0"/>
        <pt x="64" y="122" on="0"/>
        <pt x="64" y="228" on="1"/>
        <pt x="64" y="408" on="1"/>
        <pt x="64" y="514" on="0"/>
        <pt x="198" y="645" on="0"/>
        <pt x="274" y="645" on="1"/>
        <pt x="336" y="645" on="0"/>
      </contour>
      <contour>
        <pt x="276" y="43" on="1"/>
        <pt x="344" y="43" on="0"/>
        <pt x="381" y="76" on="1"/>
        <pt x="381" y="560" on="1"/>
        <pt x="345" y="593" on="0"/>
        <pt x="274" y="593" on="1"/>
        <pt x="214" y="593" on="0"/>
        <pt x="115" y="490" on="0"/>
        <pt x="115" y="407" on="1"/>
        <pt x="115" y="229" on="1"/>
        <pt x="115" y="146" on="0"/>
        <pt x="215" y="43" on="0"/>
      </contour>
    </TTGlyph>
    <TTGlyph name="Oacute" xMin="65" yMin="-9" xMax="529" yMax="819">
      <component glyphName="acutecomb" x="646" y="183" flags="0x1004"/>
      <component glyphName="O" x="0" y="0" flags="0x1204"/>
    </TTGlyph>
    <TTGlyph name="Ocircumflex" xMin="65" yMin="-9" xMax="529" yMax="819">
      <component glyphName="uni0302" x="599" y="141" flags="0x1004"/>
      <component glyphName="O" x="0" y="0" flags="0x1204"/>
    </TTGlyph>
    <TTGlyph name="Ocyrillic" xMin="65" yMin="-9" xMax="529" yMax="645">
      <component glyphName="O" x="0" y="0" flags="0x1004"/>
    </TTGlyph>
    <TTGlyph name="Odieresis" xMin="65" yMin="-9" xMax="529" yMax="784">
      <component glyphName="dieresis" x="114" y="113" flags="0x1004"/>
      <component glyphName="O" x="0" y="0" flags="0x1204"/>
    </TTGlyph>
    <TTGlyph name="Ograve" xMin="65" yMin="-9" xMax="529" yMax="819">
      <component glyphName="gravecomb" x="565" y="183" flags="0x1004"/>
      <component glyphName="O" x="0" y="0" flags="0x1204"/>
    </TTGlyph>
    <TTGlyph name="Ohorn" xMin="65" yMin="-9" xMax="638" yMax="686">
      <contour>
        <pt x="383" y="593" on="0"/>
        <pt x="211" y="593" on="0"/>
        <pt x="117" y="495" on="0"/>
        <pt x="117" y="407" on="1"/>
        <pt x="117" y="229" on="1"/>
        <pt x="117" y="141" on="0"/>
        <pt x="211" y="43" on="0"/>
        <pt x="383" y="43" on="0"/>
        <pt x="477" y="141" on="0"/>
        <pt x="477" y="229" on="1"/>
        <pt x="477" y="407" on="1"/>
        <pt x="477" y="495" on="0"/>
      </contour>
      <contour>
        <pt x="399" y="-9" on="0"/>
        <pt x="195" y="-9" on="0"/>
        <pt x="65" y="117" on="0"/>
        <pt x="65" y="228" on="1"/>
        <pt x="65" y="408" on="1"/>
        <pt x="65" y="519" on="0"/>
        <pt x="195" y="645" on="0"/>
        <pt x="297" y="645" on="1"/>
        <pt x="425" y="645" on="0"/>
        <pt x="489" y="552" on="1"/>
        <pt x="540" y="552" on="0"/>
        <pt x="584" y="573" on="0"/>
        <pt x="584" y="600" on="1"/>
        <pt x="584" y="617" on="0"/>
        <pt x="561" y="635" on="1"/>
        <pt x="546" y="646" on="0"/>
        <pt x="546" y="661" on="1"/>
        <pt x="546" y="672" on="0"/>
        <pt x="563" y="686" on="0"/>
        <pt x="571" y="686" on="1"/>
        <pt x="583" y="686" on="0"/>
        <pt x="594" y="675" on="1"/>
        <pt x="638" y="638" on="0"/>
        <pt x="638" y="596" on="1"/>
        <pt x="638" y="511" on="0"/>
        <pt x="514" y="502" on="1"/>
        <pt x="529" y="460" on="0"/>
        <pt x="529" y="408" on="1"/>
        <pt x="529" y="228" on="1"/>
        <pt x="529" y="118" on="0"/>
      </contour>
    </TTGlyph>
    <TTGlyph name="Ohungarumlaut" xMin="65" yMin="-9" xMax="529" yMax="819">
      <contour>
        <pt x="399" y="-9" on="0"/>
        <pt x="195" y="-9" on="0"/>
        <pt x="65" y="117" on="0"/>
        <pt x="65" y="228" on="1"/>
        <pt x="65" y="408" on="1"/>
        <pt x="65" y="519" on="0"/>
        <pt x="195" y="645" on="0"/>
        <pt x="399" y="645" on="0"/>
        <pt x="529" y="518" on="0"/>
        <pt x="529" y="408" on="1"/>
        <pt x="529" y="228" on="1"/>
        <pt x="529" y="118" on="0"/>
      </contour>
      <contour>
        <pt x="383" y="593" on="0"/>
        <pt x="211" y="593" on="0"/>
        <pt x="117" y="495" on="0"/>
        <pt x="117" y="407" on="1"/>
        <pt x="117" y="229" on="1"/>
        <pt x="117" y="141" on="0"/>
        <pt x="211" y="43" on="0"/>
        <pt x="383" y="43" on="0"/>
        <pt x="477" y="141" on="0"/>
        <pt x="477" y="229" on="1"/>
        <pt x="477" y="407" on="1"/>
        <pt x="477" y="495" on="0"/>
      </contour>
      <contour>
        <pt x="338" y="770" on="1"/>
        <pt x="268" y="701" on="1"/>
        <pt x="256" y="688" on="0"/>
        <pt x="244" y="688" on="1"/>
        <pt x="234" y="688" on="0"/>
        <pt x="218" y="703" on="0"/>
        <pt x="218" y="712" on="1"/>
        <pt x="218" y="723" on="0"/>
        <pt x="231" y="738" on="1"/>
        <pt x="300" y="806" on="1"/>
        <pt x="312" y="819" on="0"/>
        <pt x="325" y="819" on="1"/>
        <pt x="336" y="819" on="0"/>
        <pt x="350" y="802" on="0"/>
        <pt x="350" y="794" on="1"/>
        <pt x="350" y="784" on="0"/>
      </contour>
      <contour>
        <pt x="438" y="770" on="1"/>
        <pt x="368" y="701" on="1"/>
        <pt x="356" y="688" on="0"/>
        <pt x="344" y="688" on="1"/>
        <pt x="334" y="688" on="0"/>
        <pt x="318" y="703" on="0"/>
        <pt x="318" y="712" on="1"/>
        <pt x="318" y="723" on="0"/>
        <pt x="331" y="738" on="1"/>
        <pt x="400" y="806" on="1"/>
        <pt x="412" y="819" on="0"/>
        <pt x="425" y="819" on="1"/>
        <pt x="436" y="819" on="0"/>
        <pt x="450" y="802" on="0"/>
        <pt x="450" y="794" on="1"/>
        <pt x="450" y="784" on="0"/>
      </contour>
    </TTGlyph>
    <TTGlyph name="Omacron" xMin="65" yMin="-9" xMax="529" yMax="759">
      <contour>
        <pt x="142" y="733" on="1"/>
        <pt x="142" y="759" on="0"/>
        <pt x="173" y="759" on="1"/>
        <pt x="418" y="759" on="1"/>
        <pt x="452" y="759" on="0"/>
        <pt x="452" y="731" on="1"/>
        <pt x="452" y="720" on="0"/>
        <pt x="433" y="706" on="0"/>
        <pt x="418" y="706" on="1"/>
        <pt x="173" y="706" on="1"/>
        <pt x="142" y="706" on="0"/>
      </contour>
      <contour>
        <pt x="399" y="-9" on="0"/>
        <pt x="195" y="-9" on="0"/>
        <pt x="65" y="117" on="0"/>
        <pt x="65" y="228" on="1"/>
        <pt x="65" y="408" on="1"/>
        <pt x="65" y="519" on="0"/>
        <pt x="195" y="645" on="0"/>
        <pt x="399" y="645" on="0"/>
        <pt x="529" y="518" on="0"/>
        <pt x="529" y="408" on="1"/>
        <pt x="529" y="228" on="1"/>
        <pt x="529" y="118" on="0"/>
      </contour>
      <contour>
        <pt x="383" y="593" on="0"/>
        <pt x="211" y="593" on="0"/>
        <pt x="117" y="495" on="0"/>
        <pt x="117" y="407" on="1"/>
        <pt x="117" y="229" on="1"/>
        <pt x="117" y="141" on="0"/>
        <pt x="211" y="43" on="0"/>
        <pt x="383" y="43" on="0"/>
        <pt x="477" y="141" on="0"/>
        <pt x="477" y="229" on="1"/>
        <pt x="477" y="407" on="1"/>
        <pt x="477" y="495" on="0"/>
      </contour>
    </TTGlyph>
    <TTGlyph name="Omega" xMin="64" yMin="0" xMax="528" yMax="645">
      <contour>
        <pt x="116" y="326" on="1"/>
        <pt x="116" y="178" on="0"/>
        <pt x="249" y="144" on="1"/>
        <pt x="249" y="99" on="1"/>
        <pt x="249" y="30" on="0"/>
        <pt x="218" y="0" on="0"/>
        <pt x="156" y="0" on="1"/>
        <pt x="99" y="0" on="1"/>
        <pt x="64" y="0" on="0"/>
        <pt x="64" y="52" on="0"/>
        <pt x="99" y="52" on="1"/>
        <pt x="149" y="52" on="1"/>
        <pt x="182" y="52" on="0"/>
        <pt x="195" y="61" on="0"/>
        <pt x="195" y="84" on="1"/>
        <pt x="195" y="110" on="1"/>
        <pt x="134" y="136" on="0"/>
        <pt x="64" y="247" on="0"/>
        <pt x="64" y="327" on="1"/>
        <pt x="64" y="408" on="1"/>
        <pt x="64" y="519" on="0"/>
        <pt x="194" y="645" on="0"/>
        <pt x="398" y="645" on="0"/>
        <pt x="528" y="518" on="0"/>
        <pt x="528" y="408" on="1"/>
        <pt x="528" y="327" on="1"/>
        <pt x="528" y="247" on="0"/>
        <pt x="458" y="136" on="0"/>
        <pt x="397" y="110" on="1"/>
        <pt x="397" y="83" on="1"/>
        <pt x="397" y="60" on="0"/>
        <pt x="409" y="52" on="0"/>
        <pt x="443" y="52" on="1"/>
        <pt x="493" y="52" on="1"/>
        <pt x="528" y="52" on="0"/>
        <pt x="528" y="0" on="0"/>
        <pt x="493" y="0" on="1"/>
        <pt x="436" y="0" on="1"/>
        <pt x="374" y="0" on="0"/>
        <pt x="343" y="30" on="0"/>
        <pt x="343" y="99" on="1"/>
        <pt x="343" y="145" on="1"/>
        <pt x="476" y="175" on="0"/>
        <pt x="476" y="326" on="1"/>
        <pt x="476" y="407" on="1"/>
        <pt x="476" y="494" on="0"/>
        <pt x="381" y="593" on="0"/>
        <pt x="211" y="593" on="0"/>
        <pt x="116" y="494" on="0"/>
        <pt x="116" y="407" on="1"/>
      </contour>
    </TTGlyph>
    <TTGlyph name="Omegatonos" xMin="38" yMin="0" xMax="558" yMax="750">
      <contour>
        <pt x="146" y="326" on="1"/>
        <pt x="146" y="178" on="0"/>
        <pt x="279" y="144" on="1"/>
        <pt x="279" y="99" on="1"/>
        <pt x="279" y="30" on="0"/>
        <pt x="248" y="0" on="0"/>
        <pt x="186" y="0" on="1"/>
        <pt x="129" y="0" on="1"/>
        <pt x="94" y="0" on="0"/>
        <pt x="94" y="52" on="0"/>
        <pt x="129" y="52" on="1"/>
        <pt x="179" y="52" on="1"/>
        <pt x="212" y="52" on="0"/>
        <pt x="225" y="61" on="0"/>
        <pt x="225" y="84" on="1"/>
        <pt x="225" y="110" on="1"/>
        <pt x="164" y="136" on="0"/>
        <pt x="94" y="247" on="0"/>
        <pt x="94" y="327" on="1"/>
        <pt x="94" y="408" on="1"/>
        <pt x="94" y="519" on="0"/>
        <pt x="224" y="645" on="0"/>
        <pt x="428" y="645" on="0"/>
        <pt x="558" y="518" on="0"/>
        <pt x="558" y="408" on="1"/>
        <pt x="558" y="327" on="1"/>
        <pt x="558" y="247" on="0"/>
        <pt x="488" y="136" on="0"/>
        <pt x="427" y="110" on="1"/>
        <pt x="427" y="83" on="1"/>
        <pt x="427" y="60" on="0"/>
        <pt x="439" y="52" on="0"/>
        <pt x="473" y="52" on="1"/>
        <pt x="523" y="52" on="1"/>
        <pt x="558" y="52" on="0"/>
        <pt x="558" y="0" on="0"/>
        <pt x="523" y="0" on="1"/>
        <pt x="466" y="0" on="1"/>
        <pt x="404" y="0" on="0"/>
        <pt x="373" y="30" on="0"/>
        <pt x="373" y="99" on="1"/>
        <pt x="373" y="145" on="1"/>
        <pt x="506" y="175" on="0"/>
        <pt x="506" y="326" on="1"/>
        <pt x="506" y="407" on="1"/>
        <pt x="506" y="494" on="0"/>
        <pt x="411" y="593" on="0"/>
        <pt x="241" y="593" on="0"/>
        <pt x="146" y="494" on="0"/>
        <pt x="146" y="407" on="1"/>
      </contour>
      <contour>
        <pt x="112" y="750" on="1"/>
        <pt x="137" y="750" on="0"/>
        <pt x="137" y="723" on="1"/>
        <pt x="137" y="716" on="0"/>
        <pt x="136" y="712" on="1"/>
        <pt x="91" y="555" on="1"/>
        <pt x="84" y="520" on="0"/>
        <pt x="66" y="520" on="1"/>
        <pt x="54" y="520" on="0"/>
        <pt x="38" y="540" on="0"/>
        <pt x="38" y="556" on="1"/>
        <pt x="38" y="562" on="0"/>
        <pt x="40" y="568" on="1"/>
        <pt x="84" y="725" on="1"/>
        <pt x="92" y="750" on="0"/>
      </contour>
    </TTGlyph>
    <TTGlyph name="Omicron" xMin="65" yMin="-9" xMax="529" yMax="645">
      <component glyphName="O" x="0" y="0" flags="0x1004"/>
    </TTGlyph>
    <TTGlyph name="Omicrontonos" xMin="31" yMin="-9" xMax="559" yMax="750">
      <contour>
        <pt x="429" y="-9" on="0"/>
        <pt x="225" y="-9" on="0"/>
        <pt x="95" y="117" on="0"/>
        <pt x="95" y="228" on="1"/>
        <pt x="95" y="408" on="1"/>
        <pt x="95" y="519" on="0"/>
        <pt x="225" y="645" on="0"/>
        <pt x="429" y="645" on="0"/>
        <pt x="559" y="518" on="0"/>
        <pt x="559" y="408" on="1"/>
        <pt x="559" y="228" on="1"/>
        <pt x="559" y="118" on="0"/>
      </contour>
      <contour>
        <pt x="413" y="593" on="0"/>
        <pt x="241" y="593" on="0"/>
        <pt x="147" y="495" on="0"/>
        <pt x="147" y="407" on="1"/>
        <pt x="147" y="229" on="1"/>
        <pt x="147" y="141" on="0"/>
        <pt x="241" y="43" on="0"/>
        <pt x="413" y="43" on="0"/>
        <pt x="507" y="141" on="0"/>
        <pt x="507" y="229" on="1"/>
        <pt x="507" y="407" on="1"/>
        <pt x="507" y="495" on="0"/>
      </contour>
      <contour>
        <pt x="105" y="750" on="1"/>
        <pt x="130" y="750" on="0"/>
        <pt x="130" y="723" on="1"/>
        <pt x="130" y="716" on="0"/>
        <pt x="129" y="712" on="1"/>
        <pt x="84" y="555" on="1"/>
        <pt x="77" y="520" on="0"/>
        <pt x="59" y="520" on="1"/>
        <pt x="47" y="520" on="0"/>
        <pt x="31" y="540" on="0"/>
        <pt x="31" y="556" on="1"/>
        <pt x="31" y="562" on="0"/>
        <pt x="33" y="568" on="1"/>
        <pt x="77" y="725" on="1"/>
        <pt x="85" y="750" on="0"/>
      </contour>
    </TTGlyph>
    <TTGlyph name="Oslash" xMin="65" yMin="-9" xMax="529" yMax="645">
      <contour>
        <pt x="297" y="593" on="1"/>
        <pt x="211" y="593" on="0"/>
        <pt x="117" y="493" on="0"/>
        <pt x="117" y="404" on="1"/>
        <pt x="117" y="222" on="1"/>
        <pt x="117" y="152" on="0"/>
        <pt x="145" y="108" on="1"/>
        <pt x="415" y="558" on="1"/>
        <pt x="368" y="593" on="0"/>
      </contour>
      <contour>
        <pt x="475" y="638" on="1"/>
        <pt x="482" y="638" on="0"/>
        <pt x="501" y="626" on="0"/>
        <pt x="501" y="613" on="1"/>
        <pt x="501" y="605" on="0"/>
        <pt x="495" y="593" on="1"/>
        <pt x="478" y="566" on="1"/>
        <pt x="529" y="504" on="0"/>
        <pt x="529" y="408" on="1"/>
        <pt x="529" y="228" on="1"/>
        <pt x="529" y="118" on="0"/>
        <pt x="399" y="-9" on="0"/>
        <pt x="297" y="-9" on="1"/>
        <pt x="212" y="-9" on="0"/>
        <pt x="156" y="33" on="1"/>
        <pt x="146" y="17" on="1"/>
        <pt x="136" y="-2" on="0"/>
        <pt x="120" y="-2" on="1"/>
        <pt x="113" y="-2" on="0"/>
        <pt x="95" y="10" on="0"/>
        <pt x="95" y="22" on="1"/>
        <pt x="95" y="31" on="0"/>
        <pt x="101" y="43" on="1"/>
        <pt x="116" y="68" on="1"/>
        <pt x="65" y="130" on="0"/>
        <pt x="65" y="228" on="1"/>
        <pt x="65" y="408" on="1"/>
        <pt x="65" y="519" on="0"/>
        <pt x="195" y="645" on="0"/>
        <pt x="297" y="645" on="1"/>
        <pt x="384" y="645" on="0"/>
        <pt x="440" y="602" on="1"/>
        <pt x="450" y="619" on="1"/>
        <pt x="459" y="638" on="0"/>
      </contour>
      <contour>
        <pt x="477" y="414" on="1"/>
        <pt x="477" y="482" on="0"/>
        <pt x="450" y="526" on="1"/>
        <pt x="180" y="77" on="1"/>
        <pt x="226" y="43" on="0"/>
        <pt x="297" y="43" on="1"/>
        <pt x="383" y="43" on="0"/>
        <pt x="477" y="142" on="0"/>
        <pt x="477" y="232" on="1"/>
      </contour>
    </TTGlyph>
    <TTGlyph name="Otilde" xMin="65" yMin="-9" xMax="529" yMax="799">
      <component glyphName="tildecomb" x="581" y="212" flags="0x1004"/>
      <component glyphName="O" x="0" y="0" flags="0x1204"/>
    </TTGlyph>
    <TTGlyph name="P" xMin="84" yMin="-7" xMax="506" yMax="636">
      <contour>
        <pt x="136" y="25" on="1"/>
        <pt x="136" y="-7" on="0"/>
        <pt x="109" y="-7" on="1"/>
        <pt x="84" y="-7" on="0"/>
        <pt x="84" y="25" on="1"/>
        <pt x="84" y="600" on="1"/>
        <pt x="84" y="636" on="0"/>
        <pt x="108" y="636" on="1"/>
        <pt x="289" y="636" on="1"/>
        <pt x="397" y="636" on="0"/>
        <pt x="506" y="570" on="0"/>
        <pt x="506" y="481" on="1"/>
        <pt x="506" y="406" on="0"/>
        <pt x="415" y="327" on="0"/>
        <pt x="333" y="327" on="1"/>
        <pt x="136" y="327" on="1"/>
      </contour>
      <contour>
        <pt x="289" y="379" on="1"/>
        <pt x="381" y="379" on="0"/>
        <pt x="454" y="419" on="0"/>
        <pt x="454" y="481" on="1"/>
        <pt x="454" y="545" on="0"/>
        <pt x="380" y="584" on="0"/>
        <pt x="289" y="584" on="1"/>
        <pt x="136" y="584" on="1"/>
        <pt x="136" y="379" on="1"/>
      </contour>
    </TTGlyph>
    <TTGlyph name="Pecyrillic" xMin="85" yMin="-7" xMax="539" yMax="636">
      <component glyphName="Pi" x="0" y="0" flags="0x1004"/>
    </TTGlyph>
    <TTGlyph name="Phi" xMin="42" yMin="-7" xMax="506" yMax="643">
      <contour>
        <pt x="303" y="25" on="1"/>
        <pt x="303" y="-7" on="0"/>
        <pt x="275" y="-7" on="1"/>
        <pt x="249" y="-7" on="0"/>
        <pt x="249" y="25" on="1"/>
        <pt x="249" y="76" on="1"/>
        <pt x="156" y="84" on="0"/>
        <pt x="42" y="208" on="0"/>
        <pt x="42" y="312" on="1"/>
        <pt x="42" y="324" on="1"/>
        <pt x="42" y="428" on="0"/>
        <pt x="156" y="552" on="0"/>
        <pt x="249" y="560" on="1"/>
        <pt x="249" y="610" on="1"/>
        <pt x="249" y="643" on="0"/>
        <pt x="303" y="643" on="0"/>
        <pt x="303" y="610" on="1"/>
        <pt x="303" y="560" on="1"/>
        <pt x="394" y="551" on="0"/>
        <pt x="506" y="427" on="0"/>
        <pt x="506" y="324" on="1"/>
        <pt x="506" y="312" on="1"/>
        <pt x="506" y="209" on="0"/>
        <pt x="394" y="85" on="0"/>
        <pt x="303" y="76" on="1"/>
      </contour>
      <contour>
        <pt x="303" y="511" on="1"/>
        <pt x="303" y="125" on="1"/>
        <pt x="375" y="132" on="0"/>
        <pt x="454" y="231" on="0"/>
        <pt x="454" y="312" on="1"/>
        <pt x="454" y="324" on="1"/>
        <pt x="454" y="404" on="0"/>
        <pt x="375" y="503" on="0"/>
      </contour>
      <contour>
        <pt x="94" y="312" on="1"/>
        <pt x="94" y="229" on="0"/>
        <pt x="175" y="131" on="0"/>
        <pt x="249" y="124" on="1"/>
        <pt x="249" y="512" on="1"/>
        <pt x="175" y="505" on="0"/>
        <pt x="94" y="406" on="0"/>
        <pt x="94" y="324" on="1"/>
      </contour>
    </TTGlyph>
    <TTGlyph name="Pi" xMin="85" yMin="-7" xMax="539" yMax="636">
      <contour>
        <pt x="85" y="636" on="1"/>
        <pt x="539" y="636" on="1"/>
        <pt x="539" y="27" on="1"/>
        <pt x="539" y="-7" on="0"/>
        <pt x="514" y="-7" on="1"/>
        <pt x="487" y="-7" on="0"/>
        <pt x="487" y="27" on="1"/>
        <pt x="487" y="584" on="1"/>
        <pt x="137" y="584" on="1"/>
        <pt x="137" y="27" on="1"/>
        <pt x="137" y="-7" on="0"/>
        <pt x="85" y="-7" on="0"/>
        <pt x="85" y="27" on="1"/>
      </contour>
    </TTGlyph>
    <TTGlyph name="Psi" xMin="48" yMin="-7" xMax="512" yMax="643">
      <contour>
        <pt x="460" y="610" on="1"/>
        <pt x="460" y="643" on="0"/>
        <pt x="487" y="643" on="1"/>
        <pt x="512" y="643" on="0"/>
        <pt x="512" y="610" on="1"/>
        <pt x="512" y="457" on="1"/>
        <pt x="512" y="354" on="0"/>
        <pt x="399" y="230" on="0"/>
        <pt x="308" y="221" on="1"/>
        <pt x="308" y="25" on="1"/>
        <pt x="308" y="-7" on="0"/>
        <pt x="280" y="-7" on="1"/>
        <pt x="254" y="-7" on="0"/>
        <pt x="254" y="25" on="1"/>
        <pt x="254" y="221" on="1"/>
        <pt x="161" y="229" on="0"/>
        <pt x="48" y="353" on="0"/>
        <pt x="48" y="457" on="1"/>
        <pt x="48" y="610" on="1"/>
        <pt x="48" y="643" on="0"/>
        <pt x="100" y="643" on="0"/>
        <pt x="100" y="610" on="1"/>
        <pt x="100" y="454" on="1"/>
        <pt x="100" y="372" on="0"/>
        <pt x="180" y="274" on="0"/>
        <pt x="254" y="266" on="1"/>
        <pt x="254" y="610" on="1"/>
        <pt x="254" y="643" on="0"/>
        <pt x="308" y="643" on="0"/>
        <pt x="308" y="610" on="1"/>
        <pt x="308" y="267" on="1"/>
        <pt x="381" y="274" on="0"/>
        <pt x="460" y="372" on="0"/>
        <pt x="460" y="454" on="1"/>
      </contour>
    </TTGlyph>
    <TTGlyph name="Q" xMin="65" yMin="-12" xMax="529" yMax="645">
      <contour>
        <pt x="383" y="593" on="0"/>
        <pt x="211" y="593" on="0"/>
        <pt x="117" y="495" on="0"/>
        <pt x="117" y="407" on="1"/>
        <pt x="117" y="229" on="1"/>
        <pt x="117" y="141" on="0"/>
        <pt x="211" y="43" on="0"/>
        <pt x="297" y="43" on="1"/>
        <pt x="365" y="43" on="0"/>
        <pt x="406" y="72" on="1"/>
        <pt x="350" y="124" on="1"/>
        <pt x="337" y="135" on="0"/>
        <pt x="337" y="147" on="1"/>
        <pt x="337" y="157" on="0"/>
        <pt x="352" y="173" on="0"/>
        <pt x="363" y="173" on="1"/>
        <pt x="375" y="173" on="0"/>
        <pt x="389" y="160" on="1"/>
        <pt x="443" y="107" on="1"/>
        <pt x="477" y="153" on="0"/>
        <pt x="477" y="229" on="1"/>
        <pt x="477" y="407" on="1"/>
        <pt x="477" y="495" on="0"/>
      </contour>
      <contour>
        <pt x="297" y="-9" on="1"/>
        <pt x="195" y="-9" on="0"/>
        <pt x="65" y="117" on="0"/>
        <pt x="65" y="228" on="1"/>
        <pt x="65" y="408" on="1"/>
        <pt x="65" y="519" on="0"/>
        <pt x="195" y="645" on="0"/>
        <pt x="399" y="645" on="0"/>
        <pt x="529" y="518" on="0"/>
        <pt x="529" y="408" on="1"/>
        <pt x="529" y="228" on="1"/>
        <pt x="529" y="131" on="0"/>
        <pt x="480" y="71" on="1"/>
        <pt x="515" y="37" on="1"/>
        <pt x="526" y="24" on="0"/>
        <pt x="526" y="13" on="1"/>
        <pt x="526" y="4" on="0"/>
        <pt x="512" y="-12" on="0"/>
        <pt x="502" y="-12" on="1"/>
        <pt x="489" y="-12" on="0"/>
        <pt x="478" y="-1" on="1"/>
        <pt x="443" y="34" on="1"/>
        <pt x="383" y="-9" on="0"/>
      </contour>
    </TTGlyph>
    <TTGlyph name="R" xMin="84" yMin="-7" xMax="514" yMax="636">
      <contour>
        <pt x="288" y="374" on="1"/>
        <pt x="381" y="374" on="0"/>
        <pt x="454" y="414" on="0"/>
        <pt x="454" y="476" on="1"/>
        <pt x="454" y="540" on="0"/>
        <pt x="380" y="579" on="0"/>
        <pt x="288" y="579" on="1"/>
        <pt x="136" y="579" on="1"/>
        <pt x="136" y="374" on="1"/>
      </contour>
      <contour>
        <pt x="389" y="332" on="1"/>
        <pt x="422" y="300" on="0"/>
        <pt x="484" y="150" on="0"/>
        <pt x="514" y="36" on="0"/>
        <pt x="514" y="25" on="1"/>
        <pt x="514" y="11" on="0"/>
        <pt x="499" y="-7" on="0"/>
        <pt x="475" y="-7" on="0"/>
        <pt x="462" y="12" on="0"/>
        <pt x="462" y="38" on="0"/>
        <pt x="434" y="144" on="0"/>
        <pt x="366" y="290" on="0"/>
        <pt x="324" y="322" on="1"/>
        <pt x="136" y="322" on="1"/>
        <pt x="136" y="25" on="1"/>
        <pt x="136" y="-7" on="0"/>
        <pt x="109" y="-7" on="1"/>
        <pt x="84" y="-7" on="0"/>
        <pt x="84" y="25" on="1"/>
        <pt x="84" y="600" on="1"/>
        <pt x="84" y="636" on="0"/>
        <pt x="108" y="636" on="1"/>
        <pt x="288" y="636" on="1"/>
        <pt x="397" y="636" on="0"/>
        <pt x="506" y="570" on="0"/>
        <pt x="506" y="481" on="1"/>
        <pt x="506" y="356" on="0"/>
      </contour>
    </TTGlyph>
    <TTGlyph name="Racute" xMin="84" yMin="-7" xMax="514" yMax="819">
      <contour>
        <pt x="288" y="374" on="1"/>
        <pt x="381" y="374" on="0"/>
        <pt x="454" y="414" on="0"/>
        <pt x="454" y="476" on="1"/>
        <pt x="454" y="540" on="0"/>
        <pt x="380" y="579" on="0"/>
        <pt x="288" y="579" on="1"/>
        <pt x="136" y="579" on="1"/>
        <pt x="136" y="374" on="1"/>
      </contour>
      <contour>
        <pt x="389" y="332" on="1"/>
        <pt x="422" y="300" on="0"/>
        <pt x="484" y="150" on="0"/>
        <pt x="514" y="36" on="0"/>
        <pt x="514" y="25" on="1"/>
        <pt x="514" y="11" on="0"/>
        <pt x="499" y="-7" on="0"/>
        <pt x="475" y="-7" on="0"/>
        <pt x="462" y="12" on="0"/>
        <pt x="462" y="38" on="0"/>
        <pt x="434" y="144" on="0"/>
        <pt x="366" y="290" on="0"/>
        <pt x="324" y="322" on="1"/>
        <pt x="136" y="322" on="1"/>
        <pt x="136" y="25" on="1"/>
        <pt x="136" y="-7" on="0"/>
        <pt x="109" y="-7" on="1"/>
        <pt x="84" y="-7" on="0"/>
        <pt x="84" y="25" on="1"/>
        <pt x="84" y="600" on="1"/>
        <pt x="84" y="636" on="0"/>
        <pt x="108" y="636" on="1"/>
        <pt x="288" y="636" on="1"/>
        <pt x="397" y="636" on="0"/>
        <pt x="506" y="570" on="0"/>
        <pt x="506" y="481" on="1"/>
        <pt x="506" y="356" on="0"/>
      </contour>
      <contour>
        <pt x="323" y="770" on="1"/>
        <pt x="253" y="701" on="1"/>
        <pt x="241" y="688" on="0"/>
        <pt x="229" y="688" on="1"/>
        <pt x="219" y="688" on="0"/>
        <pt x="203" y="703" on="0"/>
        <pt x="203" y="712" on="1"/>
        <pt x="203" y="723" on="0"/>
        <pt x="216" y="738" on="1"/>
        <pt x="285" y="806" on="1"/>
        <pt x="297" y="819" on="0"/>
        <pt x="310" y="819" on="1"/>
        <pt x="321" y="819" on="0"/>
        <pt x="335" y="802" on="0"/>
        <pt x="335" y="794" on="1"/>
        <pt x="335" y="784" on="0"/>
      </contour>
    </TTGlyph>
    <TTGlyph name="Rcaron" xMin="84" yMin="-7" xMax="514" yMax="819">
      <contour>
        <pt x="288" y="374" on="1"/>
        <pt x="381" y="374" on="0"/>
        <pt x="454" y="414" on="0"/>
        <pt x="454" y="476" on="1"/>
        <pt x="454" y="540" on="0"/>
        <pt x="380" y="579" on="0"/>
        <pt x="288" y="579" on="1"/>
        <pt x="136" y="579" on="1"/>
        <pt x="136" y="374" on="1"/>
      </contour>
      <contour>
        <pt x="389" y="332" on="1"/>
        <pt x="422" y="300" on="0"/>
        <pt x="484" y="150" on="0"/>
        <pt x="514" y="36" on="0"/>
        <pt x="514" y="25" on="1"/>
        <pt x="514" y="11" on="0"/>
        <pt x="499" y="-7" on="0"/>
        <pt x="475" y="-7" on="0"/>
        <pt x="462" y="12" on="0"/>
        <pt x="462" y="38" on="0"/>
        <pt x="434" y="144" on="0"/>
        <pt x="366" y="290" on="0"/>
        <pt x="324" y="322" on="1"/>
        <pt x="136" y="322" on="1"/>
        <pt x="136" y="25" on="1"/>
        <pt x="136" y="-7" on="0"/>
        <pt x="109" y="-7" on="1"/>
        <pt x="84" y="-7" on="0"/>
        <pt x="84" y="25" on="1"/>
        <pt x="84" y="600" on="1"/>
        <pt x="84" y="636" on="0"/>
        <pt x="108" y="636" on="1"/>
        <pt x="288" y="636" on="1"/>
        <pt x="397" y="636" on="0"/>
        <pt x="506" y="570" on="0"/>
        <pt x="506" y="481" on="1"/>
        <pt x="506" y="356" on="0"/>
      </contour>
      <contour>
        <pt x="298" y="675" on="1"/>
        <pt x="242" y="675" on="1"/>
        <pt x="138" y="784" on="1"/>
        <pt x="131" y="791" on="0"/>
        <pt x="131" y="799" on="1"/>
        <pt x="131" y="819" on="0"/>
        <pt x="154" y="819" on="1"/>
        <pt x="166" y="819" on="0"/>
        <pt x="186" y="802" on="1"/>
        <pt x="270" y="732" on="1"/>
        <pt x="354" y="802" on="1"/>
        <pt x="374" y="819" on="0"/>
        <pt x="386" y="819" on="1"/>
        <pt x="409" y="819" on="0"/>
        <pt x="409" y="799" on="1"/>
        <pt x="409" y="791" on="0"/>
        <pt x="402" y="784" on="1"/>
      </contour>
    </TTGlyph>
    <TTGlyph name="Rcommaaccent" xMin="84" yMin="-151" xMax="514" yMax="636">
      <contour>
        <pt x="345" y="-25" on="1"/>
        <pt x="345" y="-35" on="0"/>
        <pt x="340" y="-44" on="1"/>
        <pt x="299" y="-127" on="1"/>
        <pt x="289" y="-151" on="0"/>
        <pt x="274" y="-151" on="1"/>
        <pt x="252" y="-151" on="0"/>
        <pt x="252" y="-126" on="1"/>
        <pt x="252" y="-122" on="0"/>
        <pt x="255" y="-110" on="1"/>
        <pt x="279" y="-23" on="1"/>
        <pt x="286" y="0" on="0"/>
        <pt x="304" y="0" on="1"/>
        <pt x="315" y="0" on="0"/>
        <pt x="345" y="-12" on="0"/>
      </contour>
      <contour>
        <pt x="288" y="374" on="1"/>
        <pt x="381" y="374" on="0"/>
        <pt x="454" y="414" on="0"/>
        <pt x="454" y="476" on="1"/>
        <pt x="454" y="540" on="0"/>
        <pt x="380" y="579" on="0"/>
        <pt x="288" y="579" on="1"/>
        <pt x="136" y="579" on="1"/>
        <pt x="136" y="374" on="1"/>
      </contour>
      <contour>
        <pt x="389" y="332" on="1"/>
        <pt x="422" y="300" on="0"/>
        <pt x="484" y="150" on="0"/>
        <pt x="514" y="36" on="0"/>
        <pt x="514" y="25" on="1"/>
        <pt x="514" y="11" on="0"/>
        <pt x="499" y="-7" on="0"/>
        <pt x="475" y="-7" on="0"/>
        <pt x="462" y="12" on="0"/>
        <pt x="462" y="38" on="0"/>
        <pt x="434" y="144" on="0"/>
        <pt x="366" y="290" on="0"/>
        <pt x="324" y="322" on="1"/>
        <pt x="136" y="322" on="1"/>
        <pt x="136" y="25" on="1"/>
        <pt x="136" y="-7" on="0"/>
        <pt x="109" y="-7" on="1"/>
        <pt x="84" y="-7" on="0"/>
        <pt x="84" y="25" on="1"/>
        <pt x="84" y="600" on="1"/>
        <pt x="84" y="636" on="0"/>
        <pt x="108" y="636" on="1"/>
        <pt x="288" y="636" on="1"/>
        <pt x="397" y="636" on="0"/>
        <pt x="506" y="570" on="0"/>
        <pt x="506" y="481" on="1"/>
        <pt x="506" y="356" on="0"/>
      </contour>
    </TTGlyph>
    <TTGlyph name="Rho" xMin="84" yMin="-7" xMax="506" yMax="636">
      <component glyphName="P" x="0" y="0" flags="0x1004"/>
    </TTGlyph>
    <TTGlyph name="S" xMin="61" yMin="-8" xMax="537" yMax="644">
      <contour>
        <pt x="113" y="481" on="1"/>
        <pt x="113" y="441" on="0"/>
        <pt x="148" y="384" on="0"/>
        <pt x="173" y="379" on="1"/>
        <pt x="410" y="328" on="1"/>
        <pt x="477" y="313" on="0"/>
        <pt x="537" y="219" on="0"/>
        <pt x="537" y="156" on="1"/>
        <pt x="537" y="89" on="0"/>
        <pt x="458" y="-8" on="0"/>
        <pt x="367" y="-8" on="1"/>
        <pt x="284" y="-8" on="1"/>
        <pt x="227" y="-8" on="0"/>
        <pt x="153" y="5" on="0"/>
        <pt x="90" y="42" on="0"/>
        <pt x="61" y="115" on="0"/>
        <pt x="61" y="172" on="1"/>
        <pt x="61" y="205" on="0"/>
        <pt x="89" y="205" on="1"/>
        <pt x="114" y="205" on="0"/>
        <pt x="114" y="172" on="1"/>
        <pt x="114" y="89" on="0"/>
        <pt x="185" y="44" on="0"/>
        <pt x="284" y="44" on="1"/>
        <pt x="386" y="44" on="1"/>
        <pt x="439" y="44" on="0"/>
        <pt x="485" y="116" on="0"/>
        <pt x="485" y="157" on="1"/>
        <pt x="485" y="206" on="0"/>
        <pt x="446" y="267" on="0"/>
        <pt x="425" y="272" on="1"/>
        <pt x="190" y="324" on="1"/>
        <pt x="120" y="339" on="0"/>
        <pt x="61" y="414" on="0"/>
        <pt x="61" y="482" on="1"/>
        <pt x="61" y="549" on="0"/>
        <pt x="143" y="644" on="0"/>
        <pt x="238" y="644" on="1"/>
        <pt x="314" y="644" on="1"/>
        <pt x="371" y="644" on="0"/>
        <pt x="444" y="631" on="0"/>
        <pt x="508" y="595" on="0"/>
        <pt x="537" y="523" on="0"/>
        <pt x="537" y="466" on="1"/>
        <pt x="537" y="433" on="0"/>
        <pt x="510" y="433" on="1"/>
        <pt x="484" y="433" on="0"/>
        <pt x="484" y="466" on="1"/>
        <pt x="484" y="549" on="0"/>
        <pt x="414" y="592" on="0"/>
        <pt x="314" y="592" on="1"/>
        <pt x="216" y="592" on="1"/>
        <pt x="162" y="592" on="0"/>
        <pt x="113" y="522" on="0"/>
      </contour>
    </TTGlyph>
    <TTGlyph name="Sacute" xMin="61" yMin="-8" xMax="537" yMax="819">
      <contour>
        <pt x="113" y="481" on="1"/>
        <pt x="113" y="441" on="0"/>
        <pt x="148" y="384" on="0"/>
        <pt x="173" y="379" on="1"/>
        <pt x="410" y="328" on="1"/>
        <pt x="477" y="313" on="0"/>
        <pt x="537" y="219" on="0"/>
        <pt x="537" y="156" on="1"/>
        <pt x="537" y="89" on="0"/>
        <pt x="458" y="-8" on="0"/>
        <pt x="367" y="-8" on="1"/>
        <pt x="284" y="-8" on="1"/>
        <pt x="227" y="-8" on="0"/>
        <pt x="153" y="5" on="0"/>
        <pt x="90" y="42" on="0"/>
        <pt x="61" y="115" on="0"/>
        <pt x="61" y="172" on="1"/>
        <pt x="61" y="205" on="0"/>
        <pt x="89" y="205" on="1"/>
        <pt x="114" y="205" on="0"/>
        <pt x="114" y="172" on="1"/>
        <pt x="114" y="89" on="0"/>
        <pt x="185" y="44" on="0"/>
        <pt x="284" y="44" on="1"/>
        <pt x="386" y="44" on="1"/>
        <pt x="439" y="44" on="0"/>
        <pt x="485" y="116" on="0"/>
        <pt x="485" y="157" on="1"/>
        <pt x="485" y="206" on="0"/>
        <pt x="446" y="267" on="0"/>
        <pt x="425" y="272" on="1"/>
        <pt x="190" y="324" on="1"/>
        <pt x="120" y="339" on="0"/>
        <pt x="61" y="414" on="0"/>
        <pt x="61" y="482" on="1"/>
        <pt x="61" y="549" on="0"/>
        <pt x="143" y="644" on="0"/>
        <pt x="238" y="644" on="1"/>
        <pt x="314" y="644" on="1"/>
        <pt x="371" y="644" on="0"/>
        <pt x="444" y="631" on="0"/>
        <pt x="508" y="595" on="0"/>
        <pt x="537" y="523" on="0"/>
        <pt x="537" y="466" on="1"/>
        <pt x="537" y="433" on="0"/>
        <pt x="510" y="433" on="1"/>
        <pt x="484" y="433" on="0"/>
        <pt x="484" y="466" on="1"/>
        <pt x="484" y="549" on="0"/>
        <pt x="414" y="592" on="0"/>
        <pt x="314" y="592" on="1"/>
        <pt x="216" y="592" on="1"/>
        <pt x="162" y="592" on="0"/>
        <pt x="113" y="522" on="0"/>
      </contour>
      <contour>
        <pt x="355" y="770" on="1"/>
        <pt x="285" y="701" on="1"/>
        <pt x="273" y="688" on="0"/>
        <pt x="261" y="688" on="1"/>
        <pt x="251" y="688" on="0"/>
        <pt x="235" y="703" on="0"/>
        <pt x="235" y="712" on="1"/>
        <pt x="235" y="723" on="0"/>
        <pt x="248" y="738" on="1"/>
        <pt x="317" y="806" on="1"/>
        <pt x="329" y="819" on="0"/>
        <pt x="342" y="819" on="1"/>
        <pt x="353" y="819" on="0"/>
        <pt x="367" y="802" on="0"/>
        <pt x="367" y="794" on="1"/>
        <pt x="367" y="784" on="0"/>
      </contour>
    </TTGlyph>
    <TTGlyph name="Scaron" xMin="61" yMin="-8" xMax="537" yMax="819">
      <contour>
        <pt x="113" y="481" on="1"/>
        <pt x="113" y="441" on="0"/>
        <pt x="148" y="384" on="0"/>
        <pt x="173" y="379" on="1"/>
        <pt x="410" y="328" on="1"/>
        <pt x="477" y="313" on="0"/>
        <pt x="537" y="219" on="0"/>
        <pt x="537" y="156" on="1"/>
        <pt x="537" y="89" on="0"/>
        <pt x="458" y="-8" on="0"/>
        <pt x="367" y="-8" on="1"/>
        <pt x="284" y="-8" on="1"/>
        <pt x="227" y="-8" on="0"/>
        <pt x="153" y="5" on="0"/>
        <pt x="90" y="42" on="0"/>
        <pt x="61" y="115" on="0"/>
        <pt x="61" y="172" on="1"/>
        <pt x="61" y="205" on="0"/>
        <pt x="89" y="205" on="1"/>
        <pt x="114" y="205" on="0"/>
        <pt x="114" y="172" on="1"/>
        <pt x="114" y="89" on="0"/>
        <pt x="185" y="44" on="0"/>
        <pt x="284" y="44" on="1"/>
        <pt x="386" y="44" on="1"/>
        <pt x="439" y="44" on="0"/>
        <pt x="485" y="116" on="0"/>
        <pt x="485" y="157" on="1"/>
        <pt x="485" y="206" on="0"/>
        <pt x="446" y="267" on="0"/>
        <pt x="425" y="272" on="1"/>
        <pt x="190" y="324" on="1"/>
        <pt x="120" y="339" on="0"/>
        <pt x="61" y="414" on="0"/>
        <pt x="61" y="482" on="1"/>
        <pt x="61" y="549" on="0"/>
        <pt x="143" y="644" on="0"/>
        <pt x="238" y="644" on="1"/>
        <pt x="314" y="644" on="1"/>
        <pt x="371" y="644" on="0"/>
        <pt x="444" y="631" on="0"/>
        <pt x="508" y="595" on="0"/>
        <pt x="537" y="523" on="0"/>
        <pt x="537" y="466" on="1"/>
        <pt x="537" y="433" on="0"/>
        <pt x="510" y="433" on="1"/>
        <pt x="484" y="433" on="0"/>
        <pt x="484" y="466" on="1"/>
        <pt x="484" y="549" on="0"/>
        <pt x="414" y="592" on="0"/>
        <pt x="314" y="592" on="1"/>
        <pt x="216" y="592" on="1"/>
        <pt x="162" y="592" on="0"/>
        <pt x="113" y="522" on="0"/>
      </contour>
      <contour>
        <pt x="324" y="675" on="1"/>
        <pt x="268" y="675" on="1"/>
        <pt x="164" y="784" on="1"/>
        <pt x="157" y="791" on="0"/>
        <pt x="157" y="799" on="1"/>
        <pt x="157" y="819" on="0"/>
        <pt x="180" y="819" on="1"/>
        <pt x="192" y="819" on="0"/>
        <pt x="212" y="802" on="1"/>
        <pt x="296" y="732" on="1"/>
        <pt x="380" y="802" on="1"/>
        <pt x="400" y="819" on="0"/>
        <pt x="412" y="819" on="1"/>
        <pt x="435" y="819" on="0"/>
        <pt x="435" y="799" on="1"/>
        <pt x="435" y="791" on="0"/>
        <pt x="428" y="784" on="1"/>
      </contour>
    </TTGlyph>
    <TTGlyph name="Scedilla" xMin="61" yMin="-175" xMax="537" yMax="644">
      <contour>
        <pt x="113" y="481" on="1"/>
        <pt x="113" y="441" on="0"/>
        <pt x="148" y="384" on="0"/>
        <pt x="173" y="379" on="1"/>
        <pt x="410" y="328" on="1"/>
        <pt x="477" y="313" on="0"/>
        <pt x="537" y="219" on="0"/>
        <pt x="537" y="156" on="1"/>
        <pt x="537" y="89" on="0"/>
        <pt x="458" y="-8" on="0"/>
        <pt x="367" y="-8" on="1"/>
        <pt x="305" y="-8" on="1"/>
        <pt x="309" y="-18" on="0"/>
        <pt x="370" y="-65" on="0"/>
        <pt x="370" y="-94" on="1"/>
        <pt x="370" y="-130" on="0"/>
        <pt x="314" y="-175" on="0"/>
        <pt x="274" y="-175" on="1"/>
        <pt x="249" y="-175" on="0"/>
        <pt x="195" y="-151" on="0"/>
        <pt x="195" y="-125" on="1"/>
        <pt x="195" y="-107" on="0"/>
        <pt x="210" y="-107" on="1"/>
        <pt x="216" y="-107" on="0"/>
        <pt x="262" y="-125" on="0"/>
        <pt x="276" y="-125" on="1"/>
        <pt x="318" y="-125" on="0"/>
        <pt x="318" y="-99" on="1"/>
        <pt x="318" y="-88" on="0"/>
        <pt x="289" y="-64" on="0"/>
        <pt x="255" y="-30" on="0"/>
        <pt x="251" y="-7" on="1"/>
        <pt x="154" y="-4" on="0"/>
        <pt x="61" y="72" on="0"/>
        <pt x="61" y="172" on="1"/>
        <pt x="61" y="205" on="0"/>
        <pt x="89" y="205" on="1"/>
        <pt x="114" y="205" on="0"/>
        <pt x="114" y="172" on="1"/>
        <pt x="114" y="89" on="0"/>
        <pt x="185" y="44" on="0"/>
        <pt x="284" y="44" on="1"/>
        <pt x="386" y="44" on="1"/>
        <pt x="439" y="44" on="0"/>
        <pt x="485" y="116" on="0"/>
        <pt x="485" y="157" on="1"/>
        <pt x="485" y="206" on="0"/>
        <pt x="446" y="267" on="0"/>
        <pt x="425" y="272" on="1"/>
        <pt x="190" y="324" on="1"/>
        <pt x="120" y="339" on="0"/>
        <pt x="61" y="414" on="0"/>
        <pt x="61" y="482" on="1"/>
        <pt x="61" y="549" on="0"/>
        <pt x="143" y="644" on="0"/>
        <pt x="238" y="644" on="1"/>
        <pt x="314" y="644" on="1"/>
        <pt x="371" y="644" on="0"/>
        <pt x="444" y="631" on="0"/>
        <pt x="508" y="595" on="0"/>
        <pt x="537" y="523" on="0"/>
        <pt x="537" y="466" on="1"/>
        <pt x="537" y="433" on="0"/>
        <pt x="510" y="433" on="1"/>
        <pt x="484" y="433" on="0"/>
        <pt x="484" y="466" on="1"/>
        <pt x="484" y="549" on="0"/>
        <pt x="414" y="592" on="0"/>
        <pt x="314" y="592" on="1"/>
        <pt x="216" y="592" on="1"/>
        <pt x="162" y="592" on="0"/>
        <pt x="113" y="522" on="0"/>
      </contour>
    </TTGlyph>
    <TTGlyph name="Scircumflex" xMin="61" yMin="-8" xMax="537" yMax="819">
      <contour>
        <pt x="113" y="481" on="1"/>
        <pt x="113" y="441" on="0"/>
        <pt x="148" y="384" on="0"/>
        <pt x="173" y="379" on="1"/>
        <pt x="410" y="328" on="1"/>
        <pt x="477" y="313" on="0"/>
        <pt x="537" y="219" on="0"/>
        <pt x="537" y="156" on="1"/>
        <pt x="537" y="89" on="0"/>
        <pt x="458" y="-8" on="0"/>
        <pt x="367" y="-8" on="1"/>
        <pt x="284" y="-8" on="1"/>
        <pt x="227" y="-8" on="0"/>
        <pt x="153" y="5" on="0"/>
        <pt x="90" y="42" on="0"/>
        <pt x="61" y="115" on="0"/>
        <pt x="61" y="172" on="1"/>
        <pt x="61" y="205" on="0"/>
        <pt x="89" y="205" on="1"/>
        <pt x="114" y="205" on="0"/>
        <pt x="114" y="172" on="1"/>
        <pt x="114" y="89" on="0"/>
        <pt x="185" y="44" on="0"/>
        <pt x="284" y="44" on="1"/>
        <pt x="386" y="44" on="1"/>
        <pt x="439" y="44" on="0"/>
        <pt x="485" y="116" on="0"/>
        <pt x="485" y="157" on="1"/>
        <pt x="485" y="206" on="0"/>
        <pt x="446" y="267" on="0"/>
        <pt x="425" y="272" on="1"/>
        <pt x="190" y="324" on="1"/>
        <pt x="120" y="339" on="0"/>
        <pt x="61" y="414" on="0"/>
        <pt x="61" y="482" on="1"/>
        <pt x="61" y="549" on="0"/>
        <pt x="143" y="644" on="0"/>
        <pt x="238" y="644" on="1"/>
        <pt x="314" y="644" on="1"/>
        <pt x="371" y="644" on="0"/>
        <pt x="444" y="631" on="0"/>
        <pt x="508" y="595" on="0"/>
        <pt x="537" y="523" on="0"/>
        <pt x="537" y="466" on="1"/>
        <pt x="537" y="433" on="0"/>
        <pt x="510" y="433" on="1"/>
        <pt x="484" y="433" on="0"/>
        <pt x="484" y="466" on="1"/>
        <pt x="484" y="549" on="0"/>
        <pt x="414" y="592" on="0"/>
        <pt x="314" y="592" on="1"/>
        <pt x="216" y="592" on="1"/>
        <pt x="162" y="592" on="0"/>
        <pt x="113" y="522" on="0"/>
      </contour>
      <contour>
        <pt x="162" y="687" on="1"/>
        <pt x="267" y="819" on="1"/>
        <pt x="326" y="819" on="1"/>
        <pt x="433" y="687" on="1"/>
        <pt x="439" y="679" on="0"/>
        <pt x="439" y="669" on="1"/>
        <pt x="439" y="646" on="0"/>
        <pt x="416" y="646" on="1"/>
        <pt x="411" y="646" on="0"/>
        <pt x="402" y="650" on="0"/>
        <pt x="399" y="653" on="0"/>
        <pt x="389" y="665" on="0"/>
        <pt x="388" y="666" on="1"/>
        <pt x="297" y="762" on="1"/>
        <pt x="207" y="666" on="1"/>
        <pt x="205" y="664" on="0"/>
        <pt x="199" y="656" on="0"/>
        <pt x="195" y="653" on="0"/>
        <pt x="190" y="648" on="0"/>
        <pt x="183" y="646" on="0"/>
        <pt x="179" y="646" on="1"/>
        <pt x="156" y="646" on="0"/>
        <pt x="156" y="669" on="1"/>
        <pt x="156" y="679" on="0"/>
      </contour>
    </TTGlyph>
    <TTGlyph name="Scommaaccent" xMin="62" yMin="-205" xMax="538" yMax="644">
      <contour>
        <pt x="333" y="-79" on="1"/>
        <pt x="333" y="-89" on="0"/>
        <pt x="328" y="-98" on="1"/>
        <pt x="287" y="-181" on="1"/>
        <pt x="277" y="-205" on="0"/>
        <pt x="262" y="-205" on="1"/>
        <pt x="240" y="-205" on="0"/>
        <pt x="240" y="-180" on="1"/>
        <pt x="240" y="-176" on="0"/>
        <pt x="243" y="-164" on="1"/>
        <pt x="267" y="-77" on="1"/>
        <pt x="274" y="-54" on="0"/>
        <pt x="292" y="-54" on="1"/>
        <pt x="303" y="-54" on="0"/>
        <pt x="333" y="-66" on="0"/>
      </contour>
      <contour>
        <pt x="114" y="481" on="1"/>
        <pt x="114" y="441" on="0"/>
        <pt x="149" y="384" on="0"/>
        <pt x="174" y="379" on="1"/>
        <pt x="411" y="328" on="1"/>
        <pt x="478" y="313" on="0"/>
        <pt x="538" y="219" on="0"/>
        <pt x="538" y="156" on="1"/>
        <pt x="538" y="89" on="0"/>
        <pt x="459" y="-8" on="0"/>
        <pt x="368" y="-8" on="1"/>
        <pt x="285" y="-8" on="1"/>
        <pt x="228" y="-8" on="0"/>
        <pt x="154" y="5" on="0"/>
        <pt x="91" y="42" on="0"/>
        <pt x="62" y="115" on="0"/>
        <pt x="62" y="172" on="1"/>
        <pt x="62" y="205" on="0"/>
        <pt x="90" y="205" on="1"/>
        <pt x="115" y="205" on="0"/>
        <pt x="115" y="172" on="1"/>
        <pt x="115" y="89" on="0"/>
        <pt x="186" y="44" on="0"/>
        <pt x="285" y="44" on="1"/>
        <pt x="387" y="44" on="1"/>
        <pt x="440" y="44" on="0"/>
        <pt x="486" y="116" on="0"/>
        <pt x="486" y="157" on="1"/>
        <pt x="486" y="206" on="0"/>
        <pt x="447" y="267" on="0"/>
        <pt x="426" y="272" on="1"/>
        <pt x="191" y="324" on="1"/>
        <pt x="121" y="339" on="0"/>
        <pt x="62" y="414" on="0"/>
        <pt x="62" y="482" on="1"/>
        <pt x="62" y="549" on="0"/>
        <pt x="144" y="644" on="0"/>
        <pt x="239" y="644" on="1"/>
        <pt x="315" y="644" on="1"/>
        <pt x="372" y="644" on="0"/>
        <pt x="445" y="631" on="0"/>
        <pt x="509" y="595" on="0"/>
        <pt x="538" y="523" on="0"/>
        <pt x="538" y="466" on="1"/>
        <pt x="538" y="433" on="0"/>
        <pt x="511" y="433" on="1"/>
        <pt x="485" y="433" on="0"/>
        <pt x="485" y="466" on="1"/>
        <pt x="485" y="549" on="0"/>
        <pt x="415" y="592" on="0"/>
        <pt x="315" y="592" on="1"/>
        <pt x="217" y="592" on="1"/>
        <pt x="163" y="592" on="0"/>
        <pt x="114" y="522" on="0"/>
      </contour>
    </TTGlyph>
    <TTGlyph name="Shacyrillic" xMin="86" yMin="0" xMax="612" yMax="611">
      <contour>
        <pt x="86" y="0" on="1"/>
        <pt x="86" y="576" on="1"/>
        <pt x="86" y="611" on="0"/>
        <pt x="111" y="611" on="1"/>
        <pt x="138" y="611" on="0"/>
        <pt x="138" y="576" on="1"/>
        <pt x="138" y="52" on="1"/>
        <pt x="323" y="52" on="1"/>
        <pt x="323" y="576" on="1"/>
        <pt x="323" y="611" on="0"/>
        <pt x="348" y="611" on="1"/>
        <pt x="375" y="611" on="0"/>
        <pt x="375" y="576" on="1"/>
        <pt x="375" y="52" on="1"/>
        <pt x="560" y="52" on="1"/>
        <pt x="560" y="576" on="1"/>
        <pt x="560" y="611" on="0"/>
        <pt x="612" y="611" on="0"/>
        <pt x="612" y="576" on="1"/>
        <pt x="612" y="0" on="1"/>
      </contour>
    </TTGlyph>
    <TTGlyph name="Shchacyrillic" xMin="86" yMin="-92" xMax="670" yMax="611">
      <contour>
        <pt x="322" y="576" on="1"/>
        <pt x="322" y="611" on="0"/>
        <pt x="347" y="611" on="1"/>
        <pt x="374" y="611" on="0"/>
        <pt x="374" y="576" on="1"/>
        <pt x="374" y="52" on="1"/>
        <pt x="560" y="52" on="1"/>
        <pt x="560" y="576" on="1"/>
        <pt x="560" y="611" on="0"/>
        <pt x="612" y="611" on="0"/>
        <pt x="612" y="576" on="1"/>
        <pt x="612" y="52" on="1"/>
        <pt x="619" y="52" on="1"/>
        <pt x="670" y="52" on="0"/>
        <pt x="670" y="-5" on="1"/>
        <pt x="670" y="-57" on="1"/>
        <pt x="670" y="-92" on="0"/>
        <pt x="618" y="-92" on="0"/>
        <pt x="618" y="-57" on="1"/>
        <pt x="618" y="0" on="1"/>
        <pt x="86" y="0" on="1"/>
        <pt x="86" y="576" on="1"/>
        <pt x="86" y="611" on="0"/>
        <pt x="111" y="611" on="1"/>
        <pt x="138" y="611" on="0"/>
        <pt x="138" y="576" on="1"/>
        <pt x="138" y="52" on="1"/>
        <pt x="322" y="52" on="1"/>
      </contour>
    </TTGlyph>
    <TTGlyph name="Sigma" xMin="30" yMin="0" xMax="535" yMax="647">
      <contour>
        <pt x="30" y="622" on="1"/>
        <pt x="30" y="647" on="0"/>
        <pt x="61" y="647" on="1"/>
        <pt x="501" y="647" on="1"/>
        <pt x="535" y="647" on="0"/>
        <pt x="535" y="619" on="1"/>
        <pt x="535" y="595" on="0"/>
        <pt x="501" y="595" on="1"/>
        <pt x="112" y="595" on="1"/>
        <pt x="335" y="345" on="1"/>
        <pt x="346" y="331" on="0"/>
        <pt x="346" y="323" on="1"/>
        <pt x="346" y="313" on="0"/>
        <pt x="336" y="301" on="1"/>
        <pt x="112" y="52" on="1"/>
        <pt x="501" y="52" on="1"/>
        <pt x="535" y="52" on="0"/>
        <pt x="535" y="24" on="1"/>
        <pt x="535" y="0" on="0"/>
        <pt x="501" y="0" on="1"/>
        <pt x="55" y="0" on="1"/>
        <pt x="45" y="0" on="0"/>
        <pt x="30" y="14" on="0"/>
        <pt x="30" y="36" on="0"/>
        <pt x="40" y="48" on="1"/>
        <pt x="283" y="323" on="1"/>
        <pt x="40" y="599" on="1"/>
        <pt x="30" y="609" on="0"/>
      </contour>
    </TTGlyph>
    <TTGlyph name="Softsigncyrillic" xMin="84" yMin="-7" xMax="506" yMax="636">
      <contour>
        <pt x="289" y="466" on="1"/>
        <pt x="385" y="466" on="0"/>
        <pt x="506" y="326" on="0"/>
        <pt x="506" y="230" on="1"/>
        <pt x="506" y="133" on="0"/>
        <pt x="385" y="-7" on="0"/>
        <pt x="289" y="-7" on="1"/>
        <pt x="108" y="-7" on="1"/>
        <pt x="84" y="-7" on="0"/>
        <pt x="84" y="28" on="1"/>
        <pt x="84" y="604" on="1"/>
        <pt x="84" y="636" on="0"/>
        <pt x="109" y="636" on="1"/>
        <pt x="136" y="636" on="0"/>
        <pt x="136" y="605" on="1"/>
        <pt x="136" y="466" on="1"/>
      </contour>
      <contour>
        <pt x="289" y="414" on="1"/>
        <pt x="136" y="414" on="1"/>
        <pt x="136" y="45" on="1"/>
        <pt x="289" y="45" on="1"/>
        <pt x="368" y="45" on="0"/>
        <pt x="454" y="155" on="0"/>
        <pt x="454" y="230" on="1"/>
        <pt x="454" y="304" on="0"/>
        <pt x="368" y="414" on="0"/>
      </contour>
    </TTGlyph>
    <TTGlyph name="T" xMin="27" yMin="-7" xMax="454" yMax="636">
      <contour>
        <pt x="421" y="636" on="1"/>
        <pt x="454" y="636" on="0"/>
        <pt x="454" y="609" on="1"/>
        <pt x="454" y="584" on="0"/>
        <pt x="421" y="584" on="1"/>
        <pt x="269" y="584" on="1"/>
        <pt x="269" y="25" on="1"/>
        <pt x="269" y="-7" on="0"/>
        <pt x="240" y="-7" on="1"/>
        <pt x="214" y="-7" on="0"/>
        <pt x="214" y="25" on="1"/>
        <pt x="214" y="584" on="1"/>
        <pt x="60" y="584" on="1"/>
        <pt x="27" y="584" on="0"/>
        <pt x="27" y="636" on="0"/>
        <pt x="60" y="636" on="1"/>
      </contour>
    </TTGlyph>
    <TTGlyph name="Tau" xMin="27" yMin="-7" xMax="454" yMax="636">
      <component glyphName="T" x="0" y="0" flags="0x1004"/>
    </TTGlyph>
    <TTGlyph name="Tbar" xMin="27" yMin="-7" xMax="454" yMax="636">
      <contour>
        <pt x="421" y="636" on="1"/>
        <pt x="454" y="636" on="0"/>
        <pt x="454" y="609" on="1"/>
        <pt x="454" y="584" on="0"/>
        <pt x="421" y="584" on="1"/>
        <pt x="269" y="584" on="1"/>
        <pt x="269" y="366" on="1"/>
        <pt x="361" y="366" on="1"/>
        <pt x="395" y="366" on="0"/>
        <pt x="395" y="338" on="1"/>
        <pt x="395" y="327" on="0"/>
        <pt x="376" y="313" on="0"/>
        <pt x="361" y="313" on="1"/>
        <pt x="269" y="313" on="1"/>
        <pt x="269" y="25" on="1"/>
        <pt x="269" y="-7" on="0"/>
        <pt x="240" y="-7" on="1"/>
        <pt x="214" y="-7" on="0"/>
        <pt x="214" y="25" on="1"/>
        <pt x="214" y="313" on="1"/>
        <pt x="116" y="313" on="1"/>
        <pt x="85" y="313" on="0"/>
        <pt x="85" y="340" on="1"/>
        <pt x="85" y="366" on="0"/>
        <pt x="116" y="366" on="1"/>
        <pt x="214" y="366" on="1"/>
        <pt x="214" y="584" on="1"/>
        <pt x="60" y="584" on="1"/>
        <pt x="27" y="584" on="0"/>
        <pt x="27" y="636" on="0"/>
        <pt x="60" y="636" on="1"/>
      </contour>
    </TTGlyph>
    <TTGlyph name="Tcaron" xMin="27" yMin="-7" xMax="454" yMax="822">
      <contour>
        <pt x="421" y="636" on="1"/>
        <pt x="454" y="636" on="0"/>
        <pt x="454" y="609" on="1"/>
        <pt x="454" y="584" on="0"/>
        <pt x="421" y="584" on="1"/>
        <pt x="269" y="584" on="1"/>
        <pt x="269" y="25" on="1"/>
        <pt x="269" y="-7" on="0"/>
        <pt x="240" y="-7" on="1"/>
        <pt x="214" y="-7" on="0"/>
        <pt x="214" y="25" on="1"/>
        <pt x="214" y="584" on="1"/>
        <pt x="60" y="584" on="1"/>
        <pt x="27" y="584" on="0"/>
        <pt x="27" y="636" on="0"/>
        <pt x="60" y="636" on="1"/>
      </contour>
      <contour>
        <pt x="269" y="678" on="1"/>
        <pt x="213" y="678" on="1"/>
        <pt x="109" y="787" on="1"/>
        <pt x="102" y="794" on="0"/>
        <pt x="102" y="802" on="1"/>
        <pt x="102" y="822" on="0"/>
        <pt x="125" y="822" on="1"/>
        <pt x="137" y="822" on="0"/>
        <pt x="157" y="805" on="1"/>
        <pt x="241" y="735" on="1"/>
        <pt x="325" y="805" on="1"/>
        <pt x="345" y="822" on="0"/>
        <pt x="357" y="822" on="1"/>
        <pt x="380" y="822" on="0"/>
        <pt x="380" y="802" on="1"/>
        <pt x="380" y="794" on="0"/>
        <pt x="373" y="787" on="1"/>
      </contour>
    </TTGlyph>
    <TTGlyph name="Tcommaaccent" xMin="27" yMin="-175" xMax="454" yMax="636">
      <contour>
        <pt x="269" y="10" on="1"/>
        <pt x="269" y="-6" on="0"/>
        <pt x="290" y="-31" on="0"/>
        <pt x="314" y="-45" on="0"/>
        <pt x="335" y="-74" on="0"/>
        <pt x="335" y="-94" on="1"/>
        <pt x="335" y="-130" on="0"/>
        <pt x="279" y="-175" on="0"/>
        <pt x="239" y="-175" on="1"/>
        <pt x="214" y="-175" on="0"/>
        <pt x="160" y="-151" on="0"/>
        <pt x="160" y="-125" on="1"/>
        <pt x="160" y="-107" on="0"/>
        <pt x="175" y="-107" on="1"/>
        <pt x="181" y="-107" on="0"/>
        <pt x="227" y="-125" on="0"/>
        <pt x="241" y="-125" on="1"/>
        <pt x="283" y="-125" on="0"/>
        <pt x="283" y="-99" on="1"/>
        <pt x="283" y="-89" on="0"/>
        <pt x="261" y="-68" on="0"/>
        <pt x="236" y="-50" on="0"/>
        <pt x="214" y="-14" on="0"/>
        <pt x="214" y="10" on="1"/>
        <pt x="214" y="584" on="1"/>
        <pt x="60" y="584" on="1"/>
        <pt x="27" y="584" on="0"/>
        <pt x="27" y="636" on="0"/>
        <pt x="60" y="636" on="1"/>
        <pt x="421" y="636" on="1"/>
        <pt x="454" y="636" on="0"/>
        <pt x="454" y="609" on="1"/>
        <pt x="454" y="584" on="0"/>
        <pt x="421" y="584" on="1"/>
        <pt x="269" y="584" on="1"/>
      </contour>
    </TTGlyph>
    <TTGlyph name="Tecyrillic" xMin="27" yMin="-7" xMax="454" yMax="636">
      <component glyphName="T" x="0" y="0" flags="0x1004"/>
    </TTGlyph>
    <TTGlyph name="Theta" xMin="65" yMin="-9" xMax="529" yMax="645">
      <contour>
        <pt x="209" y="291" on="1"/>
        <pt x="193" y="291" on="0"/>
        <pt x="177" y="307" on="0"/>
        <pt x="177" y="318" on="1"/>
        <pt x="177" y="344" on="0"/>
        <pt x="209" y="344" on="1"/>
        <pt x="382" y="344" on="1"/>
        <pt x="417" y="344" on="0"/>
        <pt x="417" y="318" on="1"/>
        <pt x="417" y="306" on="0"/>
        <pt x="397" y="291" on="0"/>
        <pt x="382" y="291" on="1"/>
      </contour>
      <contour>
        <pt x="399" y="-9" on="0"/>
        <pt x="195" y="-9" on="0"/>
        <pt x="65" y="117" on="0"/>
        <pt x="65" y="228" on="1"/>
        <pt x="65" y="408" on="1"/>
        <pt x="65" y="519" on="0"/>
        <pt x="195" y="645" on="0"/>
        <pt x="399" y="645" on="0"/>
        <pt x="529" y="518" on="0"/>
        <pt x="529" y="408" on="1"/>
        <pt x="529" y="228" on="1"/>
        <pt x="529" y="118" on="0"/>
      </contour>
      <contour>
        <pt x="383" y="593" on="0"/>
        <pt x="211" y="593" on="0"/>
        <pt x="117" y="495" on="0"/>
        <pt x="117" y="407" on="1"/>
        <pt x="117" y="229" on="1"/>
        <pt x="117" y="141" on="0"/>
        <pt x="211" y="43" on="0"/>
        <pt x="383" y="43" on="0"/>
        <pt x="477" y="141" on="0"/>
        <pt x="477" y="229" on="1"/>
        <pt x="477" y="407" on="1"/>
        <pt x="477" y="495" on="0"/>
      </contour>
    </TTGlyph>
    <TTGlyph name="Thorn" xMin="84" yMin="-7" xMax="485" yMax="606">
      <contour>
        <pt x="136" y="466" on="1"/>
        <pt x="311" y="466" on="1"/>
        <pt x="393" y="466" on="0"/>
        <pt x="485" y="388" on="0"/>
        <pt x="485" y="238" on="0"/>
        <pt x="392" y="159" on="0"/>
        <pt x="310" y="159" on="1"/>
        <pt x="136" y="159" on="1"/>
        <pt x="136" y="25" on="1"/>
        <pt x="136" y="-7" on="0"/>
        <pt x="109" y="-7" on="1"/>
        <pt x="84" y="-7" on="0"/>
        <pt x="84" y="25" on="1"/>
        <pt x="84" y="573" on="1"/>
        <pt x="84" y="606" on="0"/>
        <pt x="136" y="606" on="0"/>
        <pt x="136" y="573" on="1"/>
      </contour>
      <contour>
        <pt x="266" y="414" on="1"/>
        <pt x="136" y="414" on="1"/>
        <pt x="136" y="208" on="1"/>
        <pt x="265" y="208" on="1"/>
        <pt x="359" y="208" on="0"/>
        <pt x="432" y="247" on="0"/>
        <pt x="432" y="311" on="1"/>
        <pt x="432" y="373" on="0"/>
        <pt x="359" y="414" on="0"/>
      </contour>
    </TTGlyph>
    <TTGlyph name="Tsecyrillic" xMin="86" yMin="-92" xMax="540" yMax="611">
      <contour>
        <pt x="540" y="-57" on="1"/>
        <pt x="540" y="-92" on="0"/>
        <pt x="488" y="-92" on="0"/>
        <pt x="488" y="-57" on="1"/>
        <pt x="488" y="0" on="1"/>
        <pt x="86" y="0" on="1"/>
        <pt x="86" y="576" on="1"/>
        <pt x="86" y="611" on="0"/>
        <pt x="111" y="611" on="1"/>
        <pt x="138" y="611" on="0"/>
        <pt x="138" y="576" on="1"/>
        <pt x="138" y="52" on="1"/>
        <pt x="430" y="52" on="1"/>
        <pt x="430" y="576" on="1"/>
        <pt x="430" y="611" on="0"/>
        <pt x="482" y="611" on="0"/>
        <pt x="482" y="576" on="1"/>
        <pt x="482" y="52" on="1"/>
        <pt x="489" y="52" on="1"/>
        <pt x="540" y="52" on="0"/>
        <pt x="540" y="-5" on="1"/>
      </contour>
    </TTGlyph>
    <TTGlyph name="Tshecyrillic" xMin="27" yMin="-7" xMax="645" yMax="636">
      <contour>
        <pt x="417" y="584" on="1"/>
        <pt x="265" y="584" on="1"/>
        <pt x="265" y="403" on="1"/>
        <pt x="325" y="466" on="0"/>
        <pt x="431" y="466" on="1"/>
        <pt x="540" y="466" on="0"/>
        <pt x="645" y="394" on="0"/>
        <pt x="645" y="288" on="1"/>
        <pt x="645" y="28" on="1"/>
        <pt x="645" y="-7" on="0"/>
        <pt x="620" y="-7" on="1"/>
        <pt x="593" y="-7" on="0"/>
        <pt x="593" y="28" on="1"/>
        <pt x="593" y="288" on="1"/>
        <pt x="593" y="369" on="0"/>
        <pt x="523" y="414" on="0"/>
        <pt x="431" y="414" on="1"/>
        <pt x="351" y="414" on="0"/>
        <pt x="265" y="322" on="0"/>
        <pt x="265" y="234" on="1"/>
        <pt x="265" y="28" on="1"/>
        <pt x="265" y="-7" on="0"/>
        <pt x="238" y="-7" on="1"/>
        <pt x="212" y="-7" on="0"/>
        <pt x="212" y="27" on="1"/>
        <pt x="212" y="584" on="1"/>
        <pt x="60" y="584" on="1"/>
        <pt x="27" y="584" on="0"/>
        <pt x="27" y="636" on="0"/>
        <pt x="60" y="636" on="1"/>
        <pt x="417" y="636" on="1"/>
        <pt x="451" y="636" on="0"/>
        <pt x="451" y="609" on="1"/>
        <pt x="451" y="584" on="0"/>
      </contour>
    </TTGlyph>
    <TTGlyph name="U" xMin="78" yMin="-9" xMax="542" yMax="643">
      <contour>
        <pt x="490" y="611" on="1"/>
        <pt x="490" y="643" on="0"/>
        <pt x="517" y="643" on="1"/>
        <pt x="542" y="643" on="0"/>
        <pt x="542" y="610" on="1"/>
        <pt x="542" y="228" on="1"/>
        <pt x="542" y="118" on="0"/>
        <pt x="412" y="-9" on="0"/>
        <pt x="208" y="-9" on="0"/>
        <pt x="78" y="117" on="0"/>
        <pt x="78" y="228" on="1"/>
        <pt x="78" y="610" on="1"/>
        <pt x="78" y="643" on="0"/>
        <pt x="130" y="643" on="0"/>
        <pt x="130" y="611" on="1"/>
        <pt x="130" y="229" on="1"/>
        <pt x="130" y="141" on="0"/>
        <pt x="224" y="43" on="0"/>
        <pt x="396" y="43" on="0"/>
        <pt x="490" y="141" on="0"/>
        <pt x="490" y="229" on="1"/>
      </contour>
    </TTGlyph>
    <TTGlyph name="Uacute" xMin="78" yMin="-9" xMax="542" yMax="809">
      <component glyphName="acute" x="256" y="126" flags="0x1004"/>
      <component glyphName="U" x="0" y="0" flags="0x1204"/>
    </TTGlyph>
    <TTGlyph name="Ubreve" xMin="78" yMin="-9" xMax="542" yMax="767">
      <contour>
        <pt x="490" y="611" on="1"/>
        <pt x="490" y="643" on="0"/>
        <pt x="517" y="643" on="1"/>
        <pt x="542" y="643" on="0"/>
        <pt x="542" y="610" on="1"/>
        <pt x="542" y="228" on="1"/>
        <pt x="542" y="118" on="0"/>
        <pt x="412" y="-9" on="0"/>
        <pt x="208" y="-9" on="0"/>
        <pt x="78" y="117" on="0"/>
        <pt x="78" y="228" on="1"/>
        <pt x="78" y="610" on="1"/>
        <pt x="78" y="643" on="0"/>
        <pt x="130" y="643" on="0"/>
        <pt x="130" y="611" on="1"/>
        <pt x="130" y="229" on="1"/>
        <pt x="130" y="141" on="0"/>
        <pt x="224" y="43" on="0"/>
        <pt x="396" y="43" on="0"/>
        <pt x="490" y="141" on="0"/>
        <pt x="490" y="229" on="1"/>
      </contour>
      <contour>
        <pt x="313" y="636" on="1"/>
        <pt x="267" y="636" on="0"/>
        <pt x="193" y="707" on="0"/>
        <pt x="193" y="767" on="1"/>
        <pt x="246" y="767" on="1"/>
        <pt x="246" y="724" on="0"/>
        <pt x="287" y="690" on="0"/>
        <pt x="339" y="690" on="0"/>
        <pt x="380" y="724" on="0"/>
        <pt x="380" y="767" on="1"/>
        <pt x="433" y="767" on="1"/>
        <pt x="433" y="706" on="0"/>
        <pt x="358" y="636" on="0"/>
      </contour>
    </TTGlyph>
    <TTGlyph name="Ucircumflex" xMin="78" yMin="-9" xMax="542" yMax="819">
      <component glyphName="uni0302" x="612" y="141" flags="0x1004"/>
      <component glyphName="U" x="0" y="0" flags="0x1204"/>
    </TTGlyph>
    <TTGlyph name="Ucyrillic" xMin="42" yMin="-6" xMax="506" yMax="636">
      <contour>
        <pt x="271" y="213" on="1"/>
        <pt x="454" y="615" on="1"/>
        <pt x="463" y="636" on="0"/>
        <pt x="482" y="636" on="1"/>
        <pt x="491" y="636" on="0"/>
        <pt x="506" y="623" on="0"/>
        <pt x="506" y="613" on="1"/>
        <pt x="506" y="608" on="0"/>
        <pt x="503" y="600" on="1"/>
        <pt x="247" y="42" on="1"/>
        <pt x="237" y="20" on="0"/>
        <pt x="191" y="-6" on="0"/>
        <pt x="162" y="-6" on="1"/>
        <pt x="130" y="-6" on="0"/>
        <pt x="87" y="13" on="0"/>
        <pt x="68" y="49" on="0"/>
        <pt x="62" y="83" on="0"/>
        <pt x="62" y="106" on="1"/>
        <pt x="62" y="141" on="0"/>
        <pt x="114" y="141" on="0"/>
        <pt x="114" y="108" on="1"/>
        <pt x="114" y="72" on="0"/>
        <pt x="135" y="46" on="0"/>
        <pt x="161" y="46" on="1"/>
        <pt x="188" y="46" on="0"/>
        <pt x="201" y="74" on="1"/>
        <pt x="238" y="151" on="1"/>
        <pt x="46" y="599" on="1"/>
        <pt x="42" y="608" on="0"/>
        <pt x="42" y="615" on="1"/>
        <pt x="42" y="636" on="0"/>
        <pt x="66" y="636" on="1"/>
        <pt x="84" y="636" on="0"/>
        <pt x="94" y="614" on="1"/>
      </contour>
    </TTGlyph>
    <TTGlyph name="Udieresis" xMin="78" yMin="-9" xMax="542" yMax="784">
      <component glyphName="dieresis" x="127" y="113" flags="0x1004"/>
      <component glyphName="U" x="0" y="0" flags="0x1204"/>
    </TTGlyph>
    <TTGlyph name="Ugrave" xMin="78" yMin="-9" xMax="542" yMax="809">
      <component glyphName="grave" x="175" y="126" flags="0x1004"/>
      <component glyphName="U" x="0" y="0" flags="0x1204"/>
    </TTGlyph>
    <TTGlyph name="Uhorn" xMin="78" yMin="-9" xMax="663" yMax="681">
      <contour>
        <pt x="490" y="611" on="1"/>
        <pt x="490" y="643" on="0"/>
        <pt x="517" y="643" on="1"/>
        <pt x="542" y="643" on="0"/>
        <pt x="542" y="610" on="1"/>
        <pt x="542" y="548" on="1"/>
        <pt x="578" y="551" on="0"/>
        <pt x="609" y="573" on="0"/>
        <pt x="609" y="595" on="1"/>
        <pt x="609" y="612" on="0"/>
        <pt x="586" y="630" on="1"/>
        <pt x="571" y="641" on="0"/>
        <pt x="571" y="656" on="1"/>
        <pt x="571" y="667" on="0"/>
        <pt x="588" y="681" on="0"/>
        <pt x="596" y="681" on="1"/>
        <pt x="608" y="681" on="0"/>
        <pt x="619" y="670" on="1"/>
        <pt x="663" y="633" on="0"/>
        <pt x="663" y="591" on="1"/>
        <pt x="663" y="506" on="0"/>
        <pt x="542" y="497" on="1"/>
        <pt x="542" y="228" on="1"/>
        <pt x="542" y="118" on="0"/>
        <pt x="412" y="-9" on="0"/>
        <pt x="208" y="-9" on="0"/>
        <pt x="78" y="117" on="0"/>
        <pt x="78" y="228" on="1"/>
        <pt x="78" y="610" on="1"/>
        <pt x="78" y="643" on="0"/>
        <pt x="130" y="643" on="0"/>
        <pt x="130" y="611" on="1"/>
        <pt x="130" y="229" on="1"/>
        <pt x="130" y="141" on="0"/>
        <pt x="224" y="43" on="0"/>
        <pt x="396" y="43" on="0"/>
        <pt x="490" y="141" on="0"/>
        <pt x="490" y="229" on="1"/>
      </contour>
    </TTGlyph>
    <TTGlyph name="Uhungarumlaut" xMin="78" yMin="-9" xMax="542" yMax="809">
      <contour>
        <pt x="490" y="611" on="1"/>
        <pt x="490" y="643" on="0"/>
        <pt x="517" y="643" on="1"/>
        <pt x="542" y="643" on="0"/>
        <pt x="542" y="610" on="1"/>
        <pt x="542" y="228" on="1"/>
        <pt x="542" y="118" on="0"/>
        <pt x="412" y="-9" on="0"/>
        <pt x="208" y="-9" on="0"/>
        <pt x="78" y="117" on="0"/>
        <pt x="78" y="228" on="1"/>
        <pt x="78" y="610" on="1"/>
        <pt x="78" y="643" on="0"/>
        <pt x="130" y="643" on="0"/>
        <pt x="130" y="611" on="1"/>
        <pt x="130" y="229" on="1"/>
        <pt x="130" y="141" on="0"/>
        <pt x="224" y="43" on="0"/>
        <pt x="396" y="43" on="0"/>
        <pt x="490" y="141" on="0"/>
        <pt x="490" y="229" on="1"/>
      </contour>
      <contour>
        <pt x="354" y="761" on="1"/>
        <pt x="258" y="646" on="1"/>
        <pt x="244" y="631" on="0"/>
        <pt x="233" y="631" on="1"/>
        <pt x="225" y="631" on="0"/>
        <pt x="208" y="646" on="0"/>
        <pt x="208" y="656" on="1"/>
        <pt x="208" y="668" on="0"/>
        <pt x="217" y="679" on="1"/>
        <pt x="313" y="794" on="1"/>
        <pt x="326" y="809" on="0"/>
        <pt x="338" y="809" on="1"/>
        <pt x="347" y="809" on="0"/>
        <pt x="363" y="794" on="0"/>
        <pt x="363" y="772" on="0"/>
      </contour>
      <contour>
        <pt x="474" y="761" on="1"/>
        <pt x="378" y="646" on="1"/>
        <pt x="364" y="631" on="0"/>
        <pt x="353" y="631" on="1"/>
        <pt x="345" y="631" on="0"/>
        <pt x="328" y="646" on="0"/>
        <pt x="328" y="656" on="1"/>
        <pt x="328" y="668" on="0"/>
        <pt x="337" y="679" on="1"/>
        <pt x="433" y="794" on="1"/>
        <pt x="446" y="809" on="0"/>
        <pt x="458" y="809" on="1"/>
        <pt x="467" y="809" on="0"/>
        <pt x="483" y="794" on="0"/>
        <pt x="483" y="772" on="0"/>
      </contour>
    </TTGlyph>
    <TTGlyph name="Umacron" xMin="78" yMin="-9" xMax="542" yMax="759">
      <contour>
        <pt x="156" y="733" on="1"/>
        <pt x="156" y="759" on="0"/>
        <pt x="187" y="759" on="1"/>
        <pt x="432" y="759" on="1"/>
        <pt x="466" y="759" on="0"/>
        <pt x="466" y="731" on="1"/>
        <pt x="466" y="720" on="0"/>
        <pt x="447" y="706" on="0"/>
        <pt x="432" y="706" on="1"/>
        <pt x="187" y="706" on="1"/>
        <pt x="156" y="706" on="0"/>
      </contour>
      <contour>
        <pt x="490" y="611" on="1"/>
        <pt x="490" y="643" on="0"/>
        <pt x="517" y="643" on="1"/>
        <pt x="542" y="643" on="0"/>
        <pt x="542" y="610" on="1"/>
        <pt x="542" y="228" on="1"/>
        <pt x="542" y="118" on="0"/>
        <pt x="412" y="-9" on="0"/>
        <pt x="208" y="-9" on="0"/>
        <pt x="78" y="117" on="0"/>
        <pt x="78" y="228" on="1"/>
        <pt x="78" y="610" on="1"/>
        <pt x="78" y="643" on="0"/>
        <pt x="130" y="643" on="0"/>
        <pt x="130" y="611" on="1"/>
        <pt x="130" y="229" on="1"/>
        <pt x="130" y="141" on="0"/>
        <pt x="224" y="43" on="0"/>
        <pt x="396" y="43" on="0"/>
        <pt x="490" y="141" on="0"/>
        <pt x="490" y="229" on="1"/>
      </contour>
    </TTGlyph>
    <TTGlyph name="Uogonek" xMin="79" yMin="-205" xMax="543" yMax="643">
      <contour>
        <pt x="325" y="-155" on="1"/>
        <pt x="341" y="-155" on="0"/>
        <pt x="385" y="-138" on="0"/>
        <pt x="391" y="-138" on="1"/>
        <pt x="406" y="-138" on="0"/>
        <pt x="406" y="-155" on="1"/>
        <pt x="406" y="-181" on="0"/>
        <pt x="352" y="-205" on="0"/>
        <pt x="327" y="-205" on="1"/>
        <pt x="286" y="-205" on="0"/>
        <pt x="231" y="-147" on="0"/>
        <pt x="231" y="-101" on="1"/>
        <pt x="231" y="-68" on="0"/>
        <pt x="274" y="-7" on="1"/>
        <pt x="186" y="5" on="0"/>
        <pt x="79" y="128" on="0"/>
        <pt x="79" y="228" on="1"/>
        <pt x="79" y="610" on="1"/>
        <pt x="79" y="643" on="0"/>
        <pt x="131" y="643" on="0"/>
        <pt x="131" y="611" on="1"/>
        <pt x="131" y="229" on="1"/>
        <pt x="131" y="141" on="0"/>
        <pt x="225" y="43" on="0"/>
        <pt x="397" y="43" on="0"/>
        <pt x="491" y="141" on="0"/>
        <pt x="491" y="229" on="1"/>
        <pt x="491" y="611" on="1"/>
        <pt x="491" y="643" on="0"/>
        <pt x="518" y="643" on="1"/>
        <pt x="543" y="643" on="0"/>
        <pt x="543" y="610" on="1"/>
        <pt x="543" y="228" on="1"/>
        <pt x="543" y="125" on="0"/>
        <pt x="429" y="1" on="0"/>
        <pt x="337" y="-8" on="1"/>
        <pt x="316" y="-27" on="0"/>
        <pt x="283" y="-88" on="0"/>
        <pt x="283" y="-101" on="1"/>
        <pt x="283" y="-155" on="0"/>
      </contour>
    </TTGlyph>
    <TTGlyph name="Upsilon" xMin="17" yMin="-7" xMax="503" yMax="643">
      <component glyphName="Y" x="0" y="0" flags="0x1004"/>
    </TTGlyph>
</ttFont>
